%TF.GenerationSoftware,KiCad,Pcbnew,10.0.3*%
%TF.CreationDate,2026-06-28T17:31:55+03:00*%
%TF.ProjectId,ATmega32_EEPROM_Storage,41546d65-6761-4333-925f-454550524f4d,rev?*%
%TF.SameCoordinates,Original*%
%TF.FileFunction,AssemblyDrawing,Top*%
%FSLAX46Y46*%
G04 Gerber Fmt 4.6, Leading zero omitted, Abs format (unit mm)*
G04 Created by KiCad (PCBNEW 10.0.3) date 2026-06-28 17:31:55*
%MOMM*%
%LPD*%
G01*
G04 APERTURE LIST*
%ADD10C,0.150000*%
%ADD11C,0.120000*%
%ADD12C,0.100000*%
G04 APERTURE END LIST*
D10*
X67857143Y-89050057D02*
X67904762Y-89002438D01*
X67904762Y-89002438D02*
X68000000Y-88954819D01*
X68000000Y-88954819D02*
X68238095Y-88954819D01*
X68238095Y-88954819D02*
X68333333Y-89002438D01*
X68333333Y-89002438D02*
X68380952Y-89050057D01*
X68380952Y-89050057D02*
X68428571Y-89145295D01*
X68428571Y-89145295D02*
X68428571Y-89240533D01*
X68428571Y-89240533D02*
X68380952Y-89383390D01*
X68380952Y-89383390D02*
X67809524Y-89954819D01*
X67809524Y-89954819D02*
X68428571Y-89954819D01*
X68809524Y-89050057D02*
X68857143Y-89002438D01*
X68857143Y-89002438D02*
X68952381Y-88954819D01*
X68952381Y-88954819D02*
X69190476Y-88954819D01*
X69190476Y-88954819D02*
X69285714Y-89002438D01*
X69285714Y-89002438D02*
X69333333Y-89050057D01*
X69333333Y-89050057D02*
X69380952Y-89145295D01*
X69380952Y-89145295D02*
X69380952Y-89240533D01*
X69380952Y-89240533D02*
X69333333Y-89383390D01*
X69333333Y-89383390D02*
X68761905Y-89954819D01*
X68761905Y-89954819D02*
X69380952Y-89954819D01*
X69809524Y-89288152D02*
X69809524Y-90288152D01*
X69809524Y-89335771D02*
X69904762Y-89288152D01*
X69904762Y-89288152D02*
X70095238Y-89288152D01*
X70095238Y-89288152D02*
X70190476Y-89335771D01*
X70190476Y-89335771D02*
X70238095Y-89383390D01*
X70238095Y-89383390D02*
X70285714Y-89478628D01*
X70285714Y-89478628D02*
X70285714Y-89764342D01*
X70285714Y-89764342D02*
X70238095Y-89859580D01*
X70238095Y-89859580D02*
X70190476Y-89907200D01*
X70190476Y-89907200D02*
X70095238Y-89954819D01*
X70095238Y-89954819D02*
X69904762Y-89954819D01*
X69904762Y-89954819D02*
X69809524Y-89907200D01*
X71047619Y-89431009D02*
X70714286Y-89431009D01*
X70714286Y-89954819D02*
X70714286Y-88954819D01*
X70714286Y-88954819D02*
X71190476Y-88954819D01*
X69333333Y-87359580D02*
X69285714Y-87407200D01*
X69285714Y-87407200D02*
X69142857Y-87454819D01*
X69142857Y-87454819D02*
X69047619Y-87454819D01*
X69047619Y-87454819D02*
X68904762Y-87407200D01*
X68904762Y-87407200D02*
X68809524Y-87311961D01*
X68809524Y-87311961D02*
X68761905Y-87216723D01*
X68761905Y-87216723D02*
X68714286Y-87026247D01*
X68714286Y-87026247D02*
X68714286Y-86883390D01*
X68714286Y-86883390D02*
X68761905Y-86692914D01*
X68761905Y-86692914D02*
X68809524Y-86597676D01*
X68809524Y-86597676D02*
X68904762Y-86502438D01*
X68904762Y-86502438D02*
X69047619Y-86454819D01*
X69047619Y-86454819D02*
X69142857Y-86454819D01*
X69142857Y-86454819D02*
X69285714Y-86502438D01*
X69285714Y-86502438D02*
X69333333Y-86550057D01*
X70190476Y-86788152D02*
X70190476Y-87454819D01*
X69952381Y-86407200D02*
X69714286Y-87121485D01*
X69714286Y-87121485D02*
X70333333Y-87121485D01*
X67357143Y-75050057D02*
X67404762Y-75002438D01*
X67404762Y-75002438D02*
X67500000Y-74954819D01*
X67500000Y-74954819D02*
X67738095Y-74954819D01*
X67738095Y-74954819D02*
X67833333Y-75002438D01*
X67833333Y-75002438D02*
X67880952Y-75050057D01*
X67880952Y-75050057D02*
X67928571Y-75145295D01*
X67928571Y-75145295D02*
X67928571Y-75240533D01*
X67928571Y-75240533D02*
X67880952Y-75383390D01*
X67880952Y-75383390D02*
X67309524Y-75954819D01*
X67309524Y-75954819D02*
X67928571Y-75954819D01*
X68309524Y-75050057D02*
X68357143Y-75002438D01*
X68357143Y-75002438D02*
X68452381Y-74954819D01*
X68452381Y-74954819D02*
X68690476Y-74954819D01*
X68690476Y-74954819D02*
X68785714Y-75002438D01*
X68785714Y-75002438D02*
X68833333Y-75050057D01*
X68833333Y-75050057D02*
X68880952Y-75145295D01*
X68880952Y-75145295D02*
X68880952Y-75240533D01*
X68880952Y-75240533D02*
X68833333Y-75383390D01*
X68833333Y-75383390D02*
X68261905Y-75954819D01*
X68261905Y-75954819D02*
X68880952Y-75954819D01*
X69309524Y-75288152D02*
X69309524Y-76288152D01*
X69309524Y-75335771D02*
X69404762Y-75288152D01*
X69404762Y-75288152D02*
X69595238Y-75288152D01*
X69595238Y-75288152D02*
X69690476Y-75335771D01*
X69690476Y-75335771D02*
X69738095Y-75383390D01*
X69738095Y-75383390D02*
X69785714Y-75478628D01*
X69785714Y-75478628D02*
X69785714Y-75764342D01*
X69785714Y-75764342D02*
X69738095Y-75859580D01*
X69738095Y-75859580D02*
X69690476Y-75907200D01*
X69690476Y-75907200D02*
X69595238Y-75954819D01*
X69595238Y-75954819D02*
X69404762Y-75954819D01*
X69404762Y-75954819D02*
X69309524Y-75907200D01*
X70547619Y-75431009D02*
X70214286Y-75431009D01*
X70214286Y-75954819D02*
X70214286Y-74954819D01*
X70214286Y-74954819D02*
X70690476Y-74954819D01*
X68833333Y-73359580D02*
X68785714Y-73407200D01*
X68785714Y-73407200D02*
X68642857Y-73454819D01*
X68642857Y-73454819D02*
X68547619Y-73454819D01*
X68547619Y-73454819D02*
X68404762Y-73407200D01*
X68404762Y-73407200D02*
X68309524Y-73311961D01*
X68309524Y-73311961D02*
X68261905Y-73216723D01*
X68261905Y-73216723D02*
X68214286Y-73026247D01*
X68214286Y-73026247D02*
X68214286Y-72883390D01*
X68214286Y-72883390D02*
X68261905Y-72692914D01*
X68261905Y-72692914D02*
X68309524Y-72597676D01*
X68309524Y-72597676D02*
X68404762Y-72502438D01*
X68404762Y-72502438D02*
X68547619Y-72454819D01*
X68547619Y-72454819D02*
X68642857Y-72454819D01*
X68642857Y-72454819D02*
X68785714Y-72502438D01*
X68785714Y-72502438D02*
X68833333Y-72550057D01*
X69166667Y-72454819D02*
X69785714Y-72454819D01*
X69785714Y-72454819D02*
X69452381Y-72835771D01*
X69452381Y-72835771D02*
X69595238Y-72835771D01*
X69595238Y-72835771D02*
X69690476Y-72883390D01*
X69690476Y-72883390D02*
X69738095Y-72931009D01*
X69738095Y-72931009D02*
X69785714Y-73026247D01*
X69785714Y-73026247D02*
X69785714Y-73264342D01*
X69785714Y-73264342D02*
X69738095Y-73359580D01*
X69738095Y-73359580D02*
X69690476Y-73407200D01*
X69690476Y-73407200D02*
X69595238Y-73454819D01*
X69595238Y-73454819D02*
X69309524Y-73454819D01*
X69309524Y-73454819D02*
X69214286Y-73407200D01*
X69214286Y-73407200D02*
X69166667Y-73359580D01*
X47702381Y-75607200D02*
X47845238Y-75654819D01*
X47845238Y-75654819D02*
X48083333Y-75654819D01*
X48083333Y-75654819D02*
X48178571Y-75607200D01*
X48178571Y-75607200D02*
X48226190Y-75559580D01*
X48226190Y-75559580D02*
X48273809Y-75464342D01*
X48273809Y-75464342D02*
X48273809Y-75369104D01*
X48273809Y-75369104D02*
X48226190Y-75273866D01*
X48226190Y-75273866D02*
X48178571Y-75226247D01*
X48178571Y-75226247D02*
X48083333Y-75178628D01*
X48083333Y-75178628D02*
X47892857Y-75131009D01*
X47892857Y-75131009D02*
X47797619Y-75083390D01*
X47797619Y-75083390D02*
X47750000Y-75035771D01*
X47750000Y-75035771D02*
X47702381Y-74940533D01*
X47702381Y-74940533D02*
X47702381Y-74845295D01*
X47702381Y-74845295D02*
X47750000Y-74750057D01*
X47750000Y-74750057D02*
X47797619Y-74702438D01*
X47797619Y-74702438D02*
X47892857Y-74654819D01*
X47892857Y-74654819D02*
X48130952Y-74654819D01*
X48130952Y-74654819D02*
X48273809Y-74702438D01*
X48607143Y-74654819D02*
X48845238Y-75654819D01*
X48845238Y-75654819D02*
X49035714Y-74940533D01*
X49035714Y-74940533D02*
X49226190Y-75654819D01*
X49226190Y-75654819D02*
X49464286Y-74654819D01*
X49607143Y-75750057D02*
X50369047Y-75750057D01*
X50607143Y-75654819D02*
X50607143Y-74654819D01*
X50607143Y-74654819D02*
X50988095Y-74654819D01*
X50988095Y-74654819D02*
X51083333Y-74702438D01*
X51083333Y-74702438D02*
X51130952Y-74750057D01*
X51130952Y-74750057D02*
X51178571Y-74845295D01*
X51178571Y-74845295D02*
X51178571Y-74988152D01*
X51178571Y-74988152D02*
X51130952Y-75083390D01*
X51130952Y-75083390D02*
X51083333Y-75131009D01*
X51083333Y-75131009D02*
X50988095Y-75178628D01*
X50988095Y-75178628D02*
X50607143Y-75178628D01*
X52035714Y-74988152D02*
X52035714Y-75654819D01*
X51607143Y-74988152D02*
X51607143Y-75511961D01*
X51607143Y-75511961D02*
X51654762Y-75607200D01*
X51654762Y-75607200D02*
X51750000Y-75654819D01*
X51750000Y-75654819D02*
X51892857Y-75654819D01*
X51892857Y-75654819D02*
X51988095Y-75607200D01*
X51988095Y-75607200D02*
X52035714Y-75559580D01*
X52464286Y-75607200D02*
X52559524Y-75654819D01*
X52559524Y-75654819D02*
X52750000Y-75654819D01*
X52750000Y-75654819D02*
X52845238Y-75607200D01*
X52845238Y-75607200D02*
X52892857Y-75511961D01*
X52892857Y-75511961D02*
X52892857Y-75464342D01*
X52892857Y-75464342D02*
X52845238Y-75369104D01*
X52845238Y-75369104D02*
X52750000Y-75321485D01*
X52750000Y-75321485D02*
X52607143Y-75321485D01*
X52607143Y-75321485D02*
X52511905Y-75273866D01*
X52511905Y-75273866D02*
X52464286Y-75178628D01*
X52464286Y-75178628D02*
X52464286Y-75131009D01*
X52464286Y-75131009D02*
X52511905Y-75035771D01*
X52511905Y-75035771D02*
X52607143Y-74988152D01*
X52607143Y-74988152D02*
X52750000Y-74988152D01*
X52750000Y-74988152D02*
X52845238Y-75035771D01*
X53321429Y-75654819D02*
X53321429Y-74654819D01*
X53750000Y-75654819D02*
X53750000Y-75131009D01*
X53750000Y-75131009D02*
X53702381Y-75035771D01*
X53702381Y-75035771D02*
X53607143Y-74988152D01*
X53607143Y-74988152D02*
X53464286Y-74988152D01*
X53464286Y-74988152D02*
X53369048Y-75035771D01*
X53369048Y-75035771D02*
X53321429Y-75083390D01*
X48702380Y-71204819D02*
X48369047Y-70728628D01*
X48130952Y-71204819D02*
X48130952Y-70204819D01*
X48130952Y-70204819D02*
X48511904Y-70204819D01*
X48511904Y-70204819D02*
X48607142Y-70252438D01*
X48607142Y-70252438D02*
X48654761Y-70300057D01*
X48654761Y-70300057D02*
X48702380Y-70395295D01*
X48702380Y-70395295D02*
X48702380Y-70538152D01*
X48702380Y-70538152D02*
X48654761Y-70633390D01*
X48654761Y-70633390D02*
X48607142Y-70681009D01*
X48607142Y-70681009D02*
X48511904Y-70728628D01*
X48511904Y-70728628D02*
X48130952Y-70728628D01*
X49130952Y-70681009D02*
X49464285Y-70681009D01*
X49607142Y-71204819D02*
X49130952Y-71204819D01*
X49130952Y-71204819D02*
X49130952Y-70204819D01*
X49130952Y-70204819D02*
X49607142Y-70204819D01*
X49988095Y-70919104D02*
X50464285Y-70919104D01*
X49892857Y-71204819D02*
X50226190Y-70204819D01*
X50226190Y-70204819D02*
X50559523Y-71204819D01*
X50892857Y-71204819D02*
X50892857Y-70204819D01*
X50892857Y-70204819D02*
X51130952Y-70204819D01*
X51130952Y-70204819D02*
X51273809Y-70252438D01*
X51273809Y-70252438D02*
X51369047Y-70347676D01*
X51369047Y-70347676D02*
X51416666Y-70442914D01*
X51416666Y-70442914D02*
X51464285Y-70633390D01*
X51464285Y-70633390D02*
X51464285Y-70776247D01*
X51464285Y-70776247D02*
X51416666Y-70966723D01*
X51416666Y-70966723D02*
X51369047Y-71061961D01*
X51369047Y-71061961D02*
X51273809Y-71157200D01*
X51273809Y-71157200D02*
X51130952Y-71204819D01*
X51130952Y-71204819D02*
X50892857Y-71204819D01*
X52416666Y-71204819D02*
X51845238Y-71204819D01*
X52130952Y-71204819D02*
X52130952Y-70204819D01*
X52130952Y-70204819D02*
X52035714Y-70347676D01*
X52035714Y-70347676D02*
X51940476Y-70442914D01*
X51940476Y-70442914D02*
X51845238Y-70490533D01*
X48202381Y-95607200D02*
X48345238Y-95654819D01*
X48345238Y-95654819D02*
X48583333Y-95654819D01*
X48583333Y-95654819D02*
X48678571Y-95607200D01*
X48678571Y-95607200D02*
X48726190Y-95559580D01*
X48726190Y-95559580D02*
X48773809Y-95464342D01*
X48773809Y-95464342D02*
X48773809Y-95369104D01*
X48773809Y-95369104D02*
X48726190Y-95273866D01*
X48726190Y-95273866D02*
X48678571Y-95226247D01*
X48678571Y-95226247D02*
X48583333Y-95178628D01*
X48583333Y-95178628D02*
X48392857Y-95131009D01*
X48392857Y-95131009D02*
X48297619Y-95083390D01*
X48297619Y-95083390D02*
X48250000Y-95035771D01*
X48250000Y-95035771D02*
X48202381Y-94940533D01*
X48202381Y-94940533D02*
X48202381Y-94845295D01*
X48202381Y-94845295D02*
X48250000Y-94750057D01*
X48250000Y-94750057D02*
X48297619Y-94702438D01*
X48297619Y-94702438D02*
X48392857Y-94654819D01*
X48392857Y-94654819D02*
X48630952Y-94654819D01*
X48630952Y-94654819D02*
X48773809Y-94702438D01*
X49107143Y-94654819D02*
X49345238Y-95654819D01*
X49345238Y-95654819D02*
X49535714Y-94940533D01*
X49535714Y-94940533D02*
X49726190Y-95654819D01*
X49726190Y-95654819D02*
X49964286Y-94654819D01*
X50107143Y-95750057D02*
X50869047Y-95750057D01*
X51107143Y-95654819D02*
X51107143Y-94654819D01*
X51107143Y-94654819D02*
X51488095Y-94654819D01*
X51488095Y-94654819D02*
X51583333Y-94702438D01*
X51583333Y-94702438D02*
X51630952Y-94750057D01*
X51630952Y-94750057D02*
X51678571Y-94845295D01*
X51678571Y-94845295D02*
X51678571Y-94988152D01*
X51678571Y-94988152D02*
X51630952Y-95083390D01*
X51630952Y-95083390D02*
X51583333Y-95131009D01*
X51583333Y-95131009D02*
X51488095Y-95178628D01*
X51488095Y-95178628D02*
X51107143Y-95178628D01*
X52535714Y-94988152D02*
X52535714Y-95654819D01*
X52107143Y-94988152D02*
X52107143Y-95511961D01*
X52107143Y-95511961D02*
X52154762Y-95607200D01*
X52154762Y-95607200D02*
X52250000Y-95654819D01*
X52250000Y-95654819D02*
X52392857Y-95654819D01*
X52392857Y-95654819D02*
X52488095Y-95607200D01*
X52488095Y-95607200D02*
X52535714Y-95559580D01*
X52964286Y-95607200D02*
X53059524Y-95654819D01*
X53059524Y-95654819D02*
X53250000Y-95654819D01*
X53250000Y-95654819D02*
X53345238Y-95607200D01*
X53345238Y-95607200D02*
X53392857Y-95511961D01*
X53392857Y-95511961D02*
X53392857Y-95464342D01*
X53392857Y-95464342D02*
X53345238Y-95369104D01*
X53345238Y-95369104D02*
X53250000Y-95321485D01*
X53250000Y-95321485D02*
X53107143Y-95321485D01*
X53107143Y-95321485D02*
X53011905Y-95273866D01*
X53011905Y-95273866D02*
X52964286Y-95178628D01*
X52964286Y-95178628D02*
X52964286Y-95131009D01*
X52964286Y-95131009D02*
X53011905Y-95035771D01*
X53011905Y-95035771D02*
X53107143Y-94988152D01*
X53107143Y-94988152D02*
X53250000Y-94988152D01*
X53250000Y-94988152D02*
X53345238Y-95035771D01*
X53821429Y-95654819D02*
X53821429Y-94654819D01*
X54250000Y-95654819D02*
X54250000Y-95131009D01*
X54250000Y-95131009D02*
X54202381Y-95035771D01*
X54202381Y-95035771D02*
X54107143Y-94988152D01*
X54107143Y-94988152D02*
X53964286Y-94988152D01*
X53964286Y-94988152D02*
X53869048Y-95035771D01*
X53869048Y-95035771D02*
X53821429Y-95083390D01*
X49416667Y-91157200D02*
X49559524Y-91204819D01*
X49559524Y-91204819D02*
X49797619Y-91204819D01*
X49797619Y-91204819D02*
X49892857Y-91157200D01*
X49892857Y-91157200D02*
X49940476Y-91109580D01*
X49940476Y-91109580D02*
X49988095Y-91014342D01*
X49988095Y-91014342D02*
X49988095Y-90919104D01*
X49988095Y-90919104D02*
X49940476Y-90823866D01*
X49940476Y-90823866D02*
X49892857Y-90776247D01*
X49892857Y-90776247D02*
X49797619Y-90728628D01*
X49797619Y-90728628D02*
X49607143Y-90681009D01*
X49607143Y-90681009D02*
X49511905Y-90633390D01*
X49511905Y-90633390D02*
X49464286Y-90585771D01*
X49464286Y-90585771D02*
X49416667Y-90490533D01*
X49416667Y-90490533D02*
X49416667Y-90395295D01*
X49416667Y-90395295D02*
X49464286Y-90300057D01*
X49464286Y-90300057D02*
X49511905Y-90252438D01*
X49511905Y-90252438D02*
X49607143Y-90204819D01*
X49607143Y-90204819D02*
X49845238Y-90204819D01*
X49845238Y-90204819D02*
X49988095Y-90252438D01*
X50321429Y-90204819D02*
X50559524Y-91204819D01*
X50559524Y-91204819D02*
X50750000Y-90490533D01*
X50750000Y-90490533D02*
X50940476Y-91204819D01*
X50940476Y-91204819D02*
X51178572Y-90204819D01*
X51988095Y-90204819D02*
X51797619Y-90204819D01*
X51797619Y-90204819D02*
X51702381Y-90252438D01*
X51702381Y-90252438D02*
X51654762Y-90300057D01*
X51654762Y-90300057D02*
X51559524Y-90442914D01*
X51559524Y-90442914D02*
X51511905Y-90633390D01*
X51511905Y-90633390D02*
X51511905Y-91014342D01*
X51511905Y-91014342D02*
X51559524Y-91109580D01*
X51559524Y-91109580D02*
X51607143Y-91157200D01*
X51607143Y-91157200D02*
X51702381Y-91204819D01*
X51702381Y-91204819D02*
X51892857Y-91204819D01*
X51892857Y-91204819D02*
X51988095Y-91157200D01*
X51988095Y-91157200D02*
X52035714Y-91109580D01*
X52035714Y-91109580D02*
X52083333Y-91014342D01*
X52083333Y-91014342D02*
X52083333Y-90776247D01*
X52083333Y-90776247D02*
X52035714Y-90681009D01*
X52035714Y-90681009D02*
X51988095Y-90633390D01*
X51988095Y-90633390D02*
X51892857Y-90585771D01*
X51892857Y-90585771D02*
X51702381Y-90585771D01*
X51702381Y-90585771D02*
X51607143Y-90633390D01*
X51607143Y-90633390D02*
X51559524Y-90681009D01*
X51559524Y-90681009D02*
X51511905Y-90776247D01*
X67452380Y-54954819D02*
X66880952Y-54954819D01*
X67166666Y-54954819D02*
X67166666Y-53954819D01*
X67166666Y-53954819D02*
X67071428Y-54097676D01*
X67071428Y-54097676D02*
X66976190Y-54192914D01*
X66976190Y-54192914D02*
X66880952Y-54240533D01*
X68071428Y-53954819D02*
X68166666Y-53954819D01*
X68166666Y-53954819D02*
X68261904Y-54002438D01*
X68261904Y-54002438D02*
X68309523Y-54050057D01*
X68309523Y-54050057D02*
X68357142Y-54145295D01*
X68357142Y-54145295D02*
X68404761Y-54335771D01*
X68404761Y-54335771D02*
X68404761Y-54573866D01*
X68404761Y-54573866D02*
X68357142Y-54764342D01*
X68357142Y-54764342D02*
X68309523Y-54859580D01*
X68309523Y-54859580D02*
X68261904Y-54907200D01*
X68261904Y-54907200D02*
X68166666Y-54954819D01*
X68166666Y-54954819D02*
X68071428Y-54954819D01*
X68071428Y-54954819D02*
X67976190Y-54907200D01*
X67976190Y-54907200D02*
X67928571Y-54859580D01*
X67928571Y-54859580D02*
X67880952Y-54764342D01*
X67880952Y-54764342D02*
X67833333Y-54573866D01*
X67833333Y-54573866D02*
X67833333Y-54335771D01*
X67833333Y-54335771D02*
X67880952Y-54145295D01*
X67880952Y-54145295D02*
X67928571Y-54050057D01*
X67928571Y-54050057D02*
X67976190Y-54002438D01*
X67976190Y-54002438D02*
X68071428Y-53954819D01*
X69023809Y-53954819D02*
X69119047Y-53954819D01*
X69119047Y-53954819D02*
X69214285Y-54002438D01*
X69214285Y-54002438D02*
X69261904Y-54050057D01*
X69261904Y-54050057D02*
X69309523Y-54145295D01*
X69309523Y-54145295D02*
X69357142Y-54335771D01*
X69357142Y-54335771D02*
X69357142Y-54573866D01*
X69357142Y-54573866D02*
X69309523Y-54764342D01*
X69309523Y-54764342D02*
X69261904Y-54859580D01*
X69261904Y-54859580D02*
X69214285Y-54907200D01*
X69214285Y-54907200D02*
X69119047Y-54954819D01*
X69119047Y-54954819D02*
X69023809Y-54954819D01*
X69023809Y-54954819D02*
X68928571Y-54907200D01*
X68928571Y-54907200D02*
X68880952Y-54859580D01*
X68880952Y-54859580D02*
X68833333Y-54764342D01*
X68833333Y-54764342D02*
X68785714Y-54573866D01*
X68785714Y-54573866D02*
X68785714Y-54335771D01*
X68785714Y-54335771D02*
X68833333Y-54145295D01*
X68833333Y-54145295D02*
X68880952Y-54050057D01*
X68880952Y-54050057D02*
X68928571Y-54002438D01*
X68928571Y-54002438D02*
X69023809Y-53954819D01*
X69785714Y-54288152D02*
X69785714Y-54954819D01*
X69785714Y-54383390D02*
X69833333Y-54335771D01*
X69833333Y-54335771D02*
X69928571Y-54288152D01*
X69928571Y-54288152D02*
X70071428Y-54288152D01*
X70071428Y-54288152D02*
X70166666Y-54335771D01*
X70166666Y-54335771D02*
X70214285Y-54431009D01*
X70214285Y-54431009D02*
X70214285Y-54954819D01*
X71023809Y-54431009D02*
X70690476Y-54431009D01*
X70690476Y-54954819D02*
X70690476Y-53954819D01*
X70690476Y-53954819D02*
X71166666Y-53954819D01*
X68833333Y-52359580D02*
X68785714Y-52407200D01*
X68785714Y-52407200D02*
X68642857Y-52454819D01*
X68642857Y-52454819D02*
X68547619Y-52454819D01*
X68547619Y-52454819D02*
X68404762Y-52407200D01*
X68404762Y-52407200D02*
X68309524Y-52311961D01*
X68309524Y-52311961D02*
X68261905Y-52216723D01*
X68261905Y-52216723D02*
X68214286Y-52026247D01*
X68214286Y-52026247D02*
X68214286Y-51883390D01*
X68214286Y-51883390D02*
X68261905Y-51692914D01*
X68261905Y-51692914D02*
X68309524Y-51597676D01*
X68309524Y-51597676D02*
X68404762Y-51502438D01*
X68404762Y-51502438D02*
X68547619Y-51454819D01*
X68547619Y-51454819D02*
X68642857Y-51454819D01*
X68642857Y-51454819D02*
X68785714Y-51502438D01*
X68785714Y-51502438D02*
X68833333Y-51550057D01*
X69214286Y-51550057D02*
X69261905Y-51502438D01*
X69261905Y-51502438D02*
X69357143Y-51454819D01*
X69357143Y-51454819D02*
X69595238Y-51454819D01*
X69595238Y-51454819D02*
X69690476Y-51502438D01*
X69690476Y-51502438D02*
X69738095Y-51550057D01*
X69738095Y-51550057D02*
X69785714Y-51645295D01*
X69785714Y-51645295D02*
X69785714Y-51740533D01*
X69785714Y-51740533D02*
X69738095Y-51883390D01*
X69738095Y-51883390D02*
X69166667Y-52454819D01*
X69166667Y-52454819D02*
X69785714Y-52454819D01*
X101809524Y-55920057D02*
X101857143Y-55872438D01*
X101857143Y-55872438D02*
X101952381Y-55824819D01*
X101952381Y-55824819D02*
X102190476Y-55824819D01*
X102190476Y-55824819D02*
X102285714Y-55872438D01*
X102285714Y-55872438D02*
X102333333Y-55920057D01*
X102333333Y-55920057D02*
X102380952Y-56015295D01*
X102380952Y-56015295D02*
X102380952Y-56110533D01*
X102380952Y-56110533D02*
X102333333Y-56253390D01*
X102333333Y-56253390D02*
X101761905Y-56824819D01*
X101761905Y-56824819D02*
X102380952Y-56824819D01*
X102761905Y-55920057D02*
X102809524Y-55872438D01*
X102809524Y-55872438D02*
X102904762Y-55824819D01*
X102904762Y-55824819D02*
X103142857Y-55824819D01*
X103142857Y-55824819D02*
X103238095Y-55872438D01*
X103238095Y-55872438D02*
X103285714Y-55920057D01*
X103285714Y-55920057D02*
X103333333Y-56015295D01*
X103333333Y-56015295D02*
X103333333Y-56110533D01*
X103333333Y-56110533D02*
X103285714Y-56253390D01*
X103285714Y-56253390D02*
X102714286Y-56824819D01*
X102714286Y-56824819D02*
X103333333Y-56824819D01*
X103952381Y-55824819D02*
X104047619Y-55824819D01*
X104047619Y-55824819D02*
X104142857Y-55872438D01*
X104142857Y-55872438D02*
X104190476Y-55920057D01*
X104190476Y-55920057D02*
X104238095Y-56015295D01*
X104238095Y-56015295D02*
X104285714Y-56205771D01*
X104285714Y-56205771D02*
X104285714Y-56443866D01*
X104285714Y-56443866D02*
X104238095Y-56634342D01*
X104238095Y-56634342D02*
X104190476Y-56729580D01*
X104190476Y-56729580D02*
X104142857Y-56777200D01*
X104142857Y-56777200D02*
X104047619Y-56824819D01*
X104047619Y-56824819D02*
X103952381Y-56824819D01*
X103952381Y-56824819D02*
X103857143Y-56777200D01*
X103857143Y-56777200D02*
X103809524Y-56729580D01*
X103809524Y-56729580D02*
X103761905Y-56634342D01*
X103761905Y-56634342D02*
X103714286Y-56443866D01*
X103714286Y-56443866D02*
X103714286Y-56205771D01*
X103714286Y-56205771D02*
X103761905Y-56015295D01*
X103761905Y-56015295D02*
X103809524Y-55920057D01*
X103809524Y-55920057D02*
X103857143Y-55872438D01*
X103857143Y-55872438D02*
X103952381Y-55824819D01*
X105428572Y-56824819D02*
X105666667Y-56824819D01*
X105666667Y-56824819D02*
X105666667Y-56634342D01*
X105666667Y-56634342D02*
X105571429Y-56586723D01*
X105571429Y-56586723D02*
X105476191Y-56491485D01*
X105476191Y-56491485D02*
X105428572Y-56348628D01*
X105428572Y-56348628D02*
X105428572Y-56110533D01*
X105428572Y-56110533D02*
X105476191Y-55967676D01*
X105476191Y-55967676D02*
X105571429Y-55872438D01*
X105571429Y-55872438D02*
X105714286Y-55824819D01*
X105714286Y-55824819D02*
X105904762Y-55824819D01*
X105904762Y-55824819D02*
X106047619Y-55872438D01*
X106047619Y-55872438D02*
X106142857Y-55967676D01*
X106142857Y-55967676D02*
X106190476Y-56110533D01*
X106190476Y-56110533D02*
X106190476Y-56348628D01*
X106190476Y-56348628D02*
X106142857Y-56491485D01*
X106142857Y-56491485D02*
X106047619Y-56586723D01*
X106047619Y-56586723D02*
X105952381Y-56634342D01*
X105952381Y-56634342D02*
X105952381Y-56824819D01*
X105952381Y-56824819D02*
X106190476Y-56824819D01*
X103833333Y-54454819D02*
X103500000Y-53978628D01*
X103261905Y-54454819D02*
X103261905Y-53454819D01*
X103261905Y-53454819D02*
X103642857Y-53454819D01*
X103642857Y-53454819D02*
X103738095Y-53502438D01*
X103738095Y-53502438D02*
X103785714Y-53550057D01*
X103785714Y-53550057D02*
X103833333Y-53645295D01*
X103833333Y-53645295D02*
X103833333Y-53788152D01*
X103833333Y-53788152D02*
X103785714Y-53883390D01*
X103785714Y-53883390D02*
X103738095Y-53931009D01*
X103738095Y-53931009D02*
X103642857Y-53978628D01*
X103642857Y-53978628D02*
X103261905Y-53978628D01*
X104214286Y-53550057D02*
X104261905Y-53502438D01*
X104261905Y-53502438D02*
X104357143Y-53454819D01*
X104357143Y-53454819D02*
X104595238Y-53454819D01*
X104595238Y-53454819D02*
X104690476Y-53502438D01*
X104690476Y-53502438D02*
X104738095Y-53550057D01*
X104738095Y-53550057D02*
X104785714Y-53645295D01*
X104785714Y-53645295D02*
X104785714Y-53740533D01*
X104785714Y-53740533D02*
X104738095Y-53883390D01*
X104738095Y-53883390D02*
X104166667Y-54454819D01*
X104166667Y-54454819D02*
X104785714Y-54454819D01*
X67869523Y-83974819D02*
X67298095Y-83974819D01*
X67583809Y-83974819D02*
X67583809Y-82974819D01*
X67583809Y-82974819D02*
X67488571Y-83117676D01*
X67488571Y-83117676D02*
X67393333Y-83212914D01*
X67393333Y-83212914D02*
X67298095Y-83260533D01*
X68726666Y-82974819D02*
X68536190Y-82974819D01*
X68536190Y-82974819D02*
X68440952Y-83022438D01*
X68440952Y-83022438D02*
X68393333Y-83070057D01*
X68393333Y-83070057D02*
X68298095Y-83212914D01*
X68298095Y-83212914D02*
X68250476Y-83403390D01*
X68250476Y-83403390D02*
X68250476Y-83784342D01*
X68250476Y-83784342D02*
X68298095Y-83879580D01*
X68298095Y-83879580D02*
X68345714Y-83927200D01*
X68345714Y-83927200D02*
X68440952Y-83974819D01*
X68440952Y-83974819D02*
X68631428Y-83974819D01*
X68631428Y-83974819D02*
X68726666Y-83927200D01*
X68726666Y-83927200D02*
X68774285Y-83879580D01*
X68774285Y-83879580D02*
X68821904Y-83784342D01*
X68821904Y-83784342D02*
X68821904Y-83546247D01*
X68821904Y-83546247D02*
X68774285Y-83451009D01*
X68774285Y-83451009D02*
X68726666Y-83403390D01*
X68726666Y-83403390D02*
X68631428Y-83355771D01*
X68631428Y-83355771D02*
X68440952Y-83355771D01*
X68440952Y-83355771D02*
X68345714Y-83403390D01*
X68345714Y-83403390D02*
X68298095Y-83451009D01*
X68298095Y-83451009D02*
X68250476Y-83546247D01*
X69250476Y-83974819D02*
X69250476Y-82974819D01*
X69250476Y-82974819D02*
X69583809Y-83689104D01*
X69583809Y-83689104D02*
X69917142Y-82974819D01*
X69917142Y-82974819D02*
X69917142Y-83974819D01*
X70393333Y-83974819D02*
X70393333Y-82974819D01*
X70393333Y-83451009D02*
X70964761Y-83451009D01*
X70964761Y-83974819D02*
X70964761Y-82974819D01*
X71345714Y-83308152D02*
X71869523Y-83308152D01*
X71869523Y-83308152D02*
X71345714Y-83974819D01*
X71345714Y-83974819D02*
X71869523Y-83974819D01*
X69083809Y-79978628D02*
X69083809Y-80454819D01*
X68750476Y-79454819D02*
X69083809Y-79978628D01*
X69083809Y-79978628D02*
X69417142Y-79454819D01*
X70274285Y-80454819D02*
X69702857Y-80454819D01*
X69988571Y-80454819D02*
X69988571Y-79454819D01*
X69988571Y-79454819D02*
X69893333Y-79597676D01*
X69893333Y-79597676D02*
X69798095Y-79692914D01*
X69798095Y-79692914D02*
X69702857Y-79740533D01*
X114087142Y-48414819D02*
X113610952Y-48414819D01*
X113610952Y-48414819D02*
X113610952Y-47414819D01*
X114420476Y-47891009D02*
X114753809Y-47891009D01*
X114896666Y-48414819D02*
X114420476Y-48414819D01*
X114420476Y-48414819D02*
X114420476Y-47414819D01*
X114420476Y-47414819D02*
X114896666Y-47414819D01*
X115325238Y-48414819D02*
X115325238Y-47414819D01*
X115325238Y-47414819D02*
X115563333Y-47414819D01*
X115563333Y-47414819D02*
X115706190Y-47462438D01*
X115706190Y-47462438D02*
X115801428Y-47557676D01*
X115801428Y-47557676D02*
X115849047Y-47652914D01*
X115849047Y-47652914D02*
X115896666Y-47843390D01*
X115896666Y-47843390D02*
X115896666Y-47986247D01*
X115896666Y-47986247D02*
X115849047Y-48176723D01*
X115849047Y-48176723D02*
X115801428Y-48271961D01*
X115801428Y-48271961D02*
X115706190Y-48367200D01*
X115706190Y-48367200D02*
X115563333Y-48414819D01*
X115563333Y-48414819D02*
X115325238Y-48414819D01*
D11*
X111682380Y-44325760D02*
X111796666Y-44363855D01*
X111796666Y-44363855D02*
X111987142Y-44363855D01*
X111987142Y-44363855D02*
X112063333Y-44325760D01*
X112063333Y-44325760D02*
X112101428Y-44287664D01*
X112101428Y-44287664D02*
X112139523Y-44211474D01*
X112139523Y-44211474D02*
X112139523Y-44135283D01*
X112139523Y-44135283D02*
X112101428Y-44059093D01*
X112101428Y-44059093D02*
X112063333Y-44020998D01*
X112063333Y-44020998D02*
X111987142Y-43982902D01*
X111987142Y-43982902D02*
X111834761Y-43944807D01*
X111834761Y-43944807D02*
X111758571Y-43906712D01*
X111758571Y-43906712D02*
X111720476Y-43868617D01*
X111720476Y-43868617D02*
X111682380Y-43792426D01*
X111682380Y-43792426D02*
X111682380Y-43716236D01*
X111682380Y-43716236D02*
X111720476Y-43640045D01*
X111720476Y-43640045D02*
X111758571Y-43601950D01*
X111758571Y-43601950D02*
X111834761Y-43563855D01*
X111834761Y-43563855D02*
X112025238Y-43563855D01*
X112025238Y-43563855D02*
X112139523Y-43601950D01*
X112444285Y-44135283D02*
X112825238Y-44135283D01*
X112368095Y-44363855D02*
X112634762Y-43563855D01*
X112634762Y-43563855D02*
X112901428Y-44363855D01*
X113053809Y-43563855D02*
X113320476Y-44363855D01*
X113320476Y-44363855D02*
X113587142Y-43563855D01*
X113853809Y-43944807D02*
X114120475Y-43944807D01*
X114234761Y-44363855D02*
X113853809Y-44363855D01*
X113853809Y-44363855D02*
X113853809Y-43563855D01*
X113853809Y-43563855D02*
X114234761Y-43563855D01*
X114387143Y-44440045D02*
X114996666Y-44440045D01*
X115568095Y-44363855D02*
X115187143Y-44363855D01*
X115187143Y-44363855D02*
X115187143Y-43563855D01*
X115834762Y-43944807D02*
X116101428Y-43944807D01*
X116215714Y-44363855D02*
X115834762Y-44363855D01*
X115834762Y-44363855D02*
X115834762Y-43563855D01*
X115834762Y-43563855D02*
X116215714Y-43563855D01*
X116558572Y-44363855D02*
X116558572Y-43563855D01*
X116558572Y-43563855D02*
X116749048Y-43563855D01*
X116749048Y-43563855D02*
X116863334Y-43601950D01*
X116863334Y-43601950D02*
X116939524Y-43678140D01*
X116939524Y-43678140D02*
X116977619Y-43754331D01*
X116977619Y-43754331D02*
X117015715Y-43906712D01*
X117015715Y-43906712D02*
X117015715Y-44020998D01*
X117015715Y-44020998D02*
X116977619Y-44173379D01*
X116977619Y-44173379D02*
X116939524Y-44249569D01*
X116939524Y-44249569D02*
X116863334Y-44325760D01*
X116863334Y-44325760D02*
X116749048Y-44363855D01*
X116749048Y-44363855D02*
X116558572Y-44363855D01*
X117777619Y-44363855D02*
X117320476Y-44363855D01*
X117549048Y-44363855D02*
X117549048Y-43563855D01*
X117549048Y-43563855D02*
X117472857Y-43678140D01*
X117472857Y-43678140D02*
X117396667Y-43754331D01*
X117396667Y-43754331D02*
X117320476Y-43792426D01*
D10*
X47702381Y-55607200D02*
X47845238Y-55654819D01*
X47845238Y-55654819D02*
X48083333Y-55654819D01*
X48083333Y-55654819D02*
X48178571Y-55607200D01*
X48178571Y-55607200D02*
X48226190Y-55559580D01*
X48226190Y-55559580D02*
X48273809Y-55464342D01*
X48273809Y-55464342D02*
X48273809Y-55369104D01*
X48273809Y-55369104D02*
X48226190Y-55273866D01*
X48226190Y-55273866D02*
X48178571Y-55226247D01*
X48178571Y-55226247D02*
X48083333Y-55178628D01*
X48083333Y-55178628D02*
X47892857Y-55131009D01*
X47892857Y-55131009D02*
X47797619Y-55083390D01*
X47797619Y-55083390D02*
X47750000Y-55035771D01*
X47750000Y-55035771D02*
X47702381Y-54940533D01*
X47702381Y-54940533D02*
X47702381Y-54845295D01*
X47702381Y-54845295D02*
X47750000Y-54750057D01*
X47750000Y-54750057D02*
X47797619Y-54702438D01*
X47797619Y-54702438D02*
X47892857Y-54654819D01*
X47892857Y-54654819D02*
X48130952Y-54654819D01*
X48130952Y-54654819D02*
X48273809Y-54702438D01*
X48607143Y-54654819D02*
X48845238Y-55654819D01*
X48845238Y-55654819D02*
X49035714Y-54940533D01*
X49035714Y-54940533D02*
X49226190Y-55654819D01*
X49226190Y-55654819D02*
X49464286Y-54654819D01*
X49607143Y-55750057D02*
X50369047Y-55750057D01*
X50607143Y-55654819D02*
X50607143Y-54654819D01*
X50607143Y-54654819D02*
X50988095Y-54654819D01*
X50988095Y-54654819D02*
X51083333Y-54702438D01*
X51083333Y-54702438D02*
X51130952Y-54750057D01*
X51130952Y-54750057D02*
X51178571Y-54845295D01*
X51178571Y-54845295D02*
X51178571Y-54988152D01*
X51178571Y-54988152D02*
X51130952Y-55083390D01*
X51130952Y-55083390D02*
X51083333Y-55131009D01*
X51083333Y-55131009D02*
X50988095Y-55178628D01*
X50988095Y-55178628D02*
X50607143Y-55178628D01*
X52035714Y-54988152D02*
X52035714Y-55654819D01*
X51607143Y-54988152D02*
X51607143Y-55511961D01*
X51607143Y-55511961D02*
X51654762Y-55607200D01*
X51654762Y-55607200D02*
X51750000Y-55654819D01*
X51750000Y-55654819D02*
X51892857Y-55654819D01*
X51892857Y-55654819D02*
X51988095Y-55607200D01*
X51988095Y-55607200D02*
X52035714Y-55559580D01*
X52464286Y-55607200D02*
X52559524Y-55654819D01*
X52559524Y-55654819D02*
X52750000Y-55654819D01*
X52750000Y-55654819D02*
X52845238Y-55607200D01*
X52845238Y-55607200D02*
X52892857Y-55511961D01*
X52892857Y-55511961D02*
X52892857Y-55464342D01*
X52892857Y-55464342D02*
X52845238Y-55369104D01*
X52845238Y-55369104D02*
X52750000Y-55321485D01*
X52750000Y-55321485D02*
X52607143Y-55321485D01*
X52607143Y-55321485D02*
X52511905Y-55273866D01*
X52511905Y-55273866D02*
X52464286Y-55178628D01*
X52464286Y-55178628D02*
X52464286Y-55131009D01*
X52464286Y-55131009D02*
X52511905Y-55035771D01*
X52511905Y-55035771D02*
X52607143Y-54988152D01*
X52607143Y-54988152D02*
X52750000Y-54988152D01*
X52750000Y-54988152D02*
X52845238Y-55035771D01*
X53321429Y-55654819D02*
X53321429Y-54654819D01*
X53750000Y-55654819D02*
X53750000Y-55131009D01*
X53750000Y-55131009D02*
X53702381Y-55035771D01*
X53702381Y-55035771D02*
X53607143Y-54988152D01*
X53607143Y-54988152D02*
X53464286Y-54988152D01*
X53464286Y-54988152D02*
X53369048Y-55035771D01*
X53369048Y-55035771D02*
X53321429Y-55083390D01*
X48559524Y-51204819D02*
X48559524Y-50204819D01*
X48559524Y-50204819D02*
X48797619Y-50204819D01*
X48797619Y-50204819D02*
X48940476Y-50252438D01*
X48940476Y-50252438D02*
X49035714Y-50347676D01*
X49035714Y-50347676D02*
X49083333Y-50442914D01*
X49083333Y-50442914D02*
X49130952Y-50633390D01*
X49130952Y-50633390D02*
X49130952Y-50776247D01*
X49130952Y-50776247D02*
X49083333Y-50966723D01*
X49083333Y-50966723D02*
X49035714Y-51061961D01*
X49035714Y-51061961D02*
X48940476Y-51157200D01*
X48940476Y-51157200D02*
X48797619Y-51204819D01*
X48797619Y-51204819D02*
X48559524Y-51204819D01*
X49559524Y-50681009D02*
X49892857Y-50681009D01*
X50035714Y-51204819D02*
X49559524Y-51204819D01*
X49559524Y-51204819D02*
X49559524Y-50204819D01*
X49559524Y-50204819D02*
X50035714Y-50204819D01*
X51035714Y-51109580D02*
X50988095Y-51157200D01*
X50988095Y-51157200D02*
X50845238Y-51204819D01*
X50845238Y-51204819D02*
X50750000Y-51204819D01*
X50750000Y-51204819D02*
X50607143Y-51157200D01*
X50607143Y-51157200D02*
X50511905Y-51061961D01*
X50511905Y-51061961D02*
X50464286Y-50966723D01*
X50464286Y-50966723D02*
X50416667Y-50776247D01*
X50416667Y-50776247D02*
X50416667Y-50633390D01*
X50416667Y-50633390D02*
X50464286Y-50442914D01*
X50464286Y-50442914D02*
X50511905Y-50347676D01*
X50511905Y-50347676D02*
X50607143Y-50252438D01*
X50607143Y-50252438D02*
X50750000Y-50204819D01*
X50750000Y-50204819D02*
X50845238Y-50204819D01*
X50845238Y-50204819D02*
X50988095Y-50252438D01*
X50988095Y-50252438D02*
X51035714Y-50300057D01*
X51988095Y-51204819D02*
X51416667Y-51204819D01*
X51702381Y-51204819D02*
X51702381Y-50204819D01*
X51702381Y-50204819D02*
X51607143Y-50347676D01*
X51607143Y-50347676D02*
X51511905Y-50442914D01*
X51511905Y-50442914D02*
X51416667Y-50490533D01*
X101952380Y-74954819D02*
X101380952Y-74954819D01*
X101666666Y-74954819D02*
X101666666Y-73954819D01*
X101666666Y-73954819D02*
X101571428Y-74097676D01*
X101571428Y-74097676D02*
X101476190Y-74192914D01*
X101476190Y-74192914D02*
X101380952Y-74240533D01*
X102571428Y-73954819D02*
X102666666Y-73954819D01*
X102666666Y-73954819D02*
X102761904Y-74002438D01*
X102761904Y-74002438D02*
X102809523Y-74050057D01*
X102809523Y-74050057D02*
X102857142Y-74145295D01*
X102857142Y-74145295D02*
X102904761Y-74335771D01*
X102904761Y-74335771D02*
X102904761Y-74573866D01*
X102904761Y-74573866D02*
X102857142Y-74764342D01*
X102857142Y-74764342D02*
X102809523Y-74859580D01*
X102809523Y-74859580D02*
X102761904Y-74907200D01*
X102761904Y-74907200D02*
X102666666Y-74954819D01*
X102666666Y-74954819D02*
X102571428Y-74954819D01*
X102571428Y-74954819D02*
X102476190Y-74907200D01*
X102476190Y-74907200D02*
X102428571Y-74859580D01*
X102428571Y-74859580D02*
X102380952Y-74764342D01*
X102380952Y-74764342D02*
X102333333Y-74573866D01*
X102333333Y-74573866D02*
X102333333Y-74335771D01*
X102333333Y-74335771D02*
X102380952Y-74145295D01*
X102380952Y-74145295D02*
X102428571Y-74050057D01*
X102428571Y-74050057D02*
X102476190Y-74002438D01*
X102476190Y-74002438D02*
X102571428Y-73954819D01*
X103523809Y-73954819D02*
X103619047Y-73954819D01*
X103619047Y-73954819D02*
X103714285Y-74002438D01*
X103714285Y-74002438D02*
X103761904Y-74050057D01*
X103761904Y-74050057D02*
X103809523Y-74145295D01*
X103809523Y-74145295D02*
X103857142Y-74335771D01*
X103857142Y-74335771D02*
X103857142Y-74573866D01*
X103857142Y-74573866D02*
X103809523Y-74764342D01*
X103809523Y-74764342D02*
X103761904Y-74859580D01*
X103761904Y-74859580D02*
X103714285Y-74907200D01*
X103714285Y-74907200D02*
X103619047Y-74954819D01*
X103619047Y-74954819D02*
X103523809Y-74954819D01*
X103523809Y-74954819D02*
X103428571Y-74907200D01*
X103428571Y-74907200D02*
X103380952Y-74859580D01*
X103380952Y-74859580D02*
X103333333Y-74764342D01*
X103333333Y-74764342D02*
X103285714Y-74573866D01*
X103285714Y-74573866D02*
X103285714Y-74335771D01*
X103285714Y-74335771D02*
X103333333Y-74145295D01*
X103333333Y-74145295D02*
X103380952Y-74050057D01*
X103380952Y-74050057D02*
X103428571Y-74002438D01*
X103428571Y-74002438D02*
X103523809Y-73954819D01*
X104285714Y-74288152D02*
X104285714Y-74954819D01*
X104285714Y-74383390D02*
X104333333Y-74335771D01*
X104333333Y-74335771D02*
X104428571Y-74288152D01*
X104428571Y-74288152D02*
X104571428Y-74288152D01*
X104571428Y-74288152D02*
X104666666Y-74335771D01*
X104666666Y-74335771D02*
X104714285Y-74431009D01*
X104714285Y-74431009D02*
X104714285Y-74954819D01*
X105523809Y-74431009D02*
X105190476Y-74431009D01*
X105190476Y-74954819D02*
X105190476Y-73954819D01*
X105190476Y-73954819D02*
X105666666Y-73954819D01*
X103333333Y-72359580D02*
X103285714Y-72407200D01*
X103285714Y-72407200D02*
X103142857Y-72454819D01*
X103142857Y-72454819D02*
X103047619Y-72454819D01*
X103047619Y-72454819D02*
X102904762Y-72407200D01*
X102904762Y-72407200D02*
X102809524Y-72311961D01*
X102809524Y-72311961D02*
X102761905Y-72216723D01*
X102761905Y-72216723D02*
X102714286Y-72026247D01*
X102714286Y-72026247D02*
X102714286Y-71883390D01*
X102714286Y-71883390D02*
X102761905Y-71692914D01*
X102761905Y-71692914D02*
X102809524Y-71597676D01*
X102809524Y-71597676D02*
X102904762Y-71502438D01*
X102904762Y-71502438D02*
X103047619Y-71454819D01*
X103047619Y-71454819D02*
X103142857Y-71454819D01*
X103142857Y-71454819D02*
X103285714Y-71502438D01*
X103285714Y-71502438D02*
X103333333Y-71550057D01*
X104285714Y-72454819D02*
X103714286Y-72454819D01*
X104000000Y-72454819D02*
X104000000Y-71454819D01*
X104000000Y-71454819D02*
X103904762Y-71597676D01*
X103904762Y-71597676D02*
X103809524Y-71692914D01*
X103809524Y-71692914D02*
X103714286Y-71740533D01*
X115468095Y-80414819D02*
X115468095Y-79414819D01*
X115468095Y-79414819D02*
X115706190Y-79414819D01*
X115706190Y-79414819D02*
X115849047Y-79462438D01*
X115849047Y-79462438D02*
X115944285Y-79557676D01*
X115944285Y-79557676D02*
X115991904Y-79652914D01*
X115991904Y-79652914D02*
X116039523Y-79843390D01*
X116039523Y-79843390D02*
X116039523Y-79986247D01*
X116039523Y-79986247D02*
X115991904Y-80176723D01*
X115991904Y-80176723D02*
X115944285Y-80271961D01*
X115944285Y-80271961D02*
X115849047Y-80367200D01*
X115849047Y-80367200D02*
X115706190Y-80414819D01*
X115706190Y-80414819D02*
X115468095Y-80414819D01*
D11*
X115139524Y-76363855D02*
X115139524Y-75563855D01*
X115139524Y-75563855D02*
X115330000Y-75563855D01*
X115330000Y-75563855D02*
X115444286Y-75601950D01*
X115444286Y-75601950D02*
X115520476Y-75678140D01*
X115520476Y-75678140D02*
X115558571Y-75754331D01*
X115558571Y-75754331D02*
X115596667Y-75906712D01*
X115596667Y-75906712D02*
X115596667Y-76020998D01*
X115596667Y-76020998D02*
X115558571Y-76173379D01*
X115558571Y-76173379D02*
X115520476Y-76249569D01*
X115520476Y-76249569D02*
X115444286Y-76325760D01*
X115444286Y-76325760D02*
X115330000Y-76363855D01*
X115330000Y-76363855D02*
X115139524Y-76363855D01*
X116358571Y-76363855D02*
X115901428Y-76363855D01*
X116130000Y-76363855D02*
X116130000Y-75563855D01*
X116130000Y-75563855D02*
X116053809Y-75678140D01*
X116053809Y-75678140D02*
X115977619Y-75754331D01*
X115977619Y-75754331D02*
X115901428Y-75792426D01*
D10*
X67857142Y-61954819D02*
X67285714Y-61954819D01*
X67571428Y-61954819D02*
X67571428Y-60954819D01*
X67571428Y-60954819D02*
X67476190Y-61097676D01*
X67476190Y-61097676D02*
X67380952Y-61192914D01*
X67380952Y-61192914D02*
X67285714Y-61240533D01*
X68476190Y-60954819D02*
X68571428Y-60954819D01*
X68571428Y-60954819D02*
X68666666Y-61002438D01*
X68666666Y-61002438D02*
X68714285Y-61050057D01*
X68714285Y-61050057D02*
X68761904Y-61145295D01*
X68761904Y-61145295D02*
X68809523Y-61335771D01*
X68809523Y-61335771D02*
X68809523Y-61573866D01*
X68809523Y-61573866D02*
X68761904Y-61764342D01*
X68761904Y-61764342D02*
X68714285Y-61859580D01*
X68714285Y-61859580D02*
X68666666Y-61907200D01*
X68666666Y-61907200D02*
X68571428Y-61954819D01*
X68571428Y-61954819D02*
X68476190Y-61954819D01*
X68476190Y-61954819D02*
X68380952Y-61907200D01*
X68380952Y-61907200D02*
X68333333Y-61859580D01*
X68333333Y-61859580D02*
X68285714Y-61764342D01*
X68285714Y-61764342D02*
X68238095Y-61573866D01*
X68238095Y-61573866D02*
X68238095Y-61335771D01*
X68238095Y-61335771D02*
X68285714Y-61145295D01*
X68285714Y-61145295D02*
X68333333Y-61050057D01*
X68333333Y-61050057D02*
X68380952Y-61002438D01*
X68380952Y-61002438D02*
X68476190Y-60954819D01*
X69238095Y-61288152D02*
X69238095Y-62288152D01*
X69714285Y-61811961D02*
X69761904Y-61907200D01*
X69761904Y-61907200D02*
X69857142Y-61954819D01*
X69238095Y-61811961D02*
X69285714Y-61907200D01*
X69285714Y-61907200D02*
X69380952Y-61954819D01*
X69380952Y-61954819D02*
X69571428Y-61954819D01*
X69571428Y-61954819D02*
X69666666Y-61907200D01*
X69666666Y-61907200D02*
X69714285Y-61811961D01*
X69714285Y-61811961D02*
X69714285Y-61288152D01*
X70619047Y-61431009D02*
X70285714Y-61431009D01*
X70285714Y-61954819D02*
X70285714Y-60954819D01*
X70285714Y-60954819D02*
X70761904Y-60954819D01*
X68833333Y-59359580D02*
X68785714Y-59407200D01*
X68785714Y-59407200D02*
X68642857Y-59454819D01*
X68642857Y-59454819D02*
X68547619Y-59454819D01*
X68547619Y-59454819D02*
X68404762Y-59407200D01*
X68404762Y-59407200D02*
X68309524Y-59311961D01*
X68309524Y-59311961D02*
X68261905Y-59216723D01*
X68261905Y-59216723D02*
X68214286Y-59026247D01*
X68214286Y-59026247D02*
X68214286Y-58883390D01*
X68214286Y-58883390D02*
X68261905Y-58692914D01*
X68261905Y-58692914D02*
X68309524Y-58597676D01*
X68309524Y-58597676D02*
X68404762Y-58502438D01*
X68404762Y-58502438D02*
X68547619Y-58454819D01*
X68547619Y-58454819D02*
X68642857Y-58454819D01*
X68642857Y-58454819D02*
X68785714Y-58502438D01*
X68785714Y-58502438D02*
X68833333Y-58550057D01*
X69738095Y-58454819D02*
X69261905Y-58454819D01*
X69261905Y-58454819D02*
X69214286Y-58931009D01*
X69214286Y-58931009D02*
X69261905Y-58883390D01*
X69261905Y-58883390D02*
X69357143Y-58835771D01*
X69357143Y-58835771D02*
X69595238Y-58835771D01*
X69595238Y-58835771D02*
X69690476Y-58883390D01*
X69690476Y-58883390D02*
X69738095Y-58931009D01*
X69738095Y-58931009D02*
X69785714Y-59026247D01*
X69785714Y-59026247D02*
X69785714Y-59264342D01*
X69785714Y-59264342D02*
X69738095Y-59359580D01*
X69738095Y-59359580D02*
X69690476Y-59407200D01*
X69690476Y-59407200D02*
X69595238Y-59454819D01*
X69595238Y-59454819D02*
X69357143Y-59454819D01*
X69357143Y-59454819D02*
X69261905Y-59407200D01*
X69261905Y-59407200D02*
X69214286Y-59359580D01*
X103785714Y-65824819D02*
X103214286Y-65824819D01*
X103500000Y-65824819D02*
X103500000Y-64824819D01*
X103500000Y-64824819D02*
X103404762Y-64967676D01*
X103404762Y-64967676D02*
X103309524Y-65062914D01*
X103309524Y-65062914D02*
X103214286Y-65110533D01*
X104214286Y-65824819D02*
X104214286Y-64824819D01*
X104785714Y-65824819D02*
X104357143Y-65253390D01*
X104785714Y-64824819D02*
X104214286Y-65396247D01*
X103833333Y-63454819D02*
X103500000Y-62978628D01*
X103261905Y-63454819D02*
X103261905Y-62454819D01*
X103261905Y-62454819D02*
X103642857Y-62454819D01*
X103642857Y-62454819D02*
X103738095Y-62502438D01*
X103738095Y-62502438D02*
X103785714Y-62550057D01*
X103785714Y-62550057D02*
X103833333Y-62645295D01*
X103833333Y-62645295D02*
X103833333Y-62788152D01*
X103833333Y-62788152D02*
X103785714Y-62883390D01*
X103785714Y-62883390D02*
X103738095Y-62931009D01*
X103738095Y-62931009D02*
X103642857Y-62978628D01*
X103642857Y-62978628D02*
X103261905Y-62978628D01*
X104690476Y-62788152D02*
X104690476Y-63454819D01*
X104452381Y-62407200D02*
X104214286Y-63121485D01*
X104214286Y-63121485D02*
X104833333Y-63121485D01*
X110599580Y-100738095D02*
X110647200Y-100785714D01*
X110647200Y-100785714D02*
X110694819Y-100928571D01*
X110694819Y-100928571D02*
X110694819Y-101023809D01*
X110694819Y-101023809D02*
X110647200Y-101166666D01*
X110647200Y-101166666D02*
X110551961Y-101261904D01*
X110551961Y-101261904D02*
X110456723Y-101309523D01*
X110456723Y-101309523D02*
X110266247Y-101357142D01*
X110266247Y-101357142D02*
X110123390Y-101357142D01*
X110123390Y-101357142D02*
X109932914Y-101309523D01*
X109932914Y-101309523D02*
X109837676Y-101261904D01*
X109837676Y-101261904D02*
X109742438Y-101166666D01*
X109742438Y-101166666D02*
X109694819Y-101023809D01*
X109694819Y-101023809D02*
X109694819Y-100928571D01*
X109694819Y-100928571D02*
X109742438Y-100785714D01*
X109742438Y-100785714D02*
X109790057Y-100738095D01*
X110694819Y-100166666D02*
X110647200Y-100261904D01*
X110647200Y-100261904D02*
X110599580Y-100309523D01*
X110599580Y-100309523D02*
X110504342Y-100357142D01*
X110504342Y-100357142D02*
X110218628Y-100357142D01*
X110218628Y-100357142D02*
X110123390Y-100309523D01*
X110123390Y-100309523D02*
X110075771Y-100261904D01*
X110075771Y-100261904D02*
X110028152Y-100166666D01*
X110028152Y-100166666D02*
X110028152Y-100023809D01*
X110028152Y-100023809D02*
X110075771Y-99928571D01*
X110075771Y-99928571D02*
X110123390Y-99880952D01*
X110123390Y-99880952D02*
X110218628Y-99833333D01*
X110218628Y-99833333D02*
X110504342Y-99833333D01*
X110504342Y-99833333D02*
X110599580Y-99880952D01*
X110599580Y-99880952D02*
X110647200Y-99928571D01*
X110647200Y-99928571D02*
X110694819Y-100023809D01*
X110694819Y-100023809D02*
X110694819Y-100166666D01*
X110028152Y-99404761D02*
X110694819Y-99404761D01*
X110123390Y-99404761D02*
X110075771Y-99357142D01*
X110075771Y-99357142D02*
X110028152Y-99261904D01*
X110028152Y-99261904D02*
X110028152Y-99119047D01*
X110028152Y-99119047D02*
X110075771Y-99023809D01*
X110075771Y-99023809D02*
X110171009Y-98976190D01*
X110171009Y-98976190D02*
X110694819Y-98976190D01*
X110028152Y-98499999D02*
X110694819Y-98499999D01*
X110123390Y-98499999D02*
X110075771Y-98452380D01*
X110075771Y-98452380D02*
X110028152Y-98357142D01*
X110028152Y-98357142D02*
X110028152Y-98214285D01*
X110028152Y-98214285D02*
X110075771Y-98119047D01*
X110075771Y-98119047D02*
X110171009Y-98071428D01*
X110171009Y-98071428D02*
X110694819Y-98071428D01*
X110790057Y-97833333D02*
X110790057Y-97071428D01*
X109694819Y-96642856D02*
X109694819Y-96547618D01*
X109694819Y-96547618D02*
X109742438Y-96452380D01*
X109742438Y-96452380D02*
X109790057Y-96404761D01*
X109790057Y-96404761D02*
X109885295Y-96357142D01*
X109885295Y-96357142D02*
X110075771Y-96309523D01*
X110075771Y-96309523D02*
X110313866Y-96309523D01*
X110313866Y-96309523D02*
X110504342Y-96357142D01*
X110504342Y-96357142D02*
X110599580Y-96404761D01*
X110599580Y-96404761D02*
X110647200Y-96452380D01*
X110647200Y-96452380D02*
X110694819Y-96547618D01*
X110694819Y-96547618D02*
X110694819Y-96642856D01*
X110694819Y-96642856D02*
X110647200Y-96738094D01*
X110647200Y-96738094D02*
X110599580Y-96785713D01*
X110599580Y-96785713D02*
X110504342Y-96833332D01*
X110504342Y-96833332D02*
X110313866Y-96880951D01*
X110313866Y-96880951D02*
X110075771Y-96880951D01*
X110075771Y-96880951D02*
X109885295Y-96833332D01*
X109885295Y-96833332D02*
X109790057Y-96785713D01*
X109790057Y-96785713D02*
X109742438Y-96738094D01*
X109742438Y-96738094D02*
X109694819Y-96642856D01*
X110694819Y-95357142D02*
X110694819Y-95928570D01*
X110694819Y-95642856D02*
X109694819Y-95642856D01*
X109694819Y-95642856D02*
X109837676Y-95738094D01*
X109837676Y-95738094D02*
X109932914Y-95833332D01*
X109932914Y-95833332D02*
X109980533Y-95928570D01*
X110694819Y-95023808D02*
X110028152Y-94499999D01*
X110028152Y-95023808D02*
X110694819Y-94499999D01*
X110694819Y-93595237D02*
X110694819Y-94166665D01*
X110694819Y-93880951D02*
X109694819Y-93880951D01*
X109694819Y-93880951D02*
X109837676Y-93976189D01*
X109837676Y-93976189D02*
X109932914Y-94071427D01*
X109932914Y-94071427D02*
X109980533Y-94166665D01*
X109694819Y-92738094D02*
X109694819Y-92928570D01*
X109694819Y-92928570D02*
X109742438Y-93023808D01*
X109742438Y-93023808D02*
X109790057Y-93071427D01*
X109790057Y-93071427D02*
X109932914Y-93166665D01*
X109932914Y-93166665D02*
X110123390Y-93214284D01*
X110123390Y-93214284D02*
X110504342Y-93214284D01*
X110504342Y-93214284D02*
X110599580Y-93166665D01*
X110599580Y-93166665D02*
X110647200Y-93119046D01*
X110647200Y-93119046D02*
X110694819Y-93023808D01*
X110694819Y-93023808D02*
X110694819Y-92833332D01*
X110694819Y-92833332D02*
X110647200Y-92738094D01*
X110647200Y-92738094D02*
X110599580Y-92690475D01*
X110599580Y-92690475D02*
X110504342Y-92642856D01*
X110504342Y-92642856D02*
X110266247Y-92642856D01*
X110266247Y-92642856D02*
X110171009Y-92690475D01*
X110171009Y-92690475D02*
X110123390Y-92738094D01*
X110123390Y-92738094D02*
X110075771Y-92833332D01*
X110075771Y-92833332D02*
X110075771Y-93023808D01*
X110075771Y-93023808D02*
X110123390Y-93119046D01*
X110123390Y-93119046D02*
X110171009Y-93166665D01*
X110171009Y-93166665D02*
X110266247Y-93214284D01*
X88476666Y-96454819D02*
X88476666Y-97169104D01*
X88476666Y-97169104D02*
X88429047Y-97311961D01*
X88429047Y-97311961D02*
X88333809Y-97407200D01*
X88333809Y-97407200D02*
X88190952Y-97454819D01*
X88190952Y-97454819D02*
X88095714Y-97454819D01*
X89476666Y-97454819D02*
X88905238Y-97454819D01*
X89190952Y-97454819D02*
X89190952Y-96454819D01*
X89190952Y-96454819D02*
X89095714Y-96597676D01*
X89095714Y-96597676D02*
X89000476Y-96692914D01*
X89000476Y-96692914D02*
X88905238Y-96740533D01*
X47702381Y-44607200D02*
X47845238Y-44654819D01*
X47845238Y-44654819D02*
X48083333Y-44654819D01*
X48083333Y-44654819D02*
X48178571Y-44607200D01*
X48178571Y-44607200D02*
X48226190Y-44559580D01*
X48226190Y-44559580D02*
X48273809Y-44464342D01*
X48273809Y-44464342D02*
X48273809Y-44369104D01*
X48273809Y-44369104D02*
X48226190Y-44273866D01*
X48226190Y-44273866D02*
X48178571Y-44226247D01*
X48178571Y-44226247D02*
X48083333Y-44178628D01*
X48083333Y-44178628D02*
X47892857Y-44131009D01*
X47892857Y-44131009D02*
X47797619Y-44083390D01*
X47797619Y-44083390D02*
X47750000Y-44035771D01*
X47750000Y-44035771D02*
X47702381Y-43940533D01*
X47702381Y-43940533D02*
X47702381Y-43845295D01*
X47702381Y-43845295D02*
X47750000Y-43750057D01*
X47750000Y-43750057D02*
X47797619Y-43702438D01*
X47797619Y-43702438D02*
X47892857Y-43654819D01*
X47892857Y-43654819D02*
X48130952Y-43654819D01*
X48130952Y-43654819D02*
X48273809Y-43702438D01*
X48607143Y-43654819D02*
X48845238Y-44654819D01*
X48845238Y-44654819D02*
X49035714Y-43940533D01*
X49035714Y-43940533D02*
X49226190Y-44654819D01*
X49226190Y-44654819D02*
X49464286Y-43654819D01*
X49607143Y-44750057D02*
X50369047Y-44750057D01*
X50607143Y-44654819D02*
X50607143Y-43654819D01*
X50607143Y-43654819D02*
X50988095Y-43654819D01*
X50988095Y-43654819D02*
X51083333Y-43702438D01*
X51083333Y-43702438D02*
X51130952Y-43750057D01*
X51130952Y-43750057D02*
X51178571Y-43845295D01*
X51178571Y-43845295D02*
X51178571Y-43988152D01*
X51178571Y-43988152D02*
X51130952Y-44083390D01*
X51130952Y-44083390D02*
X51083333Y-44131009D01*
X51083333Y-44131009D02*
X50988095Y-44178628D01*
X50988095Y-44178628D02*
X50607143Y-44178628D01*
X52035714Y-43988152D02*
X52035714Y-44654819D01*
X51607143Y-43988152D02*
X51607143Y-44511961D01*
X51607143Y-44511961D02*
X51654762Y-44607200D01*
X51654762Y-44607200D02*
X51750000Y-44654819D01*
X51750000Y-44654819D02*
X51892857Y-44654819D01*
X51892857Y-44654819D02*
X51988095Y-44607200D01*
X51988095Y-44607200D02*
X52035714Y-44559580D01*
X52464286Y-44607200D02*
X52559524Y-44654819D01*
X52559524Y-44654819D02*
X52750000Y-44654819D01*
X52750000Y-44654819D02*
X52845238Y-44607200D01*
X52845238Y-44607200D02*
X52892857Y-44511961D01*
X52892857Y-44511961D02*
X52892857Y-44464342D01*
X52892857Y-44464342D02*
X52845238Y-44369104D01*
X52845238Y-44369104D02*
X52750000Y-44321485D01*
X52750000Y-44321485D02*
X52607143Y-44321485D01*
X52607143Y-44321485D02*
X52511905Y-44273866D01*
X52511905Y-44273866D02*
X52464286Y-44178628D01*
X52464286Y-44178628D02*
X52464286Y-44131009D01*
X52464286Y-44131009D02*
X52511905Y-44035771D01*
X52511905Y-44035771D02*
X52607143Y-43988152D01*
X52607143Y-43988152D02*
X52750000Y-43988152D01*
X52750000Y-43988152D02*
X52845238Y-44035771D01*
X53321429Y-44654819D02*
X53321429Y-43654819D01*
X53750000Y-44654819D02*
X53750000Y-44131009D01*
X53750000Y-44131009D02*
X53702381Y-44035771D01*
X53702381Y-44035771D02*
X53607143Y-43988152D01*
X53607143Y-43988152D02*
X53464286Y-43988152D01*
X53464286Y-43988152D02*
X53369048Y-44035771D01*
X53369048Y-44035771D02*
X53321429Y-44083390D01*
X48750000Y-40204819D02*
X48750000Y-39204819D01*
X49226190Y-40204819D02*
X49226190Y-39204819D01*
X49226190Y-39204819D02*
X49797618Y-40204819D01*
X49797618Y-40204819D02*
X49797618Y-39204819D01*
X50845237Y-40109580D02*
X50797618Y-40157200D01*
X50797618Y-40157200D02*
X50654761Y-40204819D01*
X50654761Y-40204819D02*
X50559523Y-40204819D01*
X50559523Y-40204819D02*
X50416666Y-40157200D01*
X50416666Y-40157200D02*
X50321428Y-40061961D01*
X50321428Y-40061961D02*
X50273809Y-39966723D01*
X50273809Y-39966723D02*
X50226190Y-39776247D01*
X50226190Y-39776247D02*
X50226190Y-39633390D01*
X50226190Y-39633390D02*
X50273809Y-39442914D01*
X50273809Y-39442914D02*
X50321428Y-39347676D01*
X50321428Y-39347676D02*
X50416666Y-39252438D01*
X50416666Y-39252438D02*
X50559523Y-39204819D01*
X50559523Y-39204819D02*
X50654761Y-39204819D01*
X50654761Y-39204819D02*
X50797618Y-39252438D01*
X50797618Y-39252438D02*
X50845237Y-39300057D01*
X51797618Y-40204819D02*
X51226190Y-40204819D01*
X51511904Y-40204819D02*
X51511904Y-39204819D01*
X51511904Y-39204819D02*
X51416666Y-39347676D01*
X51416666Y-39347676D02*
X51321428Y-39442914D01*
X51321428Y-39442914D02*
X51226190Y-39490533D01*
X103944761Y-93124819D02*
X103373333Y-93124819D01*
X103659047Y-93124819D02*
X103659047Y-92124819D01*
X103659047Y-92124819D02*
X103563809Y-92267676D01*
X103563809Y-92267676D02*
X103468571Y-92362914D01*
X103468571Y-92362914D02*
X103373333Y-92410533D01*
X104563809Y-92124819D02*
X104659047Y-92124819D01*
X104659047Y-92124819D02*
X104754285Y-92172438D01*
X104754285Y-92172438D02*
X104801904Y-92220057D01*
X104801904Y-92220057D02*
X104849523Y-92315295D01*
X104849523Y-92315295D02*
X104897142Y-92505771D01*
X104897142Y-92505771D02*
X104897142Y-92743866D01*
X104897142Y-92743866D02*
X104849523Y-92934342D01*
X104849523Y-92934342D02*
X104801904Y-93029580D01*
X104801904Y-93029580D02*
X104754285Y-93077200D01*
X104754285Y-93077200D02*
X104659047Y-93124819D01*
X104659047Y-93124819D02*
X104563809Y-93124819D01*
X104563809Y-93124819D02*
X104468571Y-93077200D01*
X104468571Y-93077200D02*
X104420952Y-93029580D01*
X104420952Y-93029580D02*
X104373333Y-92934342D01*
X104373333Y-92934342D02*
X104325714Y-92743866D01*
X104325714Y-92743866D02*
X104325714Y-92505771D01*
X104325714Y-92505771D02*
X104373333Y-92315295D01*
X104373333Y-92315295D02*
X104420952Y-92220057D01*
X104420952Y-92220057D02*
X104468571Y-92172438D01*
X104468571Y-92172438D02*
X104563809Y-92124819D01*
X105325714Y-93124819D02*
X105325714Y-92124819D01*
X105420952Y-92743866D02*
X105706666Y-93124819D01*
X105706666Y-92458152D02*
X105325714Y-92839104D01*
X103309761Y-89459819D02*
X102976428Y-88983628D01*
X102738333Y-89459819D02*
X102738333Y-88459819D01*
X102738333Y-88459819D02*
X103119285Y-88459819D01*
X103119285Y-88459819D02*
X103214523Y-88507438D01*
X103214523Y-88507438D02*
X103262142Y-88555057D01*
X103262142Y-88555057D02*
X103309761Y-88650295D01*
X103309761Y-88650295D02*
X103309761Y-88793152D01*
X103309761Y-88793152D02*
X103262142Y-88888390D01*
X103262142Y-88888390D02*
X103214523Y-88936009D01*
X103214523Y-88936009D02*
X103119285Y-88983628D01*
X103119285Y-88983628D02*
X102738333Y-88983628D01*
X103595476Y-88459819D02*
X103928809Y-89459819D01*
X103928809Y-89459819D02*
X104262142Y-88459819D01*
X105119285Y-89459819D02*
X104547857Y-89459819D01*
X104833571Y-89459819D02*
X104833571Y-88459819D01*
X104833571Y-88459819D02*
X104738333Y-88602676D01*
X104738333Y-88602676D02*
X104643095Y-88697914D01*
X104643095Y-88697914D02*
X104547857Y-88745533D01*
X67452380Y-68954819D02*
X66880952Y-68954819D01*
X67166666Y-68954819D02*
X67166666Y-67954819D01*
X67166666Y-67954819D02*
X67071428Y-68097676D01*
X67071428Y-68097676D02*
X66976190Y-68192914D01*
X66976190Y-68192914D02*
X66880952Y-68240533D01*
X68071428Y-67954819D02*
X68166666Y-67954819D01*
X68166666Y-67954819D02*
X68261904Y-68002438D01*
X68261904Y-68002438D02*
X68309523Y-68050057D01*
X68309523Y-68050057D02*
X68357142Y-68145295D01*
X68357142Y-68145295D02*
X68404761Y-68335771D01*
X68404761Y-68335771D02*
X68404761Y-68573866D01*
X68404761Y-68573866D02*
X68357142Y-68764342D01*
X68357142Y-68764342D02*
X68309523Y-68859580D01*
X68309523Y-68859580D02*
X68261904Y-68907200D01*
X68261904Y-68907200D02*
X68166666Y-68954819D01*
X68166666Y-68954819D02*
X68071428Y-68954819D01*
X68071428Y-68954819D02*
X67976190Y-68907200D01*
X67976190Y-68907200D02*
X67928571Y-68859580D01*
X67928571Y-68859580D02*
X67880952Y-68764342D01*
X67880952Y-68764342D02*
X67833333Y-68573866D01*
X67833333Y-68573866D02*
X67833333Y-68335771D01*
X67833333Y-68335771D02*
X67880952Y-68145295D01*
X67880952Y-68145295D02*
X67928571Y-68050057D01*
X67928571Y-68050057D02*
X67976190Y-68002438D01*
X67976190Y-68002438D02*
X68071428Y-67954819D01*
X69023809Y-67954819D02*
X69119047Y-67954819D01*
X69119047Y-67954819D02*
X69214285Y-68002438D01*
X69214285Y-68002438D02*
X69261904Y-68050057D01*
X69261904Y-68050057D02*
X69309523Y-68145295D01*
X69309523Y-68145295D02*
X69357142Y-68335771D01*
X69357142Y-68335771D02*
X69357142Y-68573866D01*
X69357142Y-68573866D02*
X69309523Y-68764342D01*
X69309523Y-68764342D02*
X69261904Y-68859580D01*
X69261904Y-68859580D02*
X69214285Y-68907200D01*
X69214285Y-68907200D02*
X69119047Y-68954819D01*
X69119047Y-68954819D02*
X69023809Y-68954819D01*
X69023809Y-68954819D02*
X68928571Y-68907200D01*
X68928571Y-68907200D02*
X68880952Y-68859580D01*
X68880952Y-68859580D02*
X68833333Y-68764342D01*
X68833333Y-68764342D02*
X68785714Y-68573866D01*
X68785714Y-68573866D02*
X68785714Y-68335771D01*
X68785714Y-68335771D02*
X68833333Y-68145295D01*
X68833333Y-68145295D02*
X68880952Y-68050057D01*
X68880952Y-68050057D02*
X68928571Y-68002438D01*
X68928571Y-68002438D02*
X69023809Y-67954819D01*
X69785714Y-68288152D02*
X69785714Y-68954819D01*
X69785714Y-68383390D02*
X69833333Y-68335771D01*
X69833333Y-68335771D02*
X69928571Y-68288152D01*
X69928571Y-68288152D02*
X70071428Y-68288152D01*
X70071428Y-68288152D02*
X70166666Y-68335771D01*
X70166666Y-68335771D02*
X70214285Y-68431009D01*
X70214285Y-68431009D02*
X70214285Y-68954819D01*
X71023809Y-68431009D02*
X70690476Y-68431009D01*
X70690476Y-68954819D02*
X70690476Y-67954819D01*
X70690476Y-67954819D02*
X71166666Y-67954819D01*
X68833333Y-66359580D02*
X68785714Y-66407200D01*
X68785714Y-66407200D02*
X68642857Y-66454819D01*
X68642857Y-66454819D02*
X68547619Y-66454819D01*
X68547619Y-66454819D02*
X68404762Y-66407200D01*
X68404762Y-66407200D02*
X68309524Y-66311961D01*
X68309524Y-66311961D02*
X68261905Y-66216723D01*
X68261905Y-66216723D02*
X68214286Y-66026247D01*
X68214286Y-66026247D02*
X68214286Y-65883390D01*
X68214286Y-65883390D02*
X68261905Y-65692914D01*
X68261905Y-65692914D02*
X68309524Y-65597676D01*
X68309524Y-65597676D02*
X68404762Y-65502438D01*
X68404762Y-65502438D02*
X68547619Y-65454819D01*
X68547619Y-65454819D02*
X68642857Y-65454819D01*
X68642857Y-65454819D02*
X68785714Y-65502438D01*
X68785714Y-65502438D02*
X68833333Y-65550057D01*
X69690476Y-65454819D02*
X69500000Y-65454819D01*
X69500000Y-65454819D02*
X69404762Y-65502438D01*
X69404762Y-65502438D02*
X69357143Y-65550057D01*
X69357143Y-65550057D02*
X69261905Y-65692914D01*
X69261905Y-65692914D02*
X69214286Y-65883390D01*
X69214286Y-65883390D02*
X69214286Y-66264342D01*
X69214286Y-66264342D02*
X69261905Y-66359580D01*
X69261905Y-66359580D02*
X69309524Y-66407200D01*
X69309524Y-66407200D02*
X69404762Y-66454819D01*
X69404762Y-66454819D02*
X69595238Y-66454819D01*
X69595238Y-66454819D02*
X69690476Y-66407200D01*
X69690476Y-66407200D02*
X69738095Y-66359580D01*
X69738095Y-66359580D02*
X69785714Y-66264342D01*
X69785714Y-66264342D02*
X69785714Y-66026247D01*
X69785714Y-66026247D02*
X69738095Y-65931009D01*
X69738095Y-65931009D02*
X69690476Y-65883390D01*
X69690476Y-65883390D02*
X69595238Y-65835771D01*
X69595238Y-65835771D02*
X69404762Y-65835771D01*
X69404762Y-65835771D02*
X69309524Y-65883390D01*
X69309524Y-65883390D02*
X69261905Y-65931009D01*
X69261905Y-65931009D02*
X69214286Y-66026247D01*
X101809524Y-45920057D02*
X101857143Y-45872438D01*
X101857143Y-45872438D02*
X101952381Y-45824819D01*
X101952381Y-45824819D02*
X102190476Y-45824819D01*
X102190476Y-45824819D02*
X102285714Y-45872438D01*
X102285714Y-45872438D02*
X102333333Y-45920057D01*
X102333333Y-45920057D02*
X102380952Y-46015295D01*
X102380952Y-46015295D02*
X102380952Y-46110533D01*
X102380952Y-46110533D02*
X102333333Y-46253390D01*
X102333333Y-46253390D02*
X101761905Y-46824819D01*
X101761905Y-46824819D02*
X102380952Y-46824819D01*
X102761905Y-45920057D02*
X102809524Y-45872438D01*
X102809524Y-45872438D02*
X102904762Y-45824819D01*
X102904762Y-45824819D02*
X103142857Y-45824819D01*
X103142857Y-45824819D02*
X103238095Y-45872438D01*
X103238095Y-45872438D02*
X103285714Y-45920057D01*
X103285714Y-45920057D02*
X103333333Y-46015295D01*
X103333333Y-46015295D02*
X103333333Y-46110533D01*
X103333333Y-46110533D02*
X103285714Y-46253390D01*
X103285714Y-46253390D02*
X102714286Y-46824819D01*
X102714286Y-46824819D02*
X103333333Y-46824819D01*
X103952381Y-45824819D02*
X104047619Y-45824819D01*
X104047619Y-45824819D02*
X104142857Y-45872438D01*
X104142857Y-45872438D02*
X104190476Y-45920057D01*
X104190476Y-45920057D02*
X104238095Y-46015295D01*
X104238095Y-46015295D02*
X104285714Y-46205771D01*
X104285714Y-46205771D02*
X104285714Y-46443866D01*
X104285714Y-46443866D02*
X104238095Y-46634342D01*
X104238095Y-46634342D02*
X104190476Y-46729580D01*
X104190476Y-46729580D02*
X104142857Y-46777200D01*
X104142857Y-46777200D02*
X104047619Y-46824819D01*
X104047619Y-46824819D02*
X103952381Y-46824819D01*
X103952381Y-46824819D02*
X103857143Y-46777200D01*
X103857143Y-46777200D02*
X103809524Y-46729580D01*
X103809524Y-46729580D02*
X103761905Y-46634342D01*
X103761905Y-46634342D02*
X103714286Y-46443866D01*
X103714286Y-46443866D02*
X103714286Y-46205771D01*
X103714286Y-46205771D02*
X103761905Y-46015295D01*
X103761905Y-46015295D02*
X103809524Y-45920057D01*
X103809524Y-45920057D02*
X103857143Y-45872438D01*
X103857143Y-45872438D02*
X103952381Y-45824819D01*
X105428572Y-46824819D02*
X105666667Y-46824819D01*
X105666667Y-46824819D02*
X105666667Y-46634342D01*
X105666667Y-46634342D02*
X105571429Y-46586723D01*
X105571429Y-46586723D02*
X105476191Y-46491485D01*
X105476191Y-46491485D02*
X105428572Y-46348628D01*
X105428572Y-46348628D02*
X105428572Y-46110533D01*
X105428572Y-46110533D02*
X105476191Y-45967676D01*
X105476191Y-45967676D02*
X105571429Y-45872438D01*
X105571429Y-45872438D02*
X105714286Y-45824819D01*
X105714286Y-45824819D02*
X105904762Y-45824819D01*
X105904762Y-45824819D02*
X106047619Y-45872438D01*
X106047619Y-45872438D02*
X106142857Y-45967676D01*
X106142857Y-45967676D02*
X106190476Y-46110533D01*
X106190476Y-46110533D02*
X106190476Y-46348628D01*
X106190476Y-46348628D02*
X106142857Y-46491485D01*
X106142857Y-46491485D02*
X106047619Y-46586723D01*
X106047619Y-46586723D02*
X105952381Y-46634342D01*
X105952381Y-46634342D02*
X105952381Y-46824819D01*
X105952381Y-46824819D02*
X106190476Y-46824819D01*
X103833333Y-44454819D02*
X103500000Y-43978628D01*
X103261905Y-44454819D02*
X103261905Y-43454819D01*
X103261905Y-43454819D02*
X103642857Y-43454819D01*
X103642857Y-43454819D02*
X103738095Y-43502438D01*
X103738095Y-43502438D02*
X103785714Y-43550057D01*
X103785714Y-43550057D02*
X103833333Y-43645295D01*
X103833333Y-43645295D02*
X103833333Y-43788152D01*
X103833333Y-43788152D02*
X103785714Y-43883390D01*
X103785714Y-43883390D02*
X103738095Y-43931009D01*
X103738095Y-43931009D02*
X103642857Y-43978628D01*
X103642857Y-43978628D02*
X103261905Y-43978628D01*
X104785714Y-44454819D02*
X104214286Y-44454819D01*
X104500000Y-44454819D02*
X104500000Y-43454819D01*
X104500000Y-43454819D02*
X104404762Y-43597676D01*
X104404762Y-43597676D02*
X104309524Y-43692914D01*
X104309524Y-43692914D02*
X104214286Y-43740533D01*
X47702381Y-65607200D02*
X47845238Y-65654819D01*
X47845238Y-65654819D02*
X48083333Y-65654819D01*
X48083333Y-65654819D02*
X48178571Y-65607200D01*
X48178571Y-65607200D02*
X48226190Y-65559580D01*
X48226190Y-65559580D02*
X48273809Y-65464342D01*
X48273809Y-65464342D02*
X48273809Y-65369104D01*
X48273809Y-65369104D02*
X48226190Y-65273866D01*
X48226190Y-65273866D02*
X48178571Y-65226247D01*
X48178571Y-65226247D02*
X48083333Y-65178628D01*
X48083333Y-65178628D02*
X47892857Y-65131009D01*
X47892857Y-65131009D02*
X47797619Y-65083390D01*
X47797619Y-65083390D02*
X47750000Y-65035771D01*
X47750000Y-65035771D02*
X47702381Y-64940533D01*
X47702381Y-64940533D02*
X47702381Y-64845295D01*
X47702381Y-64845295D02*
X47750000Y-64750057D01*
X47750000Y-64750057D02*
X47797619Y-64702438D01*
X47797619Y-64702438D02*
X47892857Y-64654819D01*
X47892857Y-64654819D02*
X48130952Y-64654819D01*
X48130952Y-64654819D02*
X48273809Y-64702438D01*
X48607143Y-64654819D02*
X48845238Y-65654819D01*
X48845238Y-65654819D02*
X49035714Y-64940533D01*
X49035714Y-64940533D02*
X49226190Y-65654819D01*
X49226190Y-65654819D02*
X49464286Y-64654819D01*
X49607143Y-65750057D02*
X50369047Y-65750057D01*
X50607143Y-65654819D02*
X50607143Y-64654819D01*
X50607143Y-64654819D02*
X50988095Y-64654819D01*
X50988095Y-64654819D02*
X51083333Y-64702438D01*
X51083333Y-64702438D02*
X51130952Y-64750057D01*
X51130952Y-64750057D02*
X51178571Y-64845295D01*
X51178571Y-64845295D02*
X51178571Y-64988152D01*
X51178571Y-64988152D02*
X51130952Y-65083390D01*
X51130952Y-65083390D02*
X51083333Y-65131009D01*
X51083333Y-65131009D02*
X50988095Y-65178628D01*
X50988095Y-65178628D02*
X50607143Y-65178628D01*
X52035714Y-64988152D02*
X52035714Y-65654819D01*
X51607143Y-64988152D02*
X51607143Y-65511961D01*
X51607143Y-65511961D02*
X51654762Y-65607200D01*
X51654762Y-65607200D02*
X51750000Y-65654819D01*
X51750000Y-65654819D02*
X51892857Y-65654819D01*
X51892857Y-65654819D02*
X51988095Y-65607200D01*
X51988095Y-65607200D02*
X52035714Y-65559580D01*
X52464286Y-65607200D02*
X52559524Y-65654819D01*
X52559524Y-65654819D02*
X52750000Y-65654819D01*
X52750000Y-65654819D02*
X52845238Y-65607200D01*
X52845238Y-65607200D02*
X52892857Y-65511961D01*
X52892857Y-65511961D02*
X52892857Y-65464342D01*
X52892857Y-65464342D02*
X52845238Y-65369104D01*
X52845238Y-65369104D02*
X52750000Y-65321485D01*
X52750000Y-65321485D02*
X52607143Y-65321485D01*
X52607143Y-65321485D02*
X52511905Y-65273866D01*
X52511905Y-65273866D02*
X52464286Y-65178628D01*
X52464286Y-65178628D02*
X52464286Y-65131009D01*
X52464286Y-65131009D02*
X52511905Y-65035771D01*
X52511905Y-65035771D02*
X52607143Y-64988152D01*
X52607143Y-64988152D02*
X52750000Y-64988152D01*
X52750000Y-64988152D02*
X52845238Y-65035771D01*
X53321429Y-65654819D02*
X53321429Y-64654819D01*
X53750000Y-65654819D02*
X53750000Y-65131009D01*
X53750000Y-65131009D02*
X53702381Y-65035771D01*
X53702381Y-65035771D02*
X53607143Y-64988152D01*
X53607143Y-64988152D02*
X53464286Y-64988152D01*
X53464286Y-64988152D02*
X53369048Y-65035771D01*
X53369048Y-65035771D02*
X53321429Y-65083390D01*
X48178571Y-61157200D02*
X48321428Y-61204819D01*
X48321428Y-61204819D02*
X48559523Y-61204819D01*
X48559523Y-61204819D02*
X48654761Y-61157200D01*
X48654761Y-61157200D02*
X48702380Y-61109580D01*
X48702380Y-61109580D02*
X48749999Y-61014342D01*
X48749999Y-61014342D02*
X48749999Y-60919104D01*
X48749999Y-60919104D02*
X48702380Y-60823866D01*
X48702380Y-60823866D02*
X48654761Y-60776247D01*
X48654761Y-60776247D02*
X48559523Y-60728628D01*
X48559523Y-60728628D02*
X48369047Y-60681009D01*
X48369047Y-60681009D02*
X48273809Y-60633390D01*
X48273809Y-60633390D02*
X48226190Y-60585771D01*
X48226190Y-60585771D02*
X48178571Y-60490533D01*
X48178571Y-60490533D02*
X48178571Y-60395295D01*
X48178571Y-60395295D02*
X48226190Y-60300057D01*
X48226190Y-60300057D02*
X48273809Y-60252438D01*
X48273809Y-60252438D02*
X48369047Y-60204819D01*
X48369047Y-60204819D02*
X48607142Y-60204819D01*
X48607142Y-60204819D02*
X48749999Y-60252438D01*
X49130952Y-60919104D02*
X49607142Y-60919104D01*
X49035714Y-61204819D02*
X49369047Y-60204819D01*
X49369047Y-60204819D02*
X49702380Y-61204819D01*
X49892857Y-60204819D02*
X50226190Y-61204819D01*
X50226190Y-61204819D02*
X50559523Y-60204819D01*
X50892857Y-60681009D02*
X51226190Y-60681009D01*
X51369047Y-61204819D02*
X50892857Y-61204819D01*
X50892857Y-61204819D02*
X50892857Y-60204819D01*
X50892857Y-60204819D02*
X51369047Y-60204819D01*
X52321428Y-61204819D02*
X51750000Y-61204819D01*
X52035714Y-61204819D02*
X52035714Y-60204819D01*
X52035714Y-60204819D02*
X51940476Y-60347676D01*
X51940476Y-60347676D02*
X51845238Y-60442914D01*
X51845238Y-60442914D02*
X51750000Y-60490533D01*
X114087142Y-58414819D02*
X113610952Y-58414819D01*
X113610952Y-58414819D02*
X113610952Y-57414819D01*
X114420476Y-57891009D02*
X114753809Y-57891009D01*
X114896666Y-58414819D02*
X114420476Y-58414819D01*
X114420476Y-58414819D02*
X114420476Y-57414819D01*
X114420476Y-57414819D02*
X114896666Y-57414819D01*
X115325238Y-58414819D02*
X115325238Y-57414819D01*
X115325238Y-57414819D02*
X115563333Y-57414819D01*
X115563333Y-57414819D02*
X115706190Y-57462438D01*
X115706190Y-57462438D02*
X115801428Y-57557676D01*
X115801428Y-57557676D02*
X115849047Y-57652914D01*
X115849047Y-57652914D02*
X115896666Y-57843390D01*
X115896666Y-57843390D02*
X115896666Y-57986247D01*
X115896666Y-57986247D02*
X115849047Y-58176723D01*
X115849047Y-58176723D02*
X115801428Y-58271961D01*
X115801428Y-58271961D02*
X115706190Y-58367200D01*
X115706190Y-58367200D02*
X115563333Y-58414819D01*
X115563333Y-58414819D02*
X115325238Y-58414819D01*
D11*
X111168095Y-53944807D02*
X111434761Y-53944807D01*
X111549047Y-54363855D02*
X111168095Y-54363855D01*
X111168095Y-54363855D02*
X111168095Y-53563855D01*
X111168095Y-53563855D02*
X111549047Y-53563855D01*
X112349048Y-54363855D02*
X112082381Y-53982902D01*
X111891905Y-54363855D02*
X111891905Y-53563855D01*
X111891905Y-53563855D02*
X112196667Y-53563855D01*
X112196667Y-53563855D02*
X112272857Y-53601950D01*
X112272857Y-53601950D02*
X112310952Y-53640045D01*
X112310952Y-53640045D02*
X112349048Y-53716236D01*
X112349048Y-53716236D02*
X112349048Y-53830521D01*
X112349048Y-53830521D02*
X112310952Y-53906712D01*
X112310952Y-53906712D02*
X112272857Y-53944807D01*
X112272857Y-53944807D02*
X112196667Y-53982902D01*
X112196667Y-53982902D02*
X111891905Y-53982902D01*
X113149048Y-54363855D02*
X112882381Y-53982902D01*
X112691905Y-54363855D02*
X112691905Y-53563855D01*
X112691905Y-53563855D02*
X112996667Y-53563855D01*
X112996667Y-53563855D02*
X113072857Y-53601950D01*
X113072857Y-53601950D02*
X113110952Y-53640045D01*
X113110952Y-53640045D02*
X113149048Y-53716236D01*
X113149048Y-53716236D02*
X113149048Y-53830521D01*
X113149048Y-53830521D02*
X113110952Y-53906712D01*
X113110952Y-53906712D02*
X113072857Y-53944807D01*
X113072857Y-53944807D02*
X112996667Y-53982902D01*
X112996667Y-53982902D02*
X112691905Y-53982902D01*
X113644286Y-53563855D02*
X113796667Y-53563855D01*
X113796667Y-53563855D02*
X113872857Y-53601950D01*
X113872857Y-53601950D02*
X113949048Y-53678140D01*
X113949048Y-53678140D02*
X113987143Y-53830521D01*
X113987143Y-53830521D02*
X113987143Y-54097188D01*
X113987143Y-54097188D02*
X113949048Y-54249569D01*
X113949048Y-54249569D02*
X113872857Y-54325760D01*
X113872857Y-54325760D02*
X113796667Y-54363855D01*
X113796667Y-54363855D02*
X113644286Y-54363855D01*
X113644286Y-54363855D02*
X113568095Y-54325760D01*
X113568095Y-54325760D02*
X113491905Y-54249569D01*
X113491905Y-54249569D02*
X113453809Y-54097188D01*
X113453809Y-54097188D02*
X113453809Y-53830521D01*
X113453809Y-53830521D02*
X113491905Y-53678140D01*
X113491905Y-53678140D02*
X113568095Y-53601950D01*
X113568095Y-53601950D02*
X113644286Y-53563855D01*
X114787143Y-54363855D02*
X114520476Y-53982902D01*
X114330000Y-54363855D02*
X114330000Y-53563855D01*
X114330000Y-53563855D02*
X114634762Y-53563855D01*
X114634762Y-53563855D02*
X114710952Y-53601950D01*
X114710952Y-53601950D02*
X114749047Y-53640045D01*
X114749047Y-53640045D02*
X114787143Y-53716236D01*
X114787143Y-53716236D02*
X114787143Y-53830521D01*
X114787143Y-53830521D02*
X114749047Y-53906712D01*
X114749047Y-53906712D02*
X114710952Y-53944807D01*
X114710952Y-53944807D02*
X114634762Y-53982902D01*
X114634762Y-53982902D02*
X114330000Y-53982902D01*
X114939524Y-54440045D02*
X115549047Y-54440045D01*
X116120476Y-54363855D02*
X115739524Y-54363855D01*
X115739524Y-54363855D02*
X115739524Y-53563855D01*
X116387143Y-53944807D02*
X116653809Y-53944807D01*
X116768095Y-54363855D02*
X116387143Y-54363855D01*
X116387143Y-54363855D02*
X116387143Y-53563855D01*
X116387143Y-53563855D02*
X116768095Y-53563855D01*
X117110953Y-54363855D02*
X117110953Y-53563855D01*
X117110953Y-53563855D02*
X117301429Y-53563855D01*
X117301429Y-53563855D02*
X117415715Y-53601950D01*
X117415715Y-53601950D02*
X117491905Y-53678140D01*
X117491905Y-53678140D02*
X117530000Y-53754331D01*
X117530000Y-53754331D02*
X117568096Y-53906712D01*
X117568096Y-53906712D02*
X117568096Y-54020998D01*
X117568096Y-54020998D02*
X117530000Y-54173379D01*
X117530000Y-54173379D02*
X117491905Y-54249569D01*
X117491905Y-54249569D02*
X117415715Y-54325760D01*
X117415715Y-54325760D02*
X117301429Y-54363855D01*
X117301429Y-54363855D02*
X117110953Y-54363855D01*
X118330000Y-54363855D02*
X117872857Y-54363855D01*
X118101429Y-54363855D02*
X118101429Y-53563855D01*
X118101429Y-53563855D02*
X118025238Y-53678140D01*
X118025238Y-53678140D02*
X117949048Y-53754331D01*
X117949048Y-53754331D02*
X117872857Y-53792426D01*
D10*
X81737143Y-93539104D02*
X82213333Y-93539104D01*
X81641905Y-93824819D02*
X81975238Y-92824819D01*
X81975238Y-92824819D02*
X82308571Y-93824819D01*
X82499048Y-92824819D02*
X83070476Y-92824819D01*
X82784762Y-93824819D02*
X82784762Y-92824819D01*
X83403810Y-93824819D02*
X83403810Y-93158152D01*
X83403810Y-93253390D02*
X83451429Y-93205771D01*
X83451429Y-93205771D02*
X83546667Y-93158152D01*
X83546667Y-93158152D02*
X83689524Y-93158152D01*
X83689524Y-93158152D02*
X83784762Y-93205771D01*
X83784762Y-93205771D02*
X83832381Y-93301009D01*
X83832381Y-93301009D02*
X83832381Y-93824819D01*
X83832381Y-93301009D02*
X83880000Y-93205771D01*
X83880000Y-93205771D02*
X83975238Y-93158152D01*
X83975238Y-93158152D02*
X84118095Y-93158152D01*
X84118095Y-93158152D02*
X84213334Y-93205771D01*
X84213334Y-93205771D02*
X84260953Y-93301009D01*
X84260953Y-93301009D02*
X84260953Y-93824819D01*
X85118095Y-93777200D02*
X85022857Y-93824819D01*
X85022857Y-93824819D02*
X84832381Y-93824819D01*
X84832381Y-93824819D02*
X84737143Y-93777200D01*
X84737143Y-93777200D02*
X84689524Y-93681961D01*
X84689524Y-93681961D02*
X84689524Y-93301009D01*
X84689524Y-93301009D02*
X84737143Y-93205771D01*
X84737143Y-93205771D02*
X84832381Y-93158152D01*
X84832381Y-93158152D02*
X85022857Y-93158152D01*
X85022857Y-93158152D02*
X85118095Y-93205771D01*
X85118095Y-93205771D02*
X85165714Y-93301009D01*
X85165714Y-93301009D02*
X85165714Y-93396247D01*
X85165714Y-93396247D02*
X84689524Y-93491485D01*
X86022857Y-93158152D02*
X86022857Y-93967676D01*
X86022857Y-93967676D02*
X85975238Y-94062914D01*
X85975238Y-94062914D02*
X85927619Y-94110533D01*
X85927619Y-94110533D02*
X85832381Y-94158152D01*
X85832381Y-94158152D02*
X85689524Y-94158152D01*
X85689524Y-94158152D02*
X85594286Y-94110533D01*
X86022857Y-93777200D02*
X85927619Y-93824819D01*
X85927619Y-93824819D02*
X85737143Y-93824819D01*
X85737143Y-93824819D02*
X85641905Y-93777200D01*
X85641905Y-93777200D02*
X85594286Y-93729580D01*
X85594286Y-93729580D02*
X85546667Y-93634342D01*
X85546667Y-93634342D02*
X85546667Y-93348628D01*
X85546667Y-93348628D02*
X85594286Y-93253390D01*
X85594286Y-93253390D02*
X85641905Y-93205771D01*
X85641905Y-93205771D02*
X85737143Y-93158152D01*
X85737143Y-93158152D02*
X85927619Y-93158152D01*
X85927619Y-93158152D02*
X86022857Y-93205771D01*
X86927619Y-93824819D02*
X86927619Y-93301009D01*
X86927619Y-93301009D02*
X86880000Y-93205771D01*
X86880000Y-93205771D02*
X86784762Y-93158152D01*
X86784762Y-93158152D02*
X86594286Y-93158152D01*
X86594286Y-93158152D02*
X86499048Y-93205771D01*
X86927619Y-93777200D02*
X86832381Y-93824819D01*
X86832381Y-93824819D02*
X86594286Y-93824819D01*
X86594286Y-93824819D02*
X86499048Y-93777200D01*
X86499048Y-93777200D02*
X86451429Y-93681961D01*
X86451429Y-93681961D02*
X86451429Y-93586723D01*
X86451429Y-93586723D02*
X86499048Y-93491485D01*
X86499048Y-93491485D02*
X86594286Y-93443866D01*
X86594286Y-93443866D02*
X86832381Y-93443866D01*
X86832381Y-93443866D02*
X86927619Y-93396247D01*
X87308572Y-92824819D02*
X87927619Y-92824819D01*
X87927619Y-92824819D02*
X87594286Y-93205771D01*
X87594286Y-93205771D02*
X87737143Y-93205771D01*
X87737143Y-93205771D02*
X87832381Y-93253390D01*
X87832381Y-93253390D02*
X87880000Y-93301009D01*
X87880000Y-93301009D02*
X87927619Y-93396247D01*
X87927619Y-93396247D02*
X87927619Y-93634342D01*
X87927619Y-93634342D02*
X87880000Y-93729580D01*
X87880000Y-93729580D02*
X87832381Y-93777200D01*
X87832381Y-93777200D02*
X87737143Y-93824819D01*
X87737143Y-93824819D02*
X87451429Y-93824819D01*
X87451429Y-93824819D02*
X87356191Y-93777200D01*
X87356191Y-93777200D02*
X87308572Y-93729580D01*
X88308572Y-92920057D02*
X88356191Y-92872438D01*
X88356191Y-92872438D02*
X88451429Y-92824819D01*
X88451429Y-92824819D02*
X88689524Y-92824819D01*
X88689524Y-92824819D02*
X88784762Y-92872438D01*
X88784762Y-92872438D02*
X88832381Y-92920057D01*
X88832381Y-92920057D02*
X88880000Y-93015295D01*
X88880000Y-93015295D02*
X88880000Y-93110533D01*
X88880000Y-93110533D02*
X88832381Y-93253390D01*
X88832381Y-93253390D02*
X88260953Y-93824819D01*
X88260953Y-93824819D02*
X88880000Y-93824819D01*
X89308572Y-93443866D02*
X90070477Y-93443866D01*
X91070476Y-93824819D02*
X90499048Y-93824819D01*
X90784762Y-93824819D02*
X90784762Y-92824819D01*
X90784762Y-92824819D02*
X90689524Y-92967676D01*
X90689524Y-92967676D02*
X90594286Y-93062914D01*
X90594286Y-93062914D02*
X90499048Y-93110533D01*
X91927619Y-92824819D02*
X91737143Y-92824819D01*
X91737143Y-92824819D02*
X91641905Y-92872438D01*
X91641905Y-92872438D02*
X91594286Y-92920057D01*
X91594286Y-92920057D02*
X91499048Y-93062914D01*
X91499048Y-93062914D02*
X91451429Y-93253390D01*
X91451429Y-93253390D02*
X91451429Y-93634342D01*
X91451429Y-93634342D02*
X91499048Y-93729580D01*
X91499048Y-93729580D02*
X91546667Y-93777200D01*
X91546667Y-93777200D02*
X91641905Y-93824819D01*
X91641905Y-93824819D02*
X91832381Y-93824819D01*
X91832381Y-93824819D02*
X91927619Y-93777200D01*
X91927619Y-93777200D02*
X91975238Y-93729580D01*
X91975238Y-93729580D02*
X92022857Y-93634342D01*
X92022857Y-93634342D02*
X92022857Y-93396247D01*
X92022857Y-93396247D02*
X91975238Y-93301009D01*
X91975238Y-93301009D02*
X91927619Y-93253390D01*
X91927619Y-93253390D02*
X91832381Y-93205771D01*
X91832381Y-93205771D02*
X91641905Y-93205771D01*
X91641905Y-93205771D02*
X91546667Y-93253390D01*
X91546667Y-93253390D02*
X91499048Y-93301009D01*
X91499048Y-93301009D02*
X91451429Y-93396247D01*
X92451429Y-93824819D02*
X92451429Y-92824819D01*
X92451429Y-92824819D02*
X92832381Y-92824819D01*
X92832381Y-92824819D02*
X92927619Y-92872438D01*
X92927619Y-92872438D02*
X92975238Y-92920057D01*
X92975238Y-92920057D02*
X93022857Y-93015295D01*
X93022857Y-93015295D02*
X93022857Y-93158152D01*
X93022857Y-93158152D02*
X92975238Y-93253390D01*
X92975238Y-93253390D02*
X92927619Y-93301009D01*
X92927619Y-93301009D02*
X92832381Y-93348628D01*
X92832381Y-93348628D02*
X92451429Y-93348628D01*
X86834819Y-67671904D02*
X87644342Y-67671904D01*
X87644342Y-67671904D02*
X87739580Y-67624285D01*
X87739580Y-67624285D02*
X87787200Y-67576666D01*
X87787200Y-67576666D02*
X87834819Y-67481428D01*
X87834819Y-67481428D02*
X87834819Y-67290952D01*
X87834819Y-67290952D02*
X87787200Y-67195714D01*
X87787200Y-67195714D02*
X87739580Y-67148095D01*
X87739580Y-67148095D02*
X87644342Y-67100476D01*
X87644342Y-67100476D02*
X86834819Y-67100476D01*
X87834819Y-66100476D02*
X87834819Y-66671904D01*
X87834819Y-66386190D02*
X86834819Y-66386190D01*
X86834819Y-66386190D02*
X86977676Y-66481428D01*
X86977676Y-66481428D02*
X87072914Y-66576666D01*
X87072914Y-66576666D02*
X87120533Y-66671904D01*
X125271428Y-77331009D02*
X125414285Y-77378628D01*
X125414285Y-77378628D02*
X125461904Y-77426247D01*
X125461904Y-77426247D02*
X125509523Y-77521485D01*
X125509523Y-77521485D02*
X125509523Y-77664342D01*
X125509523Y-77664342D02*
X125461904Y-77759580D01*
X125461904Y-77759580D02*
X125414285Y-77807200D01*
X125414285Y-77807200D02*
X125319047Y-77854819D01*
X125319047Y-77854819D02*
X124938095Y-77854819D01*
X124938095Y-77854819D02*
X124938095Y-76854819D01*
X124938095Y-76854819D02*
X125271428Y-76854819D01*
X125271428Y-76854819D02*
X125366666Y-76902438D01*
X125366666Y-76902438D02*
X125414285Y-76950057D01*
X125414285Y-76950057D02*
X125461904Y-77045295D01*
X125461904Y-77045295D02*
X125461904Y-77140533D01*
X125461904Y-77140533D02*
X125414285Y-77235771D01*
X125414285Y-77235771D02*
X125366666Y-77283390D01*
X125366666Y-77283390D02*
X125271428Y-77331009D01*
X125271428Y-77331009D02*
X124938095Y-77331009D01*
X126366666Y-77188152D02*
X126366666Y-77854819D01*
X125938095Y-77188152D02*
X125938095Y-77711961D01*
X125938095Y-77711961D02*
X125985714Y-77807200D01*
X125985714Y-77807200D02*
X126080952Y-77854819D01*
X126080952Y-77854819D02*
X126223809Y-77854819D01*
X126223809Y-77854819D02*
X126319047Y-77807200D01*
X126319047Y-77807200D02*
X126366666Y-77759580D01*
X126747619Y-77188152D02*
X127271428Y-77188152D01*
X127271428Y-77188152D02*
X126747619Y-77854819D01*
X126747619Y-77854819D02*
X127271428Y-77854819D01*
X127557143Y-77188152D02*
X128080952Y-77188152D01*
X128080952Y-77188152D02*
X127557143Y-77854819D01*
X127557143Y-77854819D02*
X128080952Y-77854819D01*
X128842857Y-77807200D02*
X128747619Y-77854819D01*
X128747619Y-77854819D02*
X128557143Y-77854819D01*
X128557143Y-77854819D02*
X128461905Y-77807200D01*
X128461905Y-77807200D02*
X128414286Y-77711961D01*
X128414286Y-77711961D02*
X128414286Y-77331009D01*
X128414286Y-77331009D02*
X128461905Y-77235771D01*
X128461905Y-77235771D02*
X128557143Y-77188152D01*
X128557143Y-77188152D02*
X128747619Y-77188152D01*
X128747619Y-77188152D02*
X128842857Y-77235771D01*
X128842857Y-77235771D02*
X128890476Y-77331009D01*
X128890476Y-77331009D02*
X128890476Y-77426247D01*
X128890476Y-77426247D02*
X128414286Y-77521485D01*
X129319048Y-77854819D02*
X129319048Y-77188152D01*
X129319048Y-77378628D02*
X129366667Y-77283390D01*
X129366667Y-77283390D02*
X129414286Y-77235771D01*
X129414286Y-77235771D02*
X129509524Y-77188152D01*
X129509524Y-77188152D02*
X129604762Y-77188152D01*
X123009048Y-67533866D02*
X123770953Y-67533866D01*
X123390000Y-67914819D02*
X123390000Y-67152914D01*
X126319047Y-65931009D02*
X126461904Y-65978628D01*
X126461904Y-65978628D02*
X126509523Y-66026247D01*
X126509523Y-66026247D02*
X126557142Y-66121485D01*
X126557142Y-66121485D02*
X126557142Y-66264342D01*
X126557142Y-66264342D02*
X126509523Y-66359580D01*
X126509523Y-66359580D02*
X126461904Y-66407200D01*
X126461904Y-66407200D02*
X126366666Y-66454819D01*
X126366666Y-66454819D02*
X125985714Y-66454819D01*
X125985714Y-66454819D02*
X125985714Y-65454819D01*
X125985714Y-65454819D02*
X126319047Y-65454819D01*
X126319047Y-65454819D02*
X126414285Y-65502438D01*
X126414285Y-65502438D02*
X126461904Y-65550057D01*
X126461904Y-65550057D02*
X126509523Y-65645295D01*
X126509523Y-65645295D02*
X126509523Y-65740533D01*
X126509523Y-65740533D02*
X126461904Y-65835771D01*
X126461904Y-65835771D02*
X126414285Y-65883390D01*
X126414285Y-65883390D02*
X126319047Y-65931009D01*
X126319047Y-65931009D02*
X125985714Y-65931009D01*
X126890476Y-65454819D02*
X127557142Y-65454819D01*
X127557142Y-65454819D02*
X126890476Y-66454819D01*
X126890476Y-66454819D02*
X127557142Y-66454819D01*
X128461904Y-66454819D02*
X127890476Y-66454819D01*
X128176190Y-66454819D02*
X128176190Y-65454819D01*
X128176190Y-65454819D02*
X128080952Y-65597676D01*
X128080952Y-65597676D02*
X127985714Y-65692914D01*
X127985714Y-65692914D02*
X127890476Y-65740533D01*
X111619047Y-66340057D02*
X111523809Y-66292438D01*
X111523809Y-66292438D02*
X111428571Y-66197200D01*
X111428571Y-66197200D02*
X111285714Y-66054342D01*
X111285714Y-66054342D02*
X111190476Y-66006723D01*
X111190476Y-66006723D02*
X111095238Y-66006723D01*
X111142857Y-66244819D02*
X111047619Y-66197200D01*
X111047619Y-66197200D02*
X110952381Y-66101961D01*
X110952381Y-66101961D02*
X110904762Y-65911485D01*
X110904762Y-65911485D02*
X110904762Y-65578152D01*
X110904762Y-65578152D02*
X110952381Y-65387676D01*
X110952381Y-65387676D02*
X111047619Y-65292438D01*
X111047619Y-65292438D02*
X111142857Y-65244819D01*
X111142857Y-65244819D02*
X111333333Y-65244819D01*
X111333333Y-65244819D02*
X111428571Y-65292438D01*
X111428571Y-65292438D02*
X111523809Y-65387676D01*
X111523809Y-65387676D02*
X111571428Y-65578152D01*
X111571428Y-65578152D02*
X111571428Y-65911485D01*
X111571428Y-65911485D02*
X111523809Y-66101961D01*
X111523809Y-66101961D02*
X111428571Y-66197200D01*
X111428571Y-66197200D02*
X111333333Y-66244819D01*
X111333333Y-66244819D02*
X111142857Y-66244819D01*
X111761905Y-66340057D02*
X112523809Y-66340057D01*
X112761905Y-66244819D02*
X112761905Y-65244819D01*
X112761905Y-65244819D02*
X113333333Y-66244819D01*
X113333333Y-66244819D02*
X113333333Y-65244819D01*
X113809524Y-66244819D02*
X113809524Y-65244819D01*
X113809524Y-65244819D02*
X114190476Y-65244819D01*
X114190476Y-65244819D02*
X114285714Y-65292438D01*
X114285714Y-65292438D02*
X114333333Y-65340057D01*
X114333333Y-65340057D02*
X114380952Y-65435295D01*
X114380952Y-65435295D02*
X114380952Y-65578152D01*
X114380952Y-65578152D02*
X114333333Y-65673390D01*
X114333333Y-65673390D02*
X114285714Y-65721009D01*
X114285714Y-65721009D02*
X114190476Y-65768628D01*
X114190476Y-65768628D02*
X113809524Y-65768628D01*
X114809524Y-66244819D02*
X114809524Y-65244819D01*
X114809524Y-65244819D02*
X115380952Y-66244819D01*
X115380952Y-66244819D02*
X115380952Y-65244819D01*
X115619048Y-66340057D02*
X116380952Y-66340057D01*
X116952381Y-65721009D02*
X117095238Y-65768628D01*
X117095238Y-65768628D02*
X117142857Y-65816247D01*
X117142857Y-65816247D02*
X117190476Y-65911485D01*
X117190476Y-65911485D02*
X117190476Y-66054342D01*
X117190476Y-66054342D02*
X117142857Y-66149580D01*
X117142857Y-66149580D02*
X117095238Y-66197200D01*
X117095238Y-66197200D02*
X117000000Y-66244819D01*
X117000000Y-66244819D02*
X116619048Y-66244819D01*
X116619048Y-66244819D02*
X116619048Y-65244819D01*
X116619048Y-65244819D02*
X116952381Y-65244819D01*
X116952381Y-65244819D02*
X117047619Y-65292438D01*
X117047619Y-65292438D02*
X117095238Y-65340057D01*
X117095238Y-65340057D02*
X117142857Y-65435295D01*
X117142857Y-65435295D02*
X117142857Y-65530533D01*
X117142857Y-65530533D02*
X117095238Y-65625771D01*
X117095238Y-65625771D02*
X117047619Y-65673390D01*
X117047619Y-65673390D02*
X116952381Y-65721009D01*
X116952381Y-65721009D02*
X116619048Y-65721009D01*
X118190476Y-66149580D02*
X118142857Y-66197200D01*
X118142857Y-66197200D02*
X118000000Y-66244819D01*
X118000000Y-66244819D02*
X117904762Y-66244819D01*
X117904762Y-66244819D02*
X117761905Y-66197200D01*
X117761905Y-66197200D02*
X117666667Y-66101961D01*
X117666667Y-66101961D02*
X117619048Y-66006723D01*
X117619048Y-66006723D02*
X117571429Y-65816247D01*
X117571429Y-65816247D02*
X117571429Y-65673390D01*
X117571429Y-65673390D02*
X117619048Y-65482914D01*
X117619048Y-65482914D02*
X117666667Y-65387676D01*
X117666667Y-65387676D02*
X117761905Y-65292438D01*
X117761905Y-65292438D02*
X117904762Y-65244819D01*
X117904762Y-65244819D02*
X118000000Y-65244819D01*
X118000000Y-65244819D02*
X118142857Y-65292438D01*
X118142857Y-65292438D02*
X118190476Y-65340057D01*
X118619048Y-65721009D02*
X118952381Y-65721009D01*
X119095238Y-66244819D02*
X118619048Y-66244819D01*
X118619048Y-66244819D02*
X118619048Y-65244819D01*
X118619048Y-65244819D02*
X119095238Y-65244819D01*
X114904761Y-63550057D02*
X114809523Y-63502438D01*
X114809523Y-63502438D02*
X114714285Y-63407200D01*
X114714285Y-63407200D02*
X114571428Y-63264342D01*
X114571428Y-63264342D02*
X114476190Y-63216723D01*
X114476190Y-63216723D02*
X114380952Y-63216723D01*
X114428571Y-63454819D02*
X114333333Y-63407200D01*
X114333333Y-63407200D02*
X114238095Y-63311961D01*
X114238095Y-63311961D02*
X114190476Y-63121485D01*
X114190476Y-63121485D02*
X114190476Y-62788152D01*
X114190476Y-62788152D02*
X114238095Y-62597676D01*
X114238095Y-62597676D02*
X114333333Y-62502438D01*
X114333333Y-62502438D02*
X114428571Y-62454819D01*
X114428571Y-62454819D02*
X114619047Y-62454819D01*
X114619047Y-62454819D02*
X114714285Y-62502438D01*
X114714285Y-62502438D02*
X114809523Y-62597676D01*
X114809523Y-62597676D02*
X114857142Y-62788152D01*
X114857142Y-62788152D02*
X114857142Y-63121485D01*
X114857142Y-63121485D02*
X114809523Y-63311961D01*
X114809523Y-63311961D02*
X114714285Y-63407200D01*
X114714285Y-63407200D02*
X114619047Y-63454819D01*
X114619047Y-63454819D02*
X114428571Y-63454819D01*
X115809523Y-63454819D02*
X115238095Y-63454819D01*
X115523809Y-63454819D02*
X115523809Y-62454819D01*
X115523809Y-62454819D02*
X115428571Y-62597676D01*
X115428571Y-62597676D02*
X115333333Y-62692914D01*
X115333333Y-62692914D02*
X115238095Y-62740533D01*
X74238095Y-103824819D02*
X74857142Y-103824819D01*
X74857142Y-103824819D02*
X74523809Y-104205771D01*
X74523809Y-104205771D02*
X74666666Y-104205771D01*
X74666666Y-104205771D02*
X74761904Y-104253390D01*
X74761904Y-104253390D02*
X74809523Y-104301009D01*
X74809523Y-104301009D02*
X74857142Y-104396247D01*
X74857142Y-104396247D02*
X74857142Y-104634342D01*
X74857142Y-104634342D02*
X74809523Y-104729580D01*
X74809523Y-104729580D02*
X74761904Y-104777200D01*
X74761904Y-104777200D02*
X74666666Y-104824819D01*
X74666666Y-104824819D02*
X74380952Y-104824819D01*
X74380952Y-104824819D02*
X74285714Y-104777200D01*
X74285714Y-104777200D02*
X74238095Y-104729580D01*
X75190476Y-103824819D02*
X75809523Y-103824819D01*
X75809523Y-103824819D02*
X75476190Y-104205771D01*
X75476190Y-104205771D02*
X75619047Y-104205771D01*
X75619047Y-104205771D02*
X75714285Y-104253390D01*
X75714285Y-104253390D02*
X75761904Y-104301009D01*
X75761904Y-104301009D02*
X75809523Y-104396247D01*
X75809523Y-104396247D02*
X75809523Y-104634342D01*
X75809523Y-104634342D02*
X75761904Y-104729580D01*
X75761904Y-104729580D02*
X75714285Y-104777200D01*
X75714285Y-104777200D02*
X75619047Y-104824819D01*
X75619047Y-104824819D02*
X75333333Y-104824819D01*
X75333333Y-104824819D02*
X75238095Y-104777200D01*
X75238095Y-104777200D02*
X75190476Y-104729580D01*
X76952381Y-104824819D02*
X77190476Y-104824819D01*
X77190476Y-104824819D02*
X77190476Y-104634342D01*
X77190476Y-104634342D02*
X77095238Y-104586723D01*
X77095238Y-104586723D02*
X77000000Y-104491485D01*
X77000000Y-104491485D02*
X76952381Y-104348628D01*
X76952381Y-104348628D02*
X76952381Y-104110533D01*
X76952381Y-104110533D02*
X77000000Y-103967676D01*
X77000000Y-103967676D02*
X77095238Y-103872438D01*
X77095238Y-103872438D02*
X77238095Y-103824819D01*
X77238095Y-103824819D02*
X77428571Y-103824819D01*
X77428571Y-103824819D02*
X77571428Y-103872438D01*
X77571428Y-103872438D02*
X77666666Y-103967676D01*
X77666666Y-103967676D02*
X77714285Y-104110533D01*
X77714285Y-104110533D02*
X77714285Y-104348628D01*
X77714285Y-104348628D02*
X77666666Y-104491485D01*
X77666666Y-104491485D02*
X77571428Y-104586723D01*
X77571428Y-104586723D02*
X77476190Y-104634342D01*
X77476190Y-104634342D02*
X77476190Y-104824819D01*
X77476190Y-104824819D02*
X77714285Y-104824819D01*
X75833333Y-102454819D02*
X75500000Y-101978628D01*
X75261905Y-102454819D02*
X75261905Y-101454819D01*
X75261905Y-101454819D02*
X75642857Y-101454819D01*
X75642857Y-101454819D02*
X75738095Y-101502438D01*
X75738095Y-101502438D02*
X75785714Y-101550057D01*
X75785714Y-101550057D02*
X75833333Y-101645295D01*
X75833333Y-101645295D02*
X75833333Y-101788152D01*
X75833333Y-101788152D02*
X75785714Y-101883390D01*
X75785714Y-101883390D02*
X75738095Y-101931009D01*
X75738095Y-101931009D02*
X75642857Y-101978628D01*
X75642857Y-101978628D02*
X75261905Y-101978628D01*
X76738095Y-101454819D02*
X76261905Y-101454819D01*
X76261905Y-101454819D02*
X76214286Y-101931009D01*
X76214286Y-101931009D02*
X76261905Y-101883390D01*
X76261905Y-101883390D02*
X76357143Y-101835771D01*
X76357143Y-101835771D02*
X76595238Y-101835771D01*
X76595238Y-101835771D02*
X76690476Y-101883390D01*
X76690476Y-101883390D02*
X76738095Y-101931009D01*
X76738095Y-101931009D02*
X76785714Y-102026247D01*
X76785714Y-102026247D02*
X76785714Y-102264342D01*
X76785714Y-102264342D02*
X76738095Y-102359580D01*
X76738095Y-102359580D02*
X76690476Y-102407200D01*
X76690476Y-102407200D02*
X76595238Y-102454819D01*
X76595238Y-102454819D02*
X76357143Y-102454819D01*
X76357143Y-102454819D02*
X76261905Y-102407200D01*
X76261905Y-102407200D02*
X76214286Y-102359580D01*
X68119523Y-47824819D02*
X67548095Y-47824819D01*
X67833809Y-47824819D02*
X67833809Y-46824819D01*
X67833809Y-46824819D02*
X67738571Y-46967676D01*
X67738571Y-46967676D02*
X67643333Y-47062914D01*
X67643333Y-47062914D02*
X67548095Y-47110533D01*
X68738571Y-46824819D02*
X68833809Y-46824819D01*
X68833809Y-46824819D02*
X68929047Y-46872438D01*
X68929047Y-46872438D02*
X68976666Y-46920057D01*
X68976666Y-46920057D02*
X69024285Y-47015295D01*
X69024285Y-47015295D02*
X69071904Y-47205771D01*
X69071904Y-47205771D02*
X69071904Y-47443866D01*
X69071904Y-47443866D02*
X69024285Y-47634342D01*
X69024285Y-47634342D02*
X68976666Y-47729580D01*
X68976666Y-47729580D02*
X68929047Y-47777200D01*
X68929047Y-47777200D02*
X68833809Y-47824819D01*
X68833809Y-47824819D02*
X68738571Y-47824819D01*
X68738571Y-47824819D02*
X68643333Y-47777200D01*
X68643333Y-47777200D02*
X68595714Y-47729580D01*
X68595714Y-47729580D02*
X68548095Y-47634342D01*
X68548095Y-47634342D02*
X68500476Y-47443866D01*
X68500476Y-47443866D02*
X68500476Y-47205771D01*
X68500476Y-47205771D02*
X68548095Y-47015295D01*
X68548095Y-47015295D02*
X68595714Y-46920057D01*
X68595714Y-46920057D02*
X68643333Y-46872438D01*
X68643333Y-46872438D02*
X68738571Y-46824819D01*
X69500476Y-47824819D02*
X69500476Y-46824819D01*
X70071904Y-47824819D02*
X69643333Y-47253390D01*
X70071904Y-46824819D02*
X69500476Y-47396247D01*
X68643333Y-45454819D02*
X68310000Y-44978628D01*
X68071905Y-45454819D02*
X68071905Y-44454819D01*
X68071905Y-44454819D02*
X68452857Y-44454819D01*
X68452857Y-44454819D02*
X68548095Y-44502438D01*
X68548095Y-44502438D02*
X68595714Y-44550057D01*
X68595714Y-44550057D02*
X68643333Y-44645295D01*
X68643333Y-44645295D02*
X68643333Y-44788152D01*
X68643333Y-44788152D02*
X68595714Y-44883390D01*
X68595714Y-44883390D02*
X68548095Y-44931009D01*
X68548095Y-44931009D02*
X68452857Y-44978628D01*
X68452857Y-44978628D02*
X68071905Y-44978628D01*
X68976667Y-44454819D02*
X69595714Y-44454819D01*
X69595714Y-44454819D02*
X69262381Y-44835771D01*
X69262381Y-44835771D02*
X69405238Y-44835771D01*
X69405238Y-44835771D02*
X69500476Y-44883390D01*
X69500476Y-44883390D02*
X69548095Y-44931009D01*
X69548095Y-44931009D02*
X69595714Y-45026247D01*
X69595714Y-45026247D02*
X69595714Y-45264342D01*
X69595714Y-45264342D02*
X69548095Y-45359580D01*
X69548095Y-45359580D02*
X69500476Y-45407200D01*
X69500476Y-45407200D02*
X69405238Y-45454819D01*
X69405238Y-45454819D02*
X69119524Y-45454819D01*
X69119524Y-45454819D02*
X69024286Y-45407200D01*
X69024286Y-45407200D02*
X68976667Y-45359580D01*
X47702381Y-85607200D02*
X47845238Y-85654819D01*
X47845238Y-85654819D02*
X48083333Y-85654819D01*
X48083333Y-85654819D02*
X48178571Y-85607200D01*
X48178571Y-85607200D02*
X48226190Y-85559580D01*
X48226190Y-85559580D02*
X48273809Y-85464342D01*
X48273809Y-85464342D02*
X48273809Y-85369104D01*
X48273809Y-85369104D02*
X48226190Y-85273866D01*
X48226190Y-85273866D02*
X48178571Y-85226247D01*
X48178571Y-85226247D02*
X48083333Y-85178628D01*
X48083333Y-85178628D02*
X47892857Y-85131009D01*
X47892857Y-85131009D02*
X47797619Y-85083390D01*
X47797619Y-85083390D02*
X47750000Y-85035771D01*
X47750000Y-85035771D02*
X47702381Y-84940533D01*
X47702381Y-84940533D02*
X47702381Y-84845295D01*
X47702381Y-84845295D02*
X47750000Y-84750057D01*
X47750000Y-84750057D02*
X47797619Y-84702438D01*
X47797619Y-84702438D02*
X47892857Y-84654819D01*
X47892857Y-84654819D02*
X48130952Y-84654819D01*
X48130952Y-84654819D02*
X48273809Y-84702438D01*
X48607143Y-84654819D02*
X48845238Y-85654819D01*
X48845238Y-85654819D02*
X49035714Y-84940533D01*
X49035714Y-84940533D02*
X49226190Y-85654819D01*
X49226190Y-85654819D02*
X49464286Y-84654819D01*
X49607143Y-85750057D02*
X50369047Y-85750057D01*
X50607143Y-85654819D02*
X50607143Y-84654819D01*
X50607143Y-84654819D02*
X50988095Y-84654819D01*
X50988095Y-84654819D02*
X51083333Y-84702438D01*
X51083333Y-84702438D02*
X51130952Y-84750057D01*
X51130952Y-84750057D02*
X51178571Y-84845295D01*
X51178571Y-84845295D02*
X51178571Y-84988152D01*
X51178571Y-84988152D02*
X51130952Y-85083390D01*
X51130952Y-85083390D02*
X51083333Y-85131009D01*
X51083333Y-85131009D02*
X50988095Y-85178628D01*
X50988095Y-85178628D02*
X50607143Y-85178628D01*
X52035714Y-84988152D02*
X52035714Y-85654819D01*
X51607143Y-84988152D02*
X51607143Y-85511961D01*
X51607143Y-85511961D02*
X51654762Y-85607200D01*
X51654762Y-85607200D02*
X51750000Y-85654819D01*
X51750000Y-85654819D02*
X51892857Y-85654819D01*
X51892857Y-85654819D02*
X51988095Y-85607200D01*
X51988095Y-85607200D02*
X52035714Y-85559580D01*
X52464286Y-85607200D02*
X52559524Y-85654819D01*
X52559524Y-85654819D02*
X52750000Y-85654819D01*
X52750000Y-85654819D02*
X52845238Y-85607200D01*
X52845238Y-85607200D02*
X52892857Y-85511961D01*
X52892857Y-85511961D02*
X52892857Y-85464342D01*
X52892857Y-85464342D02*
X52845238Y-85369104D01*
X52845238Y-85369104D02*
X52750000Y-85321485D01*
X52750000Y-85321485D02*
X52607143Y-85321485D01*
X52607143Y-85321485D02*
X52511905Y-85273866D01*
X52511905Y-85273866D02*
X52464286Y-85178628D01*
X52464286Y-85178628D02*
X52464286Y-85131009D01*
X52464286Y-85131009D02*
X52511905Y-85035771D01*
X52511905Y-85035771D02*
X52607143Y-84988152D01*
X52607143Y-84988152D02*
X52750000Y-84988152D01*
X52750000Y-84988152D02*
X52845238Y-85035771D01*
X53321429Y-85654819D02*
X53321429Y-84654819D01*
X53750000Y-85654819D02*
X53750000Y-85131009D01*
X53750000Y-85131009D02*
X53702381Y-85035771D01*
X53702381Y-85035771D02*
X53607143Y-84988152D01*
X53607143Y-84988152D02*
X53464286Y-84988152D01*
X53464286Y-84988152D02*
X53369048Y-85035771D01*
X53369048Y-85035771D02*
X53321429Y-85083390D01*
X48297618Y-81109580D02*
X48249999Y-81157200D01*
X48249999Y-81157200D02*
X48107142Y-81204819D01*
X48107142Y-81204819D02*
X48011904Y-81204819D01*
X48011904Y-81204819D02*
X47869047Y-81157200D01*
X47869047Y-81157200D02*
X47773809Y-81061961D01*
X47773809Y-81061961D02*
X47726190Y-80966723D01*
X47726190Y-80966723D02*
X47678571Y-80776247D01*
X47678571Y-80776247D02*
X47678571Y-80633390D01*
X47678571Y-80633390D02*
X47726190Y-80442914D01*
X47726190Y-80442914D02*
X47773809Y-80347676D01*
X47773809Y-80347676D02*
X47869047Y-80252438D01*
X47869047Y-80252438D02*
X48011904Y-80204819D01*
X48011904Y-80204819D02*
X48107142Y-80204819D01*
X48107142Y-80204819D02*
X48249999Y-80252438D01*
X48249999Y-80252438D02*
X48297618Y-80300057D01*
X49202380Y-81204819D02*
X48726190Y-81204819D01*
X48726190Y-81204819D02*
X48726190Y-80204819D01*
X49535714Y-80681009D02*
X49869047Y-80681009D01*
X50011904Y-81204819D02*
X49535714Y-81204819D01*
X49535714Y-81204819D02*
X49535714Y-80204819D01*
X49535714Y-80204819D02*
X50011904Y-80204819D01*
X50392857Y-80919104D02*
X50869047Y-80919104D01*
X50297619Y-81204819D02*
X50630952Y-80204819D01*
X50630952Y-80204819D02*
X50964285Y-81204819D01*
X51869047Y-81204819D02*
X51535714Y-80728628D01*
X51297619Y-81204819D02*
X51297619Y-80204819D01*
X51297619Y-80204819D02*
X51678571Y-80204819D01*
X51678571Y-80204819D02*
X51773809Y-80252438D01*
X51773809Y-80252438D02*
X51821428Y-80300057D01*
X51821428Y-80300057D02*
X51869047Y-80395295D01*
X51869047Y-80395295D02*
X51869047Y-80538152D01*
X51869047Y-80538152D02*
X51821428Y-80633390D01*
X51821428Y-80633390D02*
X51773809Y-80681009D01*
X51773809Y-80681009D02*
X51678571Y-80728628D01*
X51678571Y-80728628D02*
X51297619Y-80728628D01*
X52821428Y-81204819D02*
X52250000Y-81204819D01*
X52535714Y-81204819D02*
X52535714Y-80204819D01*
X52535714Y-80204819D02*
X52440476Y-80347676D01*
X52440476Y-80347676D02*
X52345238Y-80442914D01*
X52345238Y-80442914D02*
X52250000Y-80490533D01*
%TO.C,C4*%
D12*
X67000000Y-85750000D02*
X72000000Y-85750000D01*
X72000000Y-88250000D01*
X67000000Y-88250000D01*
X67000000Y-85750000D01*
%TO.C,C3*%
X66500000Y-71750000D02*
X71500000Y-71750000D01*
X71500000Y-74250000D01*
X66500000Y-74250000D01*
X66500000Y-71750000D01*
%TO.C,READ1*%
X47250000Y-67750000D02*
X50250000Y-67750000D01*
X47250000Y-73750000D02*
X47250000Y-67750000D01*
X50250000Y-67750000D02*
X53250000Y-67750000D01*
X53250000Y-67750000D02*
X53250000Y-73750000D01*
X53250000Y-73750000D02*
X47250000Y-73750000D01*
X52265564Y-70750000D02*
G75*
G02*
X48234436Y-70750000I-2015564J0D01*
G01*
X48234436Y-70750000D02*
G75*
G02*
X52265564Y-70750000I2015564J0D01*
G01*
%TO.C,SW6*%
X47750000Y-87750000D02*
X50750000Y-87750000D01*
X47750000Y-93750000D02*
X47750000Y-87750000D01*
X50750000Y-87750000D02*
X53750000Y-87750000D01*
X53750000Y-87750000D02*
X53750000Y-93750000D01*
X53750000Y-93750000D02*
X47750000Y-93750000D01*
X52765564Y-90750000D02*
G75*
G02*
X48734436Y-90750000I-2015564J0D01*
G01*
X48734436Y-90750000D02*
G75*
G02*
X52765564Y-90750000I2015564J0D01*
G01*
%TO.C,C2*%
X66500000Y-50750000D02*
X71500000Y-50750000D01*
X71500000Y-53250000D01*
X66500000Y-53250000D01*
X66500000Y-50750000D01*
%TO.C,R2*%
X100190000Y-54000000D02*
X100850000Y-54000000D01*
X107810000Y-54000000D02*
X107150000Y-54000000D01*
X100850000Y-52750000D02*
X107150000Y-52750000D01*
X107150000Y-55250000D01*
X100850000Y-55250000D01*
X100850000Y-52750000D01*
%TO.C,Y1*%
X66435000Y-77675000D02*
X72685000Y-77675000D01*
X72685000Y-82325000D02*
X66435000Y-82325000D01*
X66435000Y-82325000D02*
G75*
G02*
X66435000Y-77675000I0J2325000D01*
G01*
X72685000Y-77675000D02*
G75*
G02*
X72685000Y-82325000I0J-2325000D01*
G01*
%TO.C,SAVE_LED1*%
X112230000Y-42530306D02*
X112230000Y-45469694D01*
X112230000Y-42530306D02*
G75*
G02*
X112230000Y-45469694I2500000J-1469694D01*
G01*
X117230000Y-44000000D02*
G75*
G02*
X112230000Y-44000000I-2500000J0D01*
G01*
X112230000Y-44000000D02*
G75*
G02*
X117230000Y-44000000I2500000J0D01*
G01*
%TO.C,DEC1*%
X47250000Y-47750000D02*
X50250000Y-47750000D01*
X47250000Y-53750000D02*
X47250000Y-47750000D01*
X50250000Y-47750000D02*
X53250000Y-47750000D01*
X53250000Y-47750000D02*
X53250000Y-53750000D01*
X53250000Y-53750000D02*
X47250000Y-53750000D01*
X52265564Y-50750000D02*
G75*
G02*
X48234436Y-50750000I-2015564J0D01*
G01*
X48234436Y-50750000D02*
G75*
G02*
X52265564Y-50750000I2015564J0D01*
G01*
%TO.C,C1*%
X101000000Y-70750000D02*
X106000000Y-70750000D01*
X106000000Y-73250000D01*
X101000000Y-73250000D01*
X101000000Y-70750000D01*
%TO.C,D1*%
X113230000Y-74530306D02*
X113230000Y-77469694D01*
X113230000Y-74530306D02*
G75*
G02*
X113230000Y-77469694I2500000J-1469694D01*
G01*
X118230000Y-76000000D02*
G75*
G02*
X113230000Y-76000000I-2500000J0D01*
G01*
X113230000Y-76000000D02*
G75*
G02*
X118230000Y-76000000I2500000J0D01*
G01*
%TO.C,C5*%
X66500000Y-57750000D02*
X71500000Y-57750000D01*
X71500000Y-60250000D01*
X66500000Y-60250000D01*
X66500000Y-57750000D01*
%TO.C,R4*%
X100190000Y-63000000D02*
X100850000Y-63000000D01*
X107810000Y-63000000D02*
X107150000Y-63000000D01*
X100850000Y-61750000D02*
X107150000Y-61750000D01*
X107150000Y-64250000D01*
X100850000Y-64250000D01*
X100850000Y-61750000D01*
%TO.C,J1*%
X68490000Y-95730000D02*
X109130000Y-95730000D01*
X68490000Y-97635000D02*
X68490000Y-95730000D01*
X69125000Y-98270000D02*
X68490000Y-97635000D01*
X109130000Y-95730000D02*
X109130000Y-98270000D01*
X109130000Y-98270000D02*
X69125000Y-98270000D01*
%TO.C,INC1*%
X47250000Y-36750000D02*
X50250000Y-36750000D01*
X47250000Y-42750000D02*
X47250000Y-36750000D01*
X50250000Y-36750000D02*
X53250000Y-36750000D01*
X53250000Y-36750000D02*
X53250000Y-42750000D01*
X53250000Y-42750000D02*
X47250000Y-42750000D01*
X52265564Y-39750000D02*
G75*
G02*
X48234436Y-39750000I-2015564J0D01*
G01*
X48234436Y-39750000D02*
G75*
G02*
X52265564Y-39750000I2015564J0D01*
G01*
%TO.C,RV1*%
X108732000Y-89320000D02*
X107205000Y-90847000D01*
X108865000Y-89453000D02*
X107338000Y-90980000D01*
X99775000Y-86590000D02*
X109305000Y-86590000D01*
X109305000Y-91420000D01*
X99775000Y-91420000D01*
X99775000Y-86590000D01*
X109130000Y-90150000D02*
G75*
G02*
X106940000Y-90150000I-1095000J0D01*
G01*
X106940000Y-90150000D02*
G75*
G02*
X109130000Y-90150000I1095000J0D01*
G01*
%TO.C,C6*%
X66500000Y-64750000D02*
X71500000Y-64750000D01*
X71500000Y-67250000D01*
X66500000Y-67250000D01*
X66500000Y-64750000D01*
%TO.C,R1*%
X100190000Y-44000000D02*
X100850000Y-44000000D01*
X107810000Y-44000000D02*
X107150000Y-44000000D01*
X100850000Y-42750000D02*
X107150000Y-42750000D01*
X107150000Y-45250000D01*
X100850000Y-45250000D01*
X100850000Y-42750000D01*
%TO.C,SAVE1*%
X47250000Y-57750000D02*
X50250000Y-57750000D01*
X47250000Y-63750000D02*
X47250000Y-57750000D01*
X50250000Y-57750000D02*
X53250000Y-57750000D01*
X53250000Y-57750000D02*
X53250000Y-63750000D01*
X53250000Y-63750000D02*
X47250000Y-63750000D01*
X52265564Y-60750000D02*
G75*
G02*
X48234436Y-60750000I-2015564J0D01*
G01*
X48234436Y-60750000D02*
G75*
G02*
X52265564Y-60750000I2015564J0D01*
G01*
%TO.C,ERROR_LED1*%
X112230000Y-52530306D02*
X112230000Y-55469694D01*
X112230000Y-52530306D02*
G75*
G02*
X112230000Y-55469694I2500000J-1469694D01*
G01*
X117230000Y-54000000D02*
G75*
G02*
X112230000Y-54000000I-2500000J0D01*
G01*
X112230000Y-54000000D02*
G75*
G02*
X117230000Y-54000000I2500000J0D01*
G01*
%TO.C,U1*%
X80015000Y-42510000D02*
X81015000Y-41510000D01*
X80015000Y-92310000D02*
X80015000Y-42510000D01*
X81015000Y-41510000D02*
X94745000Y-41510000D01*
X94745000Y-41510000D02*
X94745000Y-92310000D01*
X94745000Y-92310000D02*
X80015000Y-92310000D01*
%TO.C,BZ1*%
X128200000Y-70000000D02*
G75*
G02*
X126200000Y-70000000I-1000000J0D01*
G01*
X126200000Y-70000000D02*
G75*
G02*
X128200000Y-70000000I1000000J0D01*
G01*
X133200000Y-70000000D02*
G75*
G02*
X121200000Y-70000000I-6000000J0D01*
G01*
X121200000Y-70000000D02*
G75*
G02*
X133200000Y-70000000I6000000J0D01*
G01*
%TO.C,Q1*%
X113230000Y-64750000D02*
X116730000Y-64750000D01*
X113246375Y-64753625D02*
G75*
G02*
X115000000Y-60520000I1753625J1753625D01*
G01*
X115000000Y-60520000D02*
G75*
G02*
X116753625Y-64753625I0J-2480000D01*
G01*
%TO.C,R5*%
X72190000Y-102000000D02*
X72850000Y-102000000D01*
X79810000Y-102000000D02*
X79150000Y-102000000D01*
X72850000Y-100750000D02*
X79150000Y-100750000D01*
X79150000Y-103250000D01*
X72850000Y-103250000D01*
X72850000Y-100750000D01*
%TO.C,R3*%
X65000000Y-45000000D02*
X65660000Y-45000000D01*
X72620000Y-45000000D02*
X71960000Y-45000000D01*
X65660000Y-43750000D02*
X71960000Y-43750000D01*
X71960000Y-46250000D01*
X65660000Y-46250000D01*
X65660000Y-43750000D01*
%TO.C,CLEAR1*%
X47250000Y-77750000D02*
X50250000Y-77750000D01*
X47250000Y-83750000D02*
X47250000Y-77750000D01*
X50250000Y-77750000D02*
X53250000Y-77750000D01*
X53250000Y-77750000D02*
X53250000Y-83750000D01*
X53250000Y-83750000D02*
X47250000Y-83750000D01*
X52265564Y-80750000D02*
G75*
G02*
X48234436Y-80750000I-2015564J0D01*
G01*
X48234436Y-80750000D02*
G75*
G02*
X52265564Y-80750000I2015564J0D01*
G01*
%TD*%
M02*
