%TF.GenerationSoftware,KiCad,Pcbnew,10.0.3*%
%TF.CreationDate,2026-06-28T17:31:54+03:00*%
%TF.ProjectId,ATmega32_EEPROM_Storage,41546d65-6761-4333-925f-454550524f4d,rev?*%
%TF.SameCoordinates,Original*%
%TF.FileFunction,Legend,Top*%
%TF.FilePolarity,Positive*%
%FSLAX46Y46*%
G04 Gerber Fmt 4.6, Leading zero omitted, Abs format (unit mm)*
G04 Created by KiCad (PCBNEW 10.0.3) date 2026-06-28 17:31:54*
%MOMM*%
%LPD*%
G01*
G04 APERTURE LIST*
%ADD10C,0.150000*%
%ADD11C,0.120000*%
G04 APERTURE END LIST*
D10*
X69333333Y-84859580D02*
X69285714Y-84907200D01*
X69285714Y-84907200D02*
X69142857Y-84954819D01*
X69142857Y-84954819D02*
X69047619Y-84954819D01*
X69047619Y-84954819D02*
X68904762Y-84907200D01*
X68904762Y-84907200D02*
X68809524Y-84811961D01*
X68809524Y-84811961D02*
X68761905Y-84716723D01*
X68761905Y-84716723D02*
X68714286Y-84526247D01*
X68714286Y-84526247D02*
X68714286Y-84383390D01*
X68714286Y-84383390D02*
X68761905Y-84192914D01*
X68761905Y-84192914D02*
X68809524Y-84097676D01*
X68809524Y-84097676D02*
X68904762Y-84002438D01*
X68904762Y-84002438D02*
X69047619Y-83954819D01*
X69047619Y-83954819D02*
X69142857Y-83954819D01*
X69142857Y-83954819D02*
X69285714Y-84002438D01*
X69285714Y-84002438D02*
X69333333Y-84050057D01*
X70190476Y-84288152D02*
X70190476Y-84954819D01*
X69952381Y-83907200D02*
X69714286Y-84621485D01*
X69714286Y-84621485D02*
X70333333Y-84621485D01*
X68833333Y-70859580D02*
X68785714Y-70907200D01*
X68785714Y-70907200D02*
X68642857Y-70954819D01*
X68642857Y-70954819D02*
X68547619Y-70954819D01*
X68547619Y-70954819D02*
X68404762Y-70907200D01*
X68404762Y-70907200D02*
X68309524Y-70811961D01*
X68309524Y-70811961D02*
X68261905Y-70716723D01*
X68261905Y-70716723D02*
X68214286Y-70526247D01*
X68214286Y-70526247D02*
X68214286Y-70383390D01*
X68214286Y-70383390D02*
X68261905Y-70192914D01*
X68261905Y-70192914D02*
X68309524Y-70097676D01*
X68309524Y-70097676D02*
X68404762Y-70002438D01*
X68404762Y-70002438D02*
X68547619Y-69954819D01*
X68547619Y-69954819D02*
X68642857Y-69954819D01*
X68642857Y-69954819D02*
X68785714Y-70002438D01*
X68785714Y-70002438D02*
X68833333Y-70050057D01*
X69166667Y-69954819D02*
X69785714Y-69954819D01*
X69785714Y-69954819D02*
X69452381Y-70335771D01*
X69452381Y-70335771D02*
X69595238Y-70335771D01*
X69595238Y-70335771D02*
X69690476Y-70383390D01*
X69690476Y-70383390D02*
X69738095Y-70431009D01*
X69738095Y-70431009D02*
X69785714Y-70526247D01*
X69785714Y-70526247D02*
X69785714Y-70764342D01*
X69785714Y-70764342D02*
X69738095Y-70859580D01*
X69738095Y-70859580D02*
X69690476Y-70907200D01*
X69690476Y-70907200D02*
X69595238Y-70954819D01*
X69595238Y-70954819D02*
X69309524Y-70954819D01*
X69309524Y-70954819D02*
X69214286Y-70907200D01*
X69214286Y-70907200D02*
X69166667Y-70859580D01*
X48702380Y-66954819D02*
X48369047Y-66478628D01*
X48130952Y-66954819D02*
X48130952Y-65954819D01*
X48130952Y-65954819D02*
X48511904Y-65954819D01*
X48511904Y-65954819D02*
X48607142Y-66002438D01*
X48607142Y-66002438D02*
X48654761Y-66050057D01*
X48654761Y-66050057D02*
X48702380Y-66145295D01*
X48702380Y-66145295D02*
X48702380Y-66288152D01*
X48702380Y-66288152D02*
X48654761Y-66383390D01*
X48654761Y-66383390D02*
X48607142Y-66431009D01*
X48607142Y-66431009D02*
X48511904Y-66478628D01*
X48511904Y-66478628D02*
X48130952Y-66478628D01*
X49130952Y-66431009D02*
X49464285Y-66431009D01*
X49607142Y-66954819D02*
X49130952Y-66954819D01*
X49130952Y-66954819D02*
X49130952Y-65954819D01*
X49130952Y-65954819D02*
X49607142Y-65954819D01*
X49988095Y-66669104D02*
X50464285Y-66669104D01*
X49892857Y-66954819D02*
X50226190Y-65954819D01*
X50226190Y-65954819D02*
X50559523Y-66954819D01*
X50892857Y-66954819D02*
X50892857Y-65954819D01*
X50892857Y-65954819D02*
X51130952Y-65954819D01*
X51130952Y-65954819D02*
X51273809Y-66002438D01*
X51273809Y-66002438D02*
X51369047Y-66097676D01*
X51369047Y-66097676D02*
X51416666Y-66192914D01*
X51416666Y-66192914D02*
X51464285Y-66383390D01*
X51464285Y-66383390D02*
X51464285Y-66526247D01*
X51464285Y-66526247D02*
X51416666Y-66716723D01*
X51416666Y-66716723D02*
X51369047Y-66811961D01*
X51369047Y-66811961D02*
X51273809Y-66907200D01*
X51273809Y-66907200D02*
X51130952Y-66954819D01*
X51130952Y-66954819D02*
X50892857Y-66954819D01*
X52416666Y-66954819D02*
X51845238Y-66954819D01*
X52130952Y-66954819D02*
X52130952Y-65954819D01*
X52130952Y-65954819D02*
X52035714Y-66097676D01*
X52035714Y-66097676D02*
X51940476Y-66192914D01*
X51940476Y-66192914D02*
X51845238Y-66240533D01*
X49416667Y-86907200D02*
X49559524Y-86954819D01*
X49559524Y-86954819D02*
X49797619Y-86954819D01*
X49797619Y-86954819D02*
X49892857Y-86907200D01*
X49892857Y-86907200D02*
X49940476Y-86859580D01*
X49940476Y-86859580D02*
X49988095Y-86764342D01*
X49988095Y-86764342D02*
X49988095Y-86669104D01*
X49988095Y-86669104D02*
X49940476Y-86573866D01*
X49940476Y-86573866D02*
X49892857Y-86526247D01*
X49892857Y-86526247D02*
X49797619Y-86478628D01*
X49797619Y-86478628D02*
X49607143Y-86431009D01*
X49607143Y-86431009D02*
X49511905Y-86383390D01*
X49511905Y-86383390D02*
X49464286Y-86335771D01*
X49464286Y-86335771D02*
X49416667Y-86240533D01*
X49416667Y-86240533D02*
X49416667Y-86145295D01*
X49416667Y-86145295D02*
X49464286Y-86050057D01*
X49464286Y-86050057D02*
X49511905Y-86002438D01*
X49511905Y-86002438D02*
X49607143Y-85954819D01*
X49607143Y-85954819D02*
X49845238Y-85954819D01*
X49845238Y-85954819D02*
X49988095Y-86002438D01*
X50321429Y-85954819D02*
X50559524Y-86954819D01*
X50559524Y-86954819D02*
X50750000Y-86240533D01*
X50750000Y-86240533D02*
X50940476Y-86954819D01*
X50940476Y-86954819D02*
X51178572Y-85954819D01*
X51988095Y-85954819D02*
X51797619Y-85954819D01*
X51797619Y-85954819D02*
X51702381Y-86002438D01*
X51702381Y-86002438D02*
X51654762Y-86050057D01*
X51654762Y-86050057D02*
X51559524Y-86192914D01*
X51559524Y-86192914D02*
X51511905Y-86383390D01*
X51511905Y-86383390D02*
X51511905Y-86764342D01*
X51511905Y-86764342D02*
X51559524Y-86859580D01*
X51559524Y-86859580D02*
X51607143Y-86907200D01*
X51607143Y-86907200D02*
X51702381Y-86954819D01*
X51702381Y-86954819D02*
X51892857Y-86954819D01*
X51892857Y-86954819D02*
X51988095Y-86907200D01*
X51988095Y-86907200D02*
X52035714Y-86859580D01*
X52035714Y-86859580D02*
X52083333Y-86764342D01*
X52083333Y-86764342D02*
X52083333Y-86526247D01*
X52083333Y-86526247D02*
X52035714Y-86431009D01*
X52035714Y-86431009D02*
X51988095Y-86383390D01*
X51988095Y-86383390D02*
X51892857Y-86335771D01*
X51892857Y-86335771D02*
X51702381Y-86335771D01*
X51702381Y-86335771D02*
X51607143Y-86383390D01*
X51607143Y-86383390D02*
X51559524Y-86431009D01*
X51559524Y-86431009D02*
X51511905Y-86526247D01*
X68833333Y-49859580D02*
X68785714Y-49907200D01*
X68785714Y-49907200D02*
X68642857Y-49954819D01*
X68642857Y-49954819D02*
X68547619Y-49954819D01*
X68547619Y-49954819D02*
X68404762Y-49907200D01*
X68404762Y-49907200D02*
X68309524Y-49811961D01*
X68309524Y-49811961D02*
X68261905Y-49716723D01*
X68261905Y-49716723D02*
X68214286Y-49526247D01*
X68214286Y-49526247D02*
X68214286Y-49383390D01*
X68214286Y-49383390D02*
X68261905Y-49192914D01*
X68261905Y-49192914D02*
X68309524Y-49097676D01*
X68309524Y-49097676D02*
X68404762Y-49002438D01*
X68404762Y-49002438D02*
X68547619Y-48954819D01*
X68547619Y-48954819D02*
X68642857Y-48954819D01*
X68642857Y-48954819D02*
X68785714Y-49002438D01*
X68785714Y-49002438D02*
X68833333Y-49050057D01*
X69214286Y-49050057D02*
X69261905Y-49002438D01*
X69261905Y-49002438D02*
X69357143Y-48954819D01*
X69357143Y-48954819D02*
X69595238Y-48954819D01*
X69595238Y-48954819D02*
X69690476Y-49002438D01*
X69690476Y-49002438D02*
X69738095Y-49050057D01*
X69738095Y-49050057D02*
X69785714Y-49145295D01*
X69785714Y-49145295D02*
X69785714Y-49240533D01*
X69785714Y-49240533D02*
X69738095Y-49383390D01*
X69738095Y-49383390D02*
X69166667Y-49954819D01*
X69166667Y-49954819D02*
X69785714Y-49954819D01*
X103833333Y-52084819D02*
X103500000Y-51608628D01*
X103261905Y-52084819D02*
X103261905Y-51084819D01*
X103261905Y-51084819D02*
X103642857Y-51084819D01*
X103642857Y-51084819D02*
X103738095Y-51132438D01*
X103738095Y-51132438D02*
X103785714Y-51180057D01*
X103785714Y-51180057D02*
X103833333Y-51275295D01*
X103833333Y-51275295D02*
X103833333Y-51418152D01*
X103833333Y-51418152D02*
X103785714Y-51513390D01*
X103785714Y-51513390D02*
X103738095Y-51561009D01*
X103738095Y-51561009D02*
X103642857Y-51608628D01*
X103642857Y-51608628D02*
X103261905Y-51608628D01*
X104214286Y-51180057D02*
X104261905Y-51132438D01*
X104261905Y-51132438D02*
X104357143Y-51084819D01*
X104357143Y-51084819D02*
X104595238Y-51084819D01*
X104595238Y-51084819D02*
X104690476Y-51132438D01*
X104690476Y-51132438D02*
X104738095Y-51180057D01*
X104738095Y-51180057D02*
X104785714Y-51275295D01*
X104785714Y-51275295D02*
X104785714Y-51370533D01*
X104785714Y-51370533D02*
X104738095Y-51513390D01*
X104738095Y-51513390D02*
X104166667Y-52084819D01*
X104166667Y-52084819D02*
X104785714Y-52084819D01*
X69083809Y-76458628D02*
X69083809Y-76934819D01*
X68750476Y-75934819D02*
X69083809Y-76458628D01*
X69083809Y-76458628D02*
X69417142Y-75934819D01*
X70274285Y-76934819D02*
X69702857Y-76934819D01*
X69988571Y-76934819D02*
X69988571Y-75934819D01*
X69988571Y-75934819D02*
X69893333Y-76077676D01*
X69893333Y-76077676D02*
X69798095Y-76172914D01*
X69798095Y-76172914D02*
X69702857Y-76220533D01*
X110920476Y-40447200D02*
X111063333Y-40494819D01*
X111063333Y-40494819D02*
X111301428Y-40494819D01*
X111301428Y-40494819D02*
X111396666Y-40447200D01*
X111396666Y-40447200D02*
X111444285Y-40399580D01*
X111444285Y-40399580D02*
X111491904Y-40304342D01*
X111491904Y-40304342D02*
X111491904Y-40209104D01*
X111491904Y-40209104D02*
X111444285Y-40113866D01*
X111444285Y-40113866D02*
X111396666Y-40066247D01*
X111396666Y-40066247D02*
X111301428Y-40018628D01*
X111301428Y-40018628D02*
X111110952Y-39971009D01*
X111110952Y-39971009D02*
X111015714Y-39923390D01*
X111015714Y-39923390D02*
X110968095Y-39875771D01*
X110968095Y-39875771D02*
X110920476Y-39780533D01*
X110920476Y-39780533D02*
X110920476Y-39685295D01*
X110920476Y-39685295D02*
X110968095Y-39590057D01*
X110968095Y-39590057D02*
X111015714Y-39542438D01*
X111015714Y-39542438D02*
X111110952Y-39494819D01*
X111110952Y-39494819D02*
X111349047Y-39494819D01*
X111349047Y-39494819D02*
X111491904Y-39542438D01*
X111872857Y-40209104D02*
X112349047Y-40209104D01*
X111777619Y-40494819D02*
X112110952Y-39494819D01*
X112110952Y-39494819D02*
X112444285Y-40494819D01*
X112634762Y-39494819D02*
X112968095Y-40494819D01*
X112968095Y-40494819D02*
X113301428Y-39494819D01*
X113634762Y-39971009D02*
X113968095Y-39971009D01*
X114110952Y-40494819D02*
X113634762Y-40494819D01*
X113634762Y-40494819D02*
X113634762Y-39494819D01*
X113634762Y-39494819D02*
X114110952Y-39494819D01*
X114301429Y-40590057D02*
X115063333Y-40590057D01*
X115777619Y-40494819D02*
X115301429Y-40494819D01*
X115301429Y-40494819D02*
X115301429Y-39494819D01*
X116110953Y-39971009D02*
X116444286Y-39971009D01*
X116587143Y-40494819D02*
X116110953Y-40494819D01*
X116110953Y-40494819D02*
X116110953Y-39494819D01*
X116110953Y-39494819D02*
X116587143Y-39494819D01*
X117015715Y-40494819D02*
X117015715Y-39494819D01*
X117015715Y-39494819D02*
X117253810Y-39494819D01*
X117253810Y-39494819D02*
X117396667Y-39542438D01*
X117396667Y-39542438D02*
X117491905Y-39637676D01*
X117491905Y-39637676D02*
X117539524Y-39732914D01*
X117539524Y-39732914D02*
X117587143Y-39923390D01*
X117587143Y-39923390D02*
X117587143Y-40066247D01*
X117587143Y-40066247D02*
X117539524Y-40256723D01*
X117539524Y-40256723D02*
X117491905Y-40351961D01*
X117491905Y-40351961D02*
X117396667Y-40447200D01*
X117396667Y-40447200D02*
X117253810Y-40494819D01*
X117253810Y-40494819D02*
X117015715Y-40494819D01*
X118539524Y-40494819D02*
X117968096Y-40494819D01*
X118253810Y-40494819D02*
X118253810Y-39494819D01*
X118253810Y-39494819D02*
X118158572Y-39637676D01*
X118158572Y-39637676D02*
X118063334Y-39732914D01*
X118063334Y-39732914D02*
X117968096Y-39780533D01*
X48559524Y-46954819D02*
X48559524Y-45954819D01*
X48559524Y-45954819D02*
X48797619Y-45954819D01*
X48797619Y-45954819D02*
X48940476Y-46002438D01*
X48940476Y-46002438D02*
X49035714Y-46097676D01*
X49035714Y-46097676D02*
X49083333Y-46192914D01*
X49083333Y-46192914D02*
X49130952Y-46383390D01*
X49130952Y-46383390D02*
X49130952Y-46526247D01*
X49130952Y-46526247D02*
X49083333Y-46716723D01*
X49083333Y-46716723D02*
X49035714Y-46811961D01*
X49035714Y-46811961D02*
X48940476Y-46907200D01*
X48940476Y-46907200D02*
X48797619Y-46954819D01*
X48797619Y-46954819D02*
X48559524Y-46954819D01*
X49559524Y-46431009D02*
X49892857Y-46431009D01*
X50035714Y-46954819D02*
X49559524Y-46954819D01*
X49559524Y-46954819D02*
X49559524Y-45954819D01*
X49559524Y-45954819D02*
X50035714Y-45954819D01*
X51035714Y-46859580D02*
X50988095Y-46907200D01*
X50988095Y-46907200D02*
X50845238Y-46954819D01*
X50845238Y-46954819D02*
X50750000Y-46954819D01*
X50750000Y-46954819D02*
X50607143Y-46907200D01*
X50607143Y-46907200D02*
X50511905Y-46811961D01*
X50511905Y-46811961D02*
X50464286Y-46716723D01*
X50464286Y-46716723D02*
X50416667Y-46526247D01*
X50416667Y-46526247D02*
X50416667Y-46383390D01*
X50416667Y-46383390D02*
X50464286Y-46192914D01*
X50464286Y-46192914D02*
X50511905Y-46097676D01*
X50511905Y-46097676D02*
X50607143Y-46002438D01*
X50607143Y-46002438D02*
X50750000Y-45954819D01*
X50750000Y-45954819D02*
X50845238Y-45954819D01*
X50845238Y-45954819D02*
X50988095Y-46002438D01*
X50988095Y-46002438D02*
X51035714Y-46050057D01*
X51988095Y-46954819D02*
X51416667Y-46954819D01*
X51702381Y-46954819D02*
X51702381Y-45954819D01*
X51702381Y-45954819D02*
X51607143Y-46097676D01*
X51607143Y-46097676D02*
X51511905Y-46192914D01*
X51511905Y-46192914D02*
X51416667Y-46240533D01*
X103333333Y-69859580D02*
X103285714Y-69907200D01*
X103285714Y-69907200D02*
X103142857Y-69954819D01*
X103142857Y-69954819D02*
X103047619Y-69954819D01*
X103047619Y-69954819D02*
X102904762Y-69907200D01*
X102904762Y-69907200D02*
X102809524Y-69811961D01*
X102809524Y-69811961D02*
X102761905Y-69716723D01*
X102761905Y-69716723D02*
X102714286Y-69526247D01*
X102714286Y-69526247D02*
X102714286Y-69383390D01*
X102714286Y-69383390D02*
X102761905Y-69192914D01*
X102761905Y-69192914D02*
X102809524Y-69097676D01*
X102809524Y-69097676D02*
X102904762Y-69002438D01*
X102904762Y-69002438D02*
X103047619Y-68954819D01*
X103047619Y-68954819D02*
X103142857Y-68954819D01*
X103142857Y-68954819D02*
X103285714Y-69002438D01*
X103285714Y-69002438D02*
X103333333Y-69050057D01*
X104285714Y-69954819D02*
X103714286Y-69954819D01*
X104000000Y-69954819D02*
X104000000Y-68954819D01*
X104000000Y-68954819D02*
X103904762Y-69097676D01*
X103904762Y-69097676D02*
X103809524Y-69192914D01*
X103809524Y-69192914D02*
X103714286Y-69240533D01*
X114991905Y-72494819D02*
X114991905Y-71494819D01*
X114991905Y-71494819D02*
X115230000Y-71494819D01*
X115230000Y-71494819D02*
X115372857Y-71542438D01*
X115372857Y-71542438D02*
X115468095Y-71637676D01*
X115468095Y-71637676D02*
X115515714Y-71732914D01*
X115515714Y-71732914D02*
X115563333Y-71923390D01*
X115563333Y-71923390D02*
X115563333Y-72066247D01*
X115563333Y-72066247D02*
X115515714Y-72256723D01*
X115515714Y-72256723D02*
X115468095Y-72351961D01*
X115468095Y-72351961D02*
X115372857Y-72447200D01*
X115372857Y-72447200D02*
X115230000Y-72494819D01*
X115230000Y-72494819D02*
X114991905Y-72494819D01*
X116515714Y-72494819D02*
X115944286Y-72494819D01*
X116230000Y-72494819D02*
X116230000Y-71494819D01*
X116230000Y-71494819D02*
X116134762Y-71637676D01*
X116134762Y-71637676D02*
X116039524Y-71732914D01*
X116039524Y-71732914D02*
X115944286Y-71780533D01*
X68833333Y-56859580D02*
X68785714Y-56907200D01*
X68785714Y-56907200D02*
X68642857Y-56954819D01*
X68642857Y-56954819D02*
X68547619Y-56954819D01*
X68547619Y-56954819D02*
X68404762Y-56907200D01*
X68404762Y-56907200D02*
X68309524Y-56811961D01*
X68309524Y-56811961D02*
X68261905Y-56716723D01*
X68261905Y-56716723D02*
X68214286Y-56526247D01*
X68214286Y-56526247D02*
X68214286Y-56383390D01*
X68214286Y-56383390D02*
X68261905Y-56192914D01*
X68261905Y-56192914D02*
X68309524Y-56097676D01*
X68309524Y-56097676D02*
X68404762Y-56002438D01*
X68404762Y-56002438D02*
X68547619Y-55954819D01*
X68547619Y-55954819D02*
X68642857Y-55954819D01*
X68642857Y-55954819D02*
X68785714Y-56002438D01*
X68785714Y-56002438D02*
X68833333Y-56050057D01*
X69738095Y-55954819D02*
X69261905Y-55954819D01*
X69261905Y-55954819D02*
X69214286Y-56431009D01*
X69214286Y-56431009D02*
X69261905Y-56383390D01*
X69261905Y-56383390D02*
X69357143Y-56335771D01*
X69357143Y-56335771D02*
X69595238Y-56335771D01*
X69595238Y-56335771D02*
X69690476Y-56383390D01*
X69690476Y-56383390D02*
X69738095Y-56431009D01*
X69738095Y-56431009D02*
X69785714Y-56526247D01*
X69785714Y-56526247D02*
X69785714Y-56764342D01*
X69785714Y-56764342D02*
X69738095Y-56859580D01*
X69738095Y-56859580D02*
X69690476Y-56907200D01*
X69690476Y-56907200D02*
X69595238Y-56954819D01*
X69595238Y-56954819D02*
X69357143Y-56954819D01*
X69357143Y-56954819D02*
X69261905Y-56907200D01*
X69261905Y-56907200D02*
X69214286Y-56859580D01*
X103833333Y-61084819D02*
X103500000Y-60608628D01*
X103261905Y-61084819D02*
X103261905Y-60084819D01*
X103261905Y-60084819D02*
X103642857Y-60084819D01*
X103642857Y-60084819D02*
X103738095Y-60132438D01*
X103738095Y-60132438D02*
X103785714Y-60180057D01*
X103785714Y-60180057D02*
X103833333Y-60275295D01*
X103833333Y-60275295D02*
X103833333Y-60418152D01*
X103833333Y-60418152D02*
X103785714Y-60513390D01*
X103785714Y-60513390D02*
X103738095Y-60561009D01*
X103738095Y-60561009D02*
X103642857Y-60608628D01*
X103642857Y-60608628D02*
X103261905Y-60608628D01*
X104690476Y-60418152D02*
X104690476Y-61084819D01*
X104452381Y-60037200D02*
X104214286Y-60751485D01*
X104214286Y-60751485D02*
X104833333Y-60751485D01*
X66834819Y-97333333D02*
X67549104Y-97333333D01*
X67549104Y-97333333D02*
X67691961Y-97380952D01*
X67691961Y-97380952D02*
X67787200Y-97476190D01*
X67787200Y-97476190D02*
X67834819Y-97619047D01*
X67834819Y-97619047D02*
X67834819Y-97714285D01*
X67834819Y-96333333D02*
X67834819Y-96904761D01*
X67834819Y-96619047D02*
X66834819Y-96619047D01*
X66834819Y-96619047D02*
X66977676Y-96714285D01*
X66977676Y-96714285D02*
X67072914Y-96809523D01*
X67072914Y-96809523D02*
X67120533Y-96904761D01*
X48750000Y-35954819D02*
X48750000Y-34954819D01*
X49226190Y-35954819D02*
X49226190Y-34954819D01*
X49226190Y-34954819D02*
X49797618Y-35954819D01*
X49797618Y-35954819D02*
X49797618Y-34954819D01*
X50845237Y-35859580D02*
X50797618Y-35907200D01*
X50797618Y-35907200D02*
X50654761Y-35954819D01*
X50654761Y-35954819D02*
X50559523Y-35954819D01*
X50559523Y-35954819D02*
X50416666Y-35907200D01*
X50416666Y-35907200D02*
X50321428Y-35811961D01*
X50321428Y-35811961D02*
X50273809Y-35716723D01*
X50273809Y-35716723D02*
X50226190Y-35526247D01*
X50226190Y-35526247D02*
X50226190Y-35383390D01*
X50226190Y-35383390D02*
X50273809Y-35192914D01*
X50273809Y-35192914D02*
X50321428Y-35097676D01*
X50321428Y-35097676D02*
X50416666Y-35002438D01*
X50416666Y-35002438D02*
X50559523Y-34954819D01*
X50559523Y-34954819D02*
X50654761Y-34954819D01*
X50654761Y-34954819D02*
X50797618Y-35002438D01*
X50797618Y-35002438D02*
X50845237Y-35050057D01*
X51797618Y-35954819D02*
X51226190Y-35954819D01*
X51511904Y-35954819D02*
X51511904Y-34954819D01*
X51511904Y-34954819D02*
X51416666Y-35097676D01*
X51416666Y-35097676D02*
X51321428Y-35192914D01*
X51321428Y-35192914D02*
X51226190Y-35240533D01*
X103944761Y-85794819D02*
X103611428Y-85318628D01*
X103373333Y-85794819D02*
X103373333Y-84794819D01*
X103373333Y-84794819D02*
X103754285Y-84794819D01*
X103754285Y-84794819D02*
X103849523Y-84842438D01*
X103849523Y-84842438D02*
X103897142Y-84890057D01*
X103897142Y-84890057D02*
X103944761Y-84985295D01*
X103944761Y-84985295D02*
X103944761Y-85128152D01*
X103944761Y-85128152D02*
X103897142Y-85223390D01*
X103897142Y-85223390D02*
X103849523Y-85271009D01*
X103849523Y-85271009D02*
X103754285Y-85318628D01*
X103754285Y-85318628D02*
X103373333Y-85318628D01*
X104230476Y-84794819D02*
X104563809Y-85794819D01*
X104563809Y-85794819D02*
X104897142Y-84794819D01*
X105754285Y-85794819D02*
X105182857Y-85794819D01*
X105468571Y-85794819D02*
X105468571Y-84794819D01*
X105468571Y-84794819D02*
X105373333Y-84937676D01*
X105373333Y-84937676D02*
X105278095Y-85032914D01*
X105278095Y-85032914D02*
X105182857Y-85080533D01*
X68833333Y-63859580D02*
X68785714Y-63907200D01*
X68785714Y-63907200D02*
X68642857Y-63954819D01*
X68642857Y-63954819D02*
X68547619Y-63954819D01*
X68547619Y-63954819D02*
X68404762Y-63907200D01*
X68404762Y-63907200D02*
X68309524Y-63811961D01*
X68309524Y-63811961D02*
X68261905Y-63716723D01*
X68261905Y-63716723D02*
X68214286Y-63526247D01*
X68214286Y-63526247D02*
X68214286Y-63383390D01*
X68214286Y-63383390D02*
X68261905Y-63192914D01*
X68261905Y-63192914D02*
X68309524Y-63097676D01*
X68309524Y-63097676D02*
X68404762Y-63002438D01*
X68404762Y-63002438D02*
X68547619Y-62954819D01*
X68547619Y-62954819D02*
X68642857Y-62954819D01*
X68642857Y-62954819D02*
X68785714Y-63002438D01*
X68785714Y-63002438D02*
X68833333Y-63050057D01*
X69690476Y-62954819D02*
X69500000Y-62954819D01*
X69500000Y-62954819D02*
X69404762Y-63002438D01*
X69404762Y-63002438D02*
X69357143Y-63050057D01*
X69357143Y-63050057D02*
X69261905Y-63192914D01*
X69261905Y-63192914D02*
X69214286Y-63383390D01*
X69214286Y-63383390D02*
X69214286Y-63764342D01*
X69214286Y-63764342D02*
X69261905Y-63859580D01*
X69261905Y-63859580D02*
X69309524Y-63907200D01*
X69309524Y-63907200D02*
X69404762Y-63954819D01*
X69404762Y-63954819D02*
X69595238Y-63954819D01*
X69595238Y-63954819D02*
X69690476Y-63907200D01*
X69690476Y-63907200D02*
X69738095Y-63859580D01*
X69738095Y-63859580D02*
X69785714Y-63764342D01*
X69785714Y-63764342D02*
X69785714Y-63526247D01*
X69785714Y-63526247D02*
X69738095Y-63431009D01*
X69738095Y-63431009D02*
X69690476Y-63383390D01*
X69690476Y-63383390D02*
X69595238Y-63335771D01*
X69595238Y-63335771D02*
X69404762Y-63335771D01*
X69404762Y-63335771D02*
X69309524Y-63383390D01*
X69309524Y-63383390D02*
X69261905Y-63431009D01*
X69261905Y-63431009D02*
X69214286Y-63526247D01*
X103833333Y-42084819D02*
X103500000Y-41608628D01*
X103261905Y-42084819D02*
X103261905Y-41084819D01*
X103261905Y-41084819D02*
X103642857Y-41084819D01*
X103642857Y-41084819D02*
X103738095Y-41132438D01*
X103738095Y-41132438D02*
X103785714Y-41180057D01*
X103785714Y-41180057D02*
X103833333Y-41275295D01*
X103833333Y-41275295D02*
X103833333Y-41418152D01*
X103833333Y-41418152D02*
X103785714Y-41513390D01*
X103785714Y-41513390D02*
X103738095Y-41561009D01*
X103738095Y-41561009D02*
X103642857Y-41608628D01*
X103642857Y-41608628D02*
X103261905Y-41608628D01*
X104785714Y-42084819D02*
X104214286Y-42084819D01*
X104500000Y-42084819D02*
X104500000Y-41084819D01*
X104500000Y-41084819D02*
X104404762Y-41227676D01*
X104404762Y-41227676D02*
X104309524Y-41322914D01*
X104309524Y-41322914D02*
X104214286Y-41370533D01*
X48178571Y-56907200D02*
X48321428Y-56954819D01*
X48321428Y-56954819D02*
X48559523Y-56954819D01*
X48559523Y-56954819D02*
X48654761Y-56907200D01*
X48654761Y-56907200D02*
X48702380Y-56859580D01*
X48702380Y-56859580D02*
X48749999Y-56764342D01*
X48749999Y-56764342D02*
X48749999Y-56669104D01*
X48749999Y-56669104D02*
X48702380Y-56573866D01*
X48702380Y-56573866D02*
X48654761Y-56526247D01*
X48654761Y-56526247D02*
X48559523Y-56478628D01*
X48559523Y-56478628D02*
X48369047Y-56431009D01*
X48369047Y-56431009D02*
X48273809Y-56383390D01*
X48273809Y-56383390D02*
X48226190Y-56335771D01*
X48226190Y-56335771D02*
X48178571Y-56240533D01*
X48178571Y-56240533D02*
X48178571Y-56145295D01*
X48178571Y-56145295D02*
X48226190Y-56050057D01*
X48226190Y-56050057D02*
X48273809Y-56002438D01*
X48273809Y-56002438D02*
X48369047Y-55954819D01*
X48369047Y-55954819D02*
X48607142Y-55954819D01*
X48607142Y-55954819D02*
X48749999Y-56002438D01*
X49130952Y-56669104D02*
X49607142Y-56669104D01*
X49035714Y-56954819D02*
X49369047Y-55954819D01*
X49369047Y-55954819D02*
X49702380Y-56954819D01*
X49892857Y-55954819D02*
X50226190Y-56954819D01*
X50226190Y-56954819D02*
X50559523Y-55954819D01*
X50892857Y-56431009D02*
X51226190Y-56431009D01*
X51369047Y-56954819D02*
X50892857Y-56954819D01*
X50892857Y-56954819D02*
X50892857Y-55954819D01*
X50892857Y-55954819D02*
X51369047Y-55954819D01*
X52321428Y-56954819D02*
X51750000Y-56954819D01*
X52035714Y-56954819D02*
X52035714Y-55954819D01*
X52035714Y-55954819D02*
X51940476Y-56097676D01*
X51940476Y-56097676D02*
X51845238Y-56192914D01*
X51845238Y-56192914D02*
X51750000Y-56240533D01*
X110277619Y-49971009D02*
X110610952Y-49971009D01*
X110753809Y-50494819D02*
X110277619Y-50494819D01*
X110277619Y-50494819D02*
X110277619Y-49494819D01*
X110277619Y-49494819D02*
X110753809Y-49494819D01*
X111753809Y-50494819D02*
X111420476Y-50018628D01*
X111182381Y-50494819D02*
X111182381Y-49494819D01*
X111182381Y-49494819D02*
X111563333Y-49494819D01*
X111563333Y-49494819D02*
X111658571Y-49542438D01*
X111658571Y-49542438D02*
X111706190Y-49590057D01*
X111706190Y-49590057D02*
X111753809Y-49685295D01*
X111753809Y-49685295D02*
X111753809Y-49828152D01*
X111753809Y-49828152D02*
X111706190Y-49923390D01*
X111706190Y-49923390D02*
X111658571Y-49971009D01*
X111658571Y-49971009D02*
X111563333Y-50018628D01*
X111563333Y-50018628D02*
X111182381Y-50018628D01*
X112753809Y-50494819D02*
X112420476Y-50018628D01*
X112182381Y-50494819D02*
X112182381Y-49494819D01*
X112182381Y-49494819D02*
X112563333Y-49494819D01*
X112563333Y-49494819D02*
X112658571Y-49542438D01*
X112658571Y-49542438D02*
X112706190Y-49590057D01*
X112706190Y-49590057D02*
X112753809Y-49685295D01*
X112753809Y-49685295D02*
X112753809Y-49828152D01*
X112753809Y-49828152D02*
X112706190Y-49923390D01*
X112706190Y-49923390D02*
X112658571Y-49971009D01*
X112658571Y-49971009D02*
X112563333Y-50018628D01*
X112563333Y-50018628D02*
X112182381Y-50018628D01*
X113372857Y-49494819D02*
X113563333Y-49494819D01*
X113563333Y-49494819D02*
X113658571Y-49542438D01*
X113658571Y-49542438D02*
X113753809Y-49637676D01*
X113753809Y-49637676D02*
X113801428Y-49828152D01*
X113801428Y-49828152D02*
X113801428Y-50161485D01*
X113801428Y-50161485D02*
X113753809Y-50351961D01*
X113753809Y-50351961D02*
X113658571Y-50447200D01*
X113658571Y-50447200D02*
X113563333Y-50494819D01*
X113563333Y-50494819D02*
X113372857Y-50494819D01*
X113372857Y-50494819D02*
X113277619Y-50447200D01*
X113277619Y-50447200D02*
X113182381Y-50351961D01*
X113182381Y-50351961D02*
X113134762Y-50161485D01*
X113134762Y-50161485D02*
X113134762Y-49828152D01*
X113134762Y-49828152D02*
X113182381Y-49637676D01*
X113182381Y-49637676D02*
X113277619Y-49542438D01*
X113277619Y-49542438D02*
X113372857Y-49494819D01*
X114801428Y-50494819D02*
X114468095Y-50018628D01*
X114230000Y-50494819D02*
X114230000Y-49494819D01*
X114230000Y-49494819D02*
X114610952Y-49494819D01*
X114610952Y-49494819D02*
X114706190Y-49542438D01*
X114706190Y-49542438D02*
X114753809Y-49590057D01*
X114753809Y-49590057D02*
X114801428Y-49685295D01*
X114801428Y-49685295D02*
X114801428Y-49828152D01*
X114801428Y-49828152D02*
X114753809Y-49923390D01*
X114753809Y-49923390D02*
X114706190Y-49971009D01*
X114706190Y-49971009D02*
X114610952Y-50018628D01*
X114610952Y-50018628D02*
X114230000Y-50018628D01*
X114991905Y-50590057D02*
X115753809Y-50590057D01*
X116468095Y-50494819D02*
X115991905Y-50494819D01*
X115991905Y-50494819D02*
X115991905Y-49494819D01*
X116801429Y-49971009D02*
X117134762Y-49971009D01*
X117277619Y-50494819D02*
X116801429Y-50494819D01*
X116801429Y-50494819D02*
X116801429Y-49494819D01*
X116801429Y-49494819D02*
X117277619Y-49494819D01*
X117706191Y-50494819D02*
X117706191Y-49494819D01*
X117706191Y-49494819D02*
X117944286Y-49494819D01*
X117944286Y-49494819D02*
X118087143Y-49542438D01*
X118087143Y-49542438D02*
X118182381Y-49637676D01*
X118182381Y-49637676D02*
X118230000Y-49732914D01*
X118230000Y-49732914D02*
X118277619Y-49923390D01*
X118277619Y-49923390D02*
X118277619Y-50066247D01*
X118277619Y-50066247D02*
X118230000Y-50256723D01*
X118230000Y-50256723D02*
X118182381Y-50351961D01*
X118182381Y-50351961D02*
X118087143Y-50447200D01*
X118087143Y-50447200D02*
X117944286Y-50494819D01*
X117944286Y-50494819D02*
X117706191Y-50494819D01*
X119230000Y-50494819D02*
X118658572Y-50494819D01*
X118944286Y-50494819D02*
X118944286Y-49494819D01*
X118944286Y-49494819D02*
X118849048Y-49637676D01*
X118849048Y-49637676D02*
X118753810Y-49732914D01*
X118753810Y-49732914D02*
X118658572Y-49780533D01*
X86618095Y-39904819D02*
X86618095Y-40714342D01*
X86618095Y-40714342D02*
X86665714Y-40809580D01*
X86665714Y-40809580D02*
X86713333Y-40857200D01*
X86713333Y-40857200D02*
X86808571Y-40904819D01*
X86808571Y-40904819D02*
X86999047Y-40904819D01*
X86999047Y-40904819D02*
X87094285Y-40857200D01*
X87094285Y-40857200D02*
X87141904Y-40809580D01*
X87141904Y-40809580D02*
X87189523Y-40714342D01*
X87189523Y-40714342D02*
X87189523Y-39904819D01*
X88189523Y-40904819D02*
X87618095Y-40904819D01*
X87903809Y-40904819D02*
X87903809Y-39904819D01*
X87903809Y-39904819D02*
X87808571Y-40047676D01*
X87808571Y-40047676D02*
X87713333Y-40142914D01*
X87713333Y-40142914D02*
X87618095Y-40190533D01*
X126319047Y-62731009D02*
X126461904Y-62778628D01*
X126461904Y-62778628D02*
X126509523Y-62826247D01*
X126509523Y-62826247D02*
X126557142Y-62921485D01*
X126557142Y-62921485D02*
X126557142Y-63064342D01*
X126557142Y-63064342D02*
X126509523Y-63159580D01*
X126509523Y-63159580D02*
X126461904Y-63207200D01*
X126461904Y-63207200D02*
X126366666Y-63254819D01*
X126366666Y-63254819D02*
X125985714Y-63254819D01*
X125985714Y-63254819D02*
X125985714Y-62254819D01*
X125985714Y-62254819D02*
X126319047Y-62254819D01*
X126319047Y-62254819D02*
X126414285Y-62302438D01*
X126414285Y-62302438D02*
X126461904Y-62350057D01*
X126461904Y-62350057D02*
X126509523Y-62445295D01*
X126509523Y-62445295D02*
X126509523Y-62540533D01*
X126509523Y-62540533D02*
X126461904Y-62635771D01*
X126461904Y-62635771D02*
X126414285Y-62683390D01*
X126414285Y-62683390D02*
X126319047Y-62731009D01*
X126319047Y-62731009D02*
X125985714Y-62731009D01*
X126890476Y-62254819D02*
X127557142Y-62254819D01*
X127557142Y-62254819D02*
X126890476Y-63254819D01*
X126890476Y-63254819D02*
X127557142Y-63254819D01*
X128461904Y-63254819D02*
X127890476Y-63254819D01*
X128176190Y-63254819D02*
X128176190Y-62254819D01*
X128176190Y-62254819D02*
X128080952Y-62397676D01*
X128080952Y-62397676D02*
X127985714Y-62492914D01*
X127985714Y-62492914D02*
X127890476Y-62540533D01*
X123009048Y-67533866D02*
X123770953Y-67533866D01*
X123390000Y-67914819D02*
X123390000Y-67152914D01*
X114904761Y-59990057D02*
X114809523Y-59942438D01*
X114809523Y-59942438D02*
X114714285Y-59847200D01*
X114714285Y-59847200D02*
X114571428Y-59704342D01*
X114571428Y-59704342D02*
X114476190Y-59656723D01*
X114476190Y-59656723D02*
X114380952Y-59656723D01*
X114428571Y-59894819D02*
X114333333Y-59847200D01*
X114333333Y-59847200D02*
X114238095Y-59751961D01*
X114238095Y-59751961D02*
X114190476Y-59561485D01*
X114190476Y-59561485D02*
X114190476Y-59228152D01*
X114190476Y-59228152D02*
X114238095Y-59037676D01*
X114238095Y-59037676D02*
X114333333Y-58942438D01*
X114333333Y-58942438D02*
X114428571Y-58894819D01*
X114428571Y-58894819D02*
X114619047Y-58894819D01*
X114619047Y-58894819D02*
X114714285Y-58942438D01*
X114714285Y-58942438D02*
X114809523Y-59037676D01*
X114809523Y-59037676D02*
X114857142Y-59228152D01*
X114857142Y-59228152D02*
X114857142Y-59561485D01*
X114857142Y-59561485D02*
X114809523Y-59751961D01*
X114809523Y-59751961D02*
X114714285Y-59847200D01*
X114714285Y-59847200D02*
X114619047Y-59894819D01*
X114619047Y-59894819D02*
X114428571Y-59894819D01*
X115809523Y-59894819D02*
X115238095Y-59894819D01*
X115523809Y-59894819D02*
X115523809Y-58894819D01*
X115523809Y-58894819D02*
X115428571Y-59037676D01*
X115428571Y-59037676D02*
X115333333Y-59132914D01*
X115333333Y-59132914D02*
X115238095Y-59180533D01*
X75833333Y-100084819D02*
X75500000Y-99608628D01*
X75261905Y-100084819D02*
X75261905Y-99084819D01*
X75261905Y-99084819D02*
X75642857Y-99084819D01*
X75642857Y-99084819D02*
X75738095Y-99132438D01*
X75738095Y-99132438D02*
X75785714Y-99180057D01*
X75785714Y-99180057D02*
X75833333Y-99275295D01*
X75833333Y-99275295D02*
X75833333Y-99418152D01*
X75833333Y-99418152D02*
X75785714Y-99513390D01*
X75785714Y-99513390D02*
X75738095Y-99561009D01*
X75738095Y-99561009D02*
X75642857Y-99608628D01*
X75642857Y-99608628D02*
X75261905Y-99608628D01*
X76738095Y-99084819D02*
X76261905Y-99084819D01*
X76261905Y-99084819D02*
X76214286Y-99561009D01*
X76214286Y-99561009D02*
X76261905Y-99513390D01*
X76261905Y-99513390D02*
X76357143Y-99465771D01*
X76357143Y-99465771D02*
X76595238Y-99465771D01*
X76595238Y-99465771D02*
X76690476Y-99513390D01*
X76690476Y-99513390D02*
X76738095Y-99561009D01*
X76738095Y-99561009D02*
X76785714Y-99656247D01*
X76785714Y-99656247D02*
X76785714Y-99894342D01*
X76785714Y-99894342D02*
X76738095Y-99989580D01*
X76738095Y-99989580D02*
X76690476Y-100037200D01*
X76690476Y-100037200D02*
X76595238Y-100084819D01*
X76595238Y-100084819D02*
X76357143Y-100084819D01*
X76357143Y-100084819D02*
X76261905Y-100037200D01*
X76261905Y-100037200D02*
X76214286Y-99989580D01*
X68643333Y-43084819D02*
X68310000Y-42608628D01*
X68071905Y-43084819D02*
X68071905Y-42084819D01*
X68071905Y-42084819D02*
X68452857Y-42084819D01*
X68452857Y-42084819D02*
X68548095Y-42132438D01*
X68548095Y-42132438D02*
X68595714Y-42180057D01*
X68595714Y-42180057D02*
X68643333Y-42275295D01*
X68643333Y-42275295D02*
X68643333Y-42418152D01*
X68643333Y-42418152D02*
X68595714Y-42513390D01*
X68595714Y-42513390D02*
X68548095Y-42561009D01*
X68548095Y-42561009D02*
X68452857Y-42608628D01*
X68452857Y-42608628D02*
X68071905Y-42608628D01*
X68976667Y-42084819D02*
X69595714Y-42084819D01*
X69595714Y-42084819D02*
X69262381Y-42465771D01*
X69262381Y-42465771D02*
X69405238Y-42465771D01*
X69405238Y-42465771D02*
X69500476Y-42513390D01*
X69500476Y-42513390D02*
X69548095Y-42561009D01*
X69548095Y-42561009D02*
X69595714Y-42656247D01*
X69595714Y-42656247D02*
X69595714Y-42894342D01*
X69595714Y-42894342D02*
X69548095Y-42989580D01*
X69548095Y-42989580D02*
X69500476Y-43037200D01*
X69500476Y-43037200D02*
X69405238Y-43084819D01*
X69405238Y-43084819D02*
X69119524Y-43084819D01*
X69119524Y-43084819D02*
X69024286Y-43037200D01*
X69024286Y-43037200D02*
X68976667Y-42989580D01*
X48297618Y-76859580D02*
X48249999Y-76907200D01*
X48249999Y-76907200D02*
X48107142Y-76954819D01*
X48107142Y-76954819D02*
X48011904Y-76954819D01*
X48011904Y-76954819D02*
X47869047Y-76907200D01*
X47869047Y-76907200D02*
X47773809Y-76811961D01*
X47773809Y-76811961D02*
X47726190Y-76716723D01*
X47726190Y-76716723D02*
X47678571Y-76526247D01*
X47678571Y-76526247D02*
X47678571Y-76383390D01*
X47678571Y-76383390D02*
X47726190Y-76192914D01*
X47726190Y-76192914D02*
X47773809Y-76097676D01*
X47773809Y-76097676D02*
X47869047Y-76002438D01*
X47869047Y-76002438D02*
X48011904Y-75954819D01*
X48011904Y-75954819D02*
X48107142Y-75954819D01*
X48107142Y-75954819D02*
X48249999Y-76002438D01*
X48249999Y-76002438D02*
X48297618Y-76050057D01*
X49202380Y-76954819D02*
X48726190Y-76954819D01*
X48726190Y-76954819D02*
X48726190Y-75954819D01*
X49535714Y-76431009D02*
X49869047Y-76431009D01*
X50011904Y-76954819D02*
X49535714Y-76954819D01*
X49535714Y-76954819D02*
X49535714Y-75954819D01*
X49535714Y-75954819D02*
X50011904Y-75954819D01*
X50392857Y-76669104D02*
X50869047Y-76669104D01*
X50297619Y-76954819D02*
X50630952Y-75954819D01*
X50630952Y-75954819D02*
X50964285Y-76954819D01*
X51869047Y-76954819D02*
X51535714Y-76478628D01*
X51297619Y-76954819D02*
X51297619Y-75954819D01*
X51297619Y-75954819D02*
X51678571Y-75954819D01*
X51678571Y-75954819D02*
X51773809Y-76002438D01*
X51773809Y-76002438D02*
X51821428Y-76050057D01*
X51821428Y-76050057D02*
X51869047Y-76145295D01*
X51869047Y-76145295D02*
X51869047Y-76288152D01*
X51869047Y-76288152D02*
X51821428Y-76383390D01*
X51821428Y-76383390D02*
X51773809Y-76431009D01*
X51773809Y-76431009D02*
X51678571Y-76478628D01*
X51678571Y-76478628D02*
X51297619Y-76478628D01*
X52821428Y-76954819D02*
X52250000Y-76954819D01*
X52535714Y-76954819D02*
X52535714Y-75954819D01*
X52535714Y-75954819D02*
X52440476Y-76097676D01*
X52440476Y-76097676D02*
X52345238Y-76192914D01*
X52345238Y-76192914D02*
X52250000Y-76240533D01*
%TO.C,C4*%
D11*
X66880000Y-85630000D02*
X72120000Y-85630000D01*
X66880000Y-85967000D02*
X66880000Y-85630000D01*
X66880000Y-88370000D02*
X66880000Y-88033000D01*
X72120000Y-85630000D02*
X72120000Y-85967000D01*
X72120000Y-88033000D02*
X72120000Y-88370000D01*
X72120000Y-88370000D02*
X66880000Y-88370000D01*
%TO.C,C3*%
X66380000Y-71630000D02*
X71620000Y-71630000D01*
X66380000Y-71967000D02*
X66380000Y-71630000D01*
X66380000Y-74370000D02*
X66380000Y-74033000D01*
X71620000Y-71630000D02*
X71620000Y-71967000D01*
X71620000Y-74033000D02*
X71620000Y-74370000D01*
X71620000Y-74370000D02*
X66380000Y-74370000D01*
%TO.C,READ1*%
X46750000Y-70000000D02*
X46750000Y-71500000D01*
X48000000Y-74000000D02*
X52500000Y-74000000D01*
X52500000Y-67500000D02*
X48000000Y-67500000D01*
X53750000Y-71500000D02*
X53750000Y-70000000D01*
%TO.C,SW6*%
X47250000Y-90000000D02*
X47250000Y-91500000D01*
X48500000Y-94000000D02*
X53000000Y-94000000D01*
X53000000Y-87500000D02*
X48500000Y-87500000D01*
X54250000Y-91500000D02*
X54250000Y-90000000D01*
%TO.C,C2*%
X66380000Y-50630000D02*
X71620000Y-50630000D01*
X66380000Y-50967000D02*
X66380000Y-50630000D01*
X66380000Y-53370000D02*
X66380000Y-53033000D01*
X71620000Y-50630000D02*
X71620000Y-50967000D01*
X71620000Y-53033000D02*
X71620000Y-53370000D01*
X71620000Y-53370000D02*
X66380000Y-53370000D01*
%TO.C,R2*%
X100730000Y-52630000D02*
X107270000Y-52630000D01*
X100730000Y-52960000D02*
X100730000Y-52630000D01*
X100730000Y-55040000D02*
X100730000Y-55370000D01*
X100730000Y-55370000D02*
X107270000Y-55370000D01*
X107270000Y-52630000D02*
X107270000Y-52960000D01*
X107270000Y-55370000D02*
X107270000Y-55040000D01*
%TO.C,Y1*%
X66435000Y-77565000D02*
X72685000Y-77565000D01*
X72685000Y-82435000D02*
X66435000Y-82435000D01*
X66435000Y-82435000D02*
G75*
G02*
X66435000Y-77565000I0J2435000D01*
G01*
X72685000Y-77565000D02*
G75*
G02*
X72685000Y-82435000I0J-2435000D01*
G01*
%TO.C,SAVE_LED1*%
X112170000Y-42455000D02*
X112170000Y-45545000D01*
X112170000Y-42455170D02*
G75*
G02*
X117720000Y-44000000I2560000J-1544830D01*
G01*
X117720000Y-44000000D02*
G75*
G02*
X112170000Y-45544830I-2990000J0D01*
G01*
X117230000Y-44000000D02*
G75*
G02*
X112230000Y-44000000I-2500000J0D01*
G01*
X112230000Y-44000000D02*
G75*
G02*
X117230000Y-44000000I2500000J0D01*
G01*
%TO.C,DEC1*%
X46750000Y-50000000D02*
X46750000Y-51500000D01*
X48000000Y-54000000D02*
X52500000Y-54000000D01*
X52500000Y-47500000D02*
X48000000Y-47500000D01*
X53750000Y-51500000D02*
X53750000Y-50000000D01*
%TO.C,C1*%
X100880000Y-70630000D02*
X106120000Y-70630000D01*
X100880000Y-70967000D02*
X100880000Y-70630000D01*
X100880000Y-73370000D02*
X100880000Y-73033000D01*
X106120000Y-70630000D02*
X106120000Y-70967000D01*
X106120000Y-73033000D02*
X106120000Y-73370000D01*
X106120000Y-73370000D02*
X100880000Y-73370000D01*
%TO.C,D1*%
X113170000Y-74455000D02*
X113170000Y-77545000D01*
X113170000Y-74455170D02*
G75*
G02*
X118720000Y-76000000I2560000J-1544830D01*
G01*
X118720000Y-76000000D02*
G75*
G02*
X113170000Y-77544830I-2990000J0D01*
G01*
X118230000Y-76000000D02*
G75*
G02*
X113230000Y-76000000I-2500000J0D01*
G01*
X113230000Y-76000000D02*
G75*
G02*
X118230000Y-76000000I2500000J0D01*
G01*
%TO.C,C5*%
X66380000Y-57630000D02*
X71620000Y-57630000D01*
X66380000Y-57967000D02*
X66380000Y-57630000D01*
X66380000Y-60370000D02*
X66380000Y-60033000D01*
X71620000Y-57630000D02*
X71620000Y-57967000D01*
X71620000Y-60033000D02*
X71620000Y-60370000D01*
X71620000Y-60370000D02*
X66380000Y-60370000D01*
%TO.C,R4*%
X100730000Y-61630000D02*
X107270000Y-61630000D01*
X100730000Y-61960000D02*
X100730000Y-61630000D01*
X100730000Y-64040000D02*
X100730000Y-64370000D01*
X100730000Y-64370000D02*
X107270000Y-64370000D01*
X107270000Y-61630000D02*
X107270000Y-61960000D01*
X107270000Y-64370000D02*
X107270000Y-64040000D01*
%TO.C,J1*%
X68380000Y-98380000D02*
X68380000Y-97000000D01*
X69760000Y-98380000D02*
X68380000Y-98380000D01*
X71030000Y-95620000D02*
X109240000Y-95620000D01*
X71030000Y-98380000D02*
X71030000Y-95620000D01*
X71030000Y-98380000D02*
X109240000Y-98380000D01*
X109240000Y-98380000D02*
X109240000Y-95620000D01*
%TO.C,INC1*%
X46750000Y-39000000D02*
X46750000Y-40500000D01*
X48000000Y-43000000D02*
X52500000Y-43000000D01*
X52500000Y-36500000D02*
X48000000Y-36500000D01*
X53750000Y-40500000D02*
X53750000Y-39000000D01*
%TO.C,RV1*%
X99665000Y-86480000D02*
X109415000Y-86480000D01*
X99665000Y-91530000D02*
X99665000Y-86480000D01*
X109415000Y-86480000D02*
X109415000Y-91530000D01*
X109415000Y-91530000D02*
X99665000Y-91530000D01*
%TO.C,C6*%
X66380000Y-64630000D02*
X71620000Y-64630000D01*
X66380000Y-64967000D02*
X66380000Y-64630000D01*
X66380000Y-67370000D02*
X66380000Y-67033000D01*
X71620000Y-64630000D02*
X71620000Y-64967000D01*
X71620000Y-67033000D02*
X71620000Y-67370000D01*
X71620000Y-67370000D02*
X66380000Y-67370000D01*
%TO.C,R1*%
X100730000Y-42630000D02*
X107270000Y-42630000D01*
X100730000Y-42960000D02*
X100730000Y-42630000D01*
X100730000Y-45040000D02*
X100730000Y-45370000D01*
X100730000Y-45370000D02*
X107270000Y-45370000D01*
X107270000Y-42630000D02*
X107270000Y-42960000D01*
X107270000Y-45370000D02*
X107270000Y-45040000D01*
%TO.C,SAVE1*%
X46750000Y-60000000D02*
X46750000Y-61500000D01*
X48000000Y-64000000D02*
X52500000Y-64000000D01*
X52500000Y-57500000D02*
X48000000Y-57500000D01*
X53750000Y-61500000D02*
X53750000Y-60000000D01*
%TO.C,ERROR_LED1*%
X112170000Y-52455000D02*
X112170000Y-55545000D01*
X112170000Y-52455170D02*
G75*
G02*
X117720000Y-54000000I2560000J-1544830D01*
G01*
X117720000Y-54000000D02*
G75*
G02*
X112170000Y-55544830I-2990000J0D01*
G01*
X117230000Y-54000000D02*
G75*
G02*
X112230000Y-54000000I-2500000J0D01*
G01*
X112230000Y-54000000D02*
G75*
G02*
X117230000Y-54000000I2500000J0D01*
G01*
%TO.C,U1*%
X80920000Y-41450000D02*
X80920000Y-92370000D01*
X80920000Y-92370000D02*
X93840000Y-92370000D01*
X86380000Y-41450000D02*
X80920000Y-41450000D01*
X93840000Y-41450000D02*
X88380000Y-41450000D01*
X93840000Y-92370000D02*
X93840000Y-41450000D01*
X88380000Y-41450000D02*
G75*
G02*
X86380000Y-41450000I-1000000J0D01*
G01*
%TO.C,BZ1*%
X133300000Y-70000000D02*
G75*
G02*
X121100000Y-70000000I-6100000J0D01*
G01*
X121100000Y-70000000D02*
G75*
G02*
X133300000Y-70000000I6100000J0D01*
G01*
%TO.C,Q1*%
X113200000Y-64850000D02*
X116800000Y-64850000D01*
X113161522Y-64838478D02*
G75*
G02*
X115000000Y-60399999I1838478J1838478D01*
G01*
X115000000Y-60400000D02*
G75*
G02*
X116838478Y-64838478I0J-2600000D01*
G01*
%TO.C,R5*%
X72730000Y-100630000D02*
X79270000Y-100630000D01*
X72730000Y-100960000D02*
X72730000Y-100630000D01*
X72730000Y-103040000D02*
X72730000Y-103370000D01*
X72730000Y-103370000D02*
X79270000Y-103370000D01*
X79270000Y-100630000D02*
X79270000Y-100960000D01*
X79270000Y-103370000D02*
X79270000Y-103040000D01*
%TO.C,R3*%
X65540000Y-43630000D02*
X72080000Y-43630000D01*
X65540000Y-43960000D02*
X65540000Y-43630000D01*
X65540000Y-46040000D02*
X65540000Y-46370000D01*
X65540000Y-46370000D02*
X72080000Y-46370000D01*
X72080000Y-43630000D02*
X72080000Y-43960000D01*
X72080000Y-46370000D02*
X72080000Y-46040000D01*
%TO.C,CLEAR1*%
X46750000Y-80000000D02*
X46750000Y-81500000D01*
X48000000Y-84000000D02*
X52500000Y-84000000D01*
X52500000Y-77500000D02*
X48000000Y-77500000D01*
X53750000Y-81500000D02*
X53750000Y-80000000D01*
%TD*%
M02*
