M48
; DRILL file KiCad 10.0.3 date 2026-06-28T17:31:56
; FORMAT={-:-/ absolute / metric / decimal}
; #@! TF.CreationDate,2026-06-28T17:31:56+03:00
; #@! TF.GenerationSoftware,Kicad,Pcbnew,10.0.3
; #@! TF.FileFunction,MixedPlating,1,2
FMAT,2
METRIC
; #@! TA.AperFunction,Plated,PTH,ViaDrill
T1C0.300
; #@! TA.AperFunction,Plated,PTH,ComponentDrill
T2C0.750
; #@! TA.AperFunction,Plated,PTH,ComponentDrill
T3C0.800
; #@! TA.AperFunction,Plated,PTH,ComponentDrill
T4C0.900
; #@! TA.AperFunction,Plated,PTH,ComponentDrill
T5C1.000
; #@! TA.AperFunction,Plated,PTH,ComponentDrill
T6C1.100
%
G90
G05
T1
X44.0Y-88.0
X72.0Y-94.0
X80.66Y-66.0
X95.0Y-40.68
X111.0Y-77.0
T2
X113.73Y-63.0
X115.0Y-63.0
X116.27Y-63.0
T3
X65.0Y-45.0
X66.5Y-52.0
X66.5Y-59.0
X66.5Y-66.0
X66.5Y-73.0
X67.0Y-87.0
X67.12Y-80.0
X71.5Y-52.0
X71.5Y-59.0
X71.5Y-66.0
X71.5Y-73.0
X72.0Y-80.0
X72.0Y-87.0
X72.19Y-102.0
X72.62Y-45.0
X79.76Y-42.78
X79.76Y-45.32
X79.76Y-47.86
X79.76Y-50.4
X79.76Y-52.94
X79.76Y-55.48
X79.76Y-58.02
X79.76Y-60.56
X79.76Y-63.1
X79.76Y-65.64
X79.76Y-68.18
X79.76Y-70.72
X79.76Y-73.26
X79.76Y-75.8
X79.76Y-78.34
X79.76Y-80.88
X79.76Y-83.42
X79.76Y-85.96
X79.76Y-88.5
X79.76Y-91.04
X79.81Y-102.0
X95.0Y-42.78
X95.0Y-45.32
X95.0Y-47.86
X95.0Y-50.4
X95.0Y-52.94
X95.0Y-55.48
X95.0Y-58.02
X95.0Y-60.56
X95.0Y-63.1
X95.0Y-65.64
X95.0Y-68.18
X95.0Y-70.72
X95.0Y-73.26
X95.0Y-75.8
X95.0Y-78.34
X95.0Y-80.88
X95.0Y-83.42
X95.0Y-85.96
X95.0Y-88.5
X95.0Y-91.04
X100.19Y-44.0
X100.19Y-54.0
X100.19Y-63.0
X101.0Y-72.0
X102.0Y-89.0
X104.54Y-89.0
X106.0Y-72.0
X107.08Y-89.0
X107.81Y-44.0
X107.81Y-54.0
X107.81Y-63.0
T4
X113.46Y-44.0
X113.46Y-54.0
X114.46Y-76.0
X116.0Y-44.0
X116.0Y-54.0
X117.0Y-76.0
T5
X69.76Y-97.0
X72.3Y-97.0
X74.84Y-97.0
X77.38Y-97.0
X79.92Y-97.0
X82.46Y-97.0
X85.0Y-97.0
X87.54Y-97.0
X90.08Y-97.0
X92.62Y-97.0
X95.16Y-97.0
X97.7Y-97.0
X100.24Y-97.0
X102.78Y-97.0
X105.32Y-97.0
X107.86Y-97.0
X123.4Y-70.0
X131.0Y-70.0
T6
X47.0Y-37.5
X47.0Y-42.0
X47.0Y-48.5
X47.0Y-53.0
X47.0Y-58.5
X47.0Y-63.0
X47.0Y-68.5
X47.0Y-73.0
X47.0Y-78.5
X47.0Y-83.0
X47.5Y-88.5
X47.5Y-93.0
X53.5Y-37.5
X53.5Y-42.0
X53.5Y-48.5
X53.5Y-53.0
X53.5Y-58.5
X53.5Y-63.0
X53.5Y-68.5
X53.5Y-73.0
X53.5Y-78.5
X53.5Y-83.0
X54.0Y-88.5
X54.0Y-93.0
M30
