%TF.GenerationSoftware,KiCad,Pcbnew,10.0.3*%
%TF.CreationDate,2026-06-28T17:31:55+03:00*%
%TF.ProjectId,ATmega32_EEPROM_Storage,41546d65-6761-4333-925f-454550524f4d,rev?*%
%TF.SameCoordinates,Original*%
%TF.FileFunction,Other,User*%
%FSLAX46Y46*%
G04 Gerber Fmt 4.6, Leading zero omitted, Abs format (unit mm)*
G04 Created by KiCad (PCBNEW 10.0.3) date 2026-06-28 17:31:55*
%MOMM*%
%LPD*%
G01*
G04 APERTURE LIST*
%ADD10C,0.050000*%
G04 APERTURE END LIST*
%TO.C,C4*%
D10*
X65950000Y-85500000D02*
X73050000Y-85500000D01*
X73050000Y-88500000D01*
X65950000Y-88500000D01*
X65950000Y-85500000D01*
%TO.C,C3*%
X65450000Y-71500000D02*
X72550000Y-71500000D01*
X72550000Y-74500000D01*
X65450000Y-74500000D01*
X65450000Y-71500000D01*
%TO.C,READ1*%
X45500000Y-67000000D02*
X45750000Y-67000000D01*
X45500000Y-67250000D02*
X45500000Y-67000000D01*
X45500000Y-74250000D02*
X45500000Y-67250000D01*
X45500000Y-74250000D02*
X45500000Y-74500000D01*
X45500000Y-74500000D02*
X45750000Y-74500000D01*
X45750000Y-67000000D02*
X54750000Y-67000000D01*
X54750000Y-67000000D02*
X55000000Y-67000000D01*
X54750000Y-74500000D02*
X45750000Y-74500000D01*
X54750000Y-74500000D02*
X55000000Y-74500000D01*
X55000000Y-67000000D02*
X55000000Y-67250000D01*
X55000000Y-67250000D02*
X55000000Y-74250000D01*
X55000000Y-74500000D02*
X55000000Y-74250000D01*
%TO.C,SW6*%
X46000000Y-87000000D02*
X46250000Y-87000000D01*
X46000000Y-87250000D02*
X46000000Y-87000000D01*
X46000000Y-94250000D02*
X46000000Y-87250000D01*
X46000000Y-94250000D02*
X46000000Y-94500000D01*
X46000000Y-94500000D02*
X46250000Y-94500000D01*
X46250000Y-87000000D02*
X55250000Y-87000000D01*
X55250000Y-87000000D02*
X55500000Y-87000000D01*
X55250000Y-94500000D02*
X46250000Y-94500000D01*
X55250000Y-94500000D02*
X55500000Y-94500000D01*
X55500000Y-87000000D02*
X55500000Y-87250000D01*
X55500000Y-87250000D02*
X55500000Y-94250000D01*
X55500000Y-94500000D02*
X55500000Y-94250000D01*
%TO.C,C2*%
X65450000Y-50500000D02*
X72550000Y-50500000D01*
X72550000Y-53500000D01*
X65450000Y-53500000D01*
X65450000Y-50500000D01*
%TO.C,R2*%
X99140000Y-52500000D02*
X108860000Y-52500000D01*
X108860000Y-55500000D01*
X99140000Y-55500000D01*
X99140000Y-52500000D01*
%TO.C,Y1*%
X66440000Y-77170000D02*
X72680000Y-77170000D01*
X72680000Y-82830000D02*
X66440000Y-82830000D01*
X66440000Y-82830000D02*
G75*
G02*
X66440000Y-77170000I0J2830000D01*
G01*
X72680000Y-77170000D02*
G75*
G02*
X72680000Y-82830000I0J-2830000D01*
G01*
%TO.C,SAVE_LED1*%
X111520000Y-40790000D02*
X117950000Y-40790000D01*
X117950000Y-47210000D01*
X111520000Y-47210000D01*
X111520000Y-40790000D01*
%TO.C,DEC1*%
X45500000Y-47000000D02*
X45750000Y-47000000D01*
X45500000Y-47250000D02*
X45500000Y-47000000D01*
X45500000Y-54250000D02*
X45500000Y-47250000D01*
X45500000Y-54250000D02*
X45500000Y-54500000D01*
X45500000Y-54500000D02*
X45750000Y-54500000D01*
X45750000Y-47000000D02*
X54750000Y-47000000D01*
X54750000Y-47000000D02*
X55000000Y-47000000D01*
X54750000Y-54500000D02*
X45750000Y-54500000D01*
X54750000Y-54500000D02*
X55000000Y-54500000D01*
X55000000Y-47000000D02*
X55000000Y-47250000D01*
X55000000Y-47250000D02*
X55000000Y-54250000D01*
X55000000Y-54500000D02*
X55000000Y-54250000D01*
%TO.C,C1*%
X99950000Y-70500000D02*
X107050000Y-70500000D01*
X107050000Y-73500000D01*
X99950000Y-73500000D01*
X99950000Y-70500000D01*
%TO.C,D1*%
X112520000Y-72790000D02*
X118950000Y-72790000D01*
X118950000Y-79210000D01*
X112520000Y-79210000D01*
X112520000Y-72790000D01*
%TO.C,C5*%
X65450000Y-57500000D02*
X72550000Y-57500000D01*
X72550000Y-60500000D01*
X65450000Y-60500000D01*
X65450000Y-57500000D01*
%TO.C,R4*%
X99140000Y-61500000D02*
X108860000Y-61500000D01*
X108860000Y-64500000D01*
X99140000Y-64500000D01*
X99140000Y-61500000D01*
%TO.C,J1*%
X67980000Y-95230000D02*
X109640000Y-95230000D01*
X109640000Y-98770000D01*
X67980000Y-98770000D01*
X67980000Y-95230000D01*
%TO.C,INC1*%
X45500000Y-36000000D02*
X45750000Y-36000000D01*
X45500000Y-36250000D02*
X45500000Y-36000000D01*
X45500000Y-43250000D02*
X45500000Y-36250000D01*
X45500000Y-43250000D02*
X45500000Y-43500000D01*
X45500000Y-43500000D02*
X45750000Y-43500000D01*
X45750000Y-36000000D02*
X54750000Y-36000000D01*
X54750000Y-36000000D02*
X55000000Y-36000000D01*
X54750000Y-43500000D02*
X45750000Y-43500000D01*
X54750000Y-43500000D02*
X55000000Y-43500000D01*
X55000000Y-36000000D02*
X55000000Y-36250000D01*
X55000000Y-36250000D02*
X55000000Y-43250000D01*
X55000000Y-43500000D02*
X55000000Y-43250000D01*
%TO.C,RV1*%
X99520000Y-86340000D02*
X109560000Y-86340000D01*
X109560000Y-91670000D01*
X99520000Y-91670000D01*
X99520000Y-86340000D01*
%TO.C,C6*%
X65450000Y-64500000D02*
X72550000Y-64500000D01*
X72550000Y-67500000D01*
X65450000Y-67500000D01*
X65450000Y-64500000D01*
%TO.C,R1*%
X99140000Y-42500000D02*
X108860000Y-42500000D01*
X108860000Y-45500000D01*
X99140000Y-45500000D01*
X99140000Y-42500000D01*
%TO.C,SAVE1*%
X45500000Y-57000000D02*
X45750000Y-57000000D01*
X45500000Y-57250000D02*
X45500000Y-57000000D01*
X45500000Y-64250000D02*
X45500000Y-57250000D01*
X45500000Y-64250000D02*
X45500000Y-64500000D01*
X45500000Y-64500000D02*
X45750000Y-64500000D01*
X45750000Y-57000000D02*
X54750000Y-57000000D01*
X54750000Y-57000000D02*
X55000000Y-57000000D01*
X54750000Y-64500000D02*
X45750000Y-64500000D01*
X54750000Y-64500000D02*
X55000000Y-64500000D01*
X55000000Y-57000000D02*
X55000000Y-57250000D01*
X55000000Y-57250000D02*
X55000000Y-64250000D01*
X55000000Y-64500000D02*
X55000000Y-64250000D01*
%TO.C,ERROR_LED1*%
X111520000Y-50790000D02*
X117950000Y-50790000D01*
X117950000Y-57210000D01*
X111520000Y-57210000D01*
X111520000Y-50790000D01*
%TO.C,U1*%
X78710000Y-41250000D02*
X96050000Y-41250000D01*
X96050000Y-92560000D01*
X78710000Y-92560000D01*
X78710000Y-41250000D01*
%TO.C,BZ1*%
X133450000Y-70000000D02*
G75*
G02*
X120950000Y-70000000I-6250000J0D01*
G01*
X120950000Y-70000000D02*
G75*
G02*
X133450000Y-70000000I6250000J0D01*
G01*
%TO.C,Q1*%
X112270000Y-60270000D02*
X112270000Y-65010000D01*
X112270000Y-60270000D02*
X117730000Y-60270000D01*
X117730000Y-65010000D02*
X112270000Y-65010000D01*
X117730000Y-65010000D02*
X117730000Y-60270000D01*
%TO.C,R5*%
X71140000Y-100500000D02*
X80860000Y-100500000D01*
X80860000Y-103500000D01*
X71140000Y-103500000D01*
X71140000Y-100500000D01*
%TO.C,R3*%
X63950000Y-43500000D02*
X73670000Y-43500000D01*
X73670000Y-46500000D01*
X63950000Y-46500000D01*
X63950000Y-43500000D01*
%TO.C,CLEAR1*%
X45500000Y-77000000D02*
X45750000Y-77000000D01*
X45500000Y-77250000D02*
X45500000Y-77000000D01*
X45500000Y-84250000D02*
X45500000Y-77250000D01*
X45500000Y-84250000D02*
X45500000Y-84500000D01*
X45500000Y-84500000D02*
X45750000Y-84500000D01*
X45750000Y-77000000D02*
X54750000Y-77000000D01*
X54750000Y-77000000D02*
X55000000Y-77000000D01*
X54750000Y-84500000D02*
X45750000Y-84500000D01*
X54750000Y-84500000D02*
X55000000Y-84500000D01*
X55000000Y-77000000D02*
X55000000Y-77250000D01*
X55000000Y-77250000D02*
X55000000Y-84250000D01*
X55000000Y-84500000D02*
X55000000Y-84250000D01*
%TD*%
M02*
